goteka-medium.ufo
<glyph name="exclam" format="2">
  <advance width="542.6"/>
  <unicode hex="0021"/>
  <outline>
    <contour>
      <point x="179.6" y="1454.4" type="line"/>
      <point x="376.0" y="1454.4" type="line"/>
      <point x="336.8" y="366.6" type="line"/>
      <point x="217.0" y="366.6" type="line"/>
    </contour>
    <contour>
      <point x="276.4" y="-22.8" type="qcurve"/>
      <point x="228.0" y="-21.8"/>
      <point x="195.4" y="11.0" type="qcurve"/>
      <point x="162.2" y="47.2"/>
      <point x="162.2" y="92.4" type="qcurve"/>
      <point x="162.2" y="135.8"/>
      <point x="195.6" y="168.4" type="qcurve"/>
      <point x="228.2" y="200.6"/>
      <point x="276.4" y="200.6" type="qcurve"/>
      <point x="322.0" y="200.6"/>
      <point x="352.2" y="168.4" type="qcurve"/>
      <point x="387.6" y="136.0"/>
      <point x="387.6" y="92.6" type="qcurve"/>
      <point x="388.4" y="47.2"/>
      <point x="354.0" y="10.8" type="qcurve"/>
      <point x="321.8" y="-21.6"/>
    </contour>
  </outline>
</glyph>
<glyph name="quotedbl" format="2">
  <advance width="815.0"/>
  <unicode hex="0022"/>
  <outline>
    <contour>
      <point x="137.6" y="985.0" type="line"/>
      <point x="137.6" y="1387.2" type="line"/>
      <point x="299.6" y="1387.2" type="line"/>
      <point x="299.6" y="985.0" type="line"/>
    </contour>
    <contour>
      <point x="424.0" y="985.0" type="line"/>
      <point x="424.0" y="1387.2" type="line"/>
      <point x="586.0" y="1387.2" type="line"/>
      <point x="586.0" y="985.0" type="line"/>
    </contour>
  </outline>
</glyph>
<glyph name="numbersign" format="2">
  <advance width="1412.8"/>
  <unicode hex="0023"/>
  <outline>
    <contour>
      <point x="1055.4" y="945.6" type="line"/>
      <point x="947.4" y="511.8" type="line"/>
      <point x="1195.4" y="511.8" type="line"/>
      <point x="1162.2" y="378.4" type="line"/>
      <point x="913.0" y="378.4" type="line"/>
      <point x="817.0" y="0.0" type="line"/>
      <point x="675.4" y="0.0" type="line"/>
      <point x="770.2" y="378.4" type="line"/>
      <point x="456.6" y="378.4" type="line"/>
      <point x="359.6" y="0.0" type="line"/>
      <point x="218.8" y="0.0" type="line"/>
      <point x="311.8" y="378.4" type="line"/>
      <point x="76.0" y="378.4" type="line"/>
      <point x="105.8" y="511.8" type="line"/>
      <point x="346.0" y="511.8" type="line"/>
      <point x="455.0" y="945.6" type="line"/>
      <point x="215.0" y="945.6" type="line"/>
      <point x="248.4" y="1077.0" type="line"/>
      <point x="490.4" y="1077.0" type="line"/>
      <point x="585.0" y="1457.4" type="line"/>
      <point x="730.0" y="1457.4" type="line"/>
      <point x="632.2" y="1077.0" type="line"/>
      <point x="946.8" y="1077.0" type="line"/>
      <point x="1041.4" y="1457.4" type="line"/>
      <point x="1184.4" y="1457.4" type="line"/>
      <point x="1089.6" y="1077.0" type="line"/>
      <point x="1339.8" y="1077.0" type="line"/>
      <point x="1304.0" y="945.6" type="line"/>
    </contour>
    <contour>
      <point x="911.4" y="945.6" type="line"/>
      <point x="597.8" y="945.6" type="line"/>
      <point x="489.0" y="511.8" type="line"/>
      <point x="802.6" y="511.8" type="line"/>
    </contour>
  </outline>
</glyph>
<glyph name="ampersand" format="2">
  <advance width="1440.4"/>
  <unicode hex="0026"/>
  <outline>
    <contour>
      <point x="1188.2" y="-13.8" type="line"/>
      <point x="999.8" y="180.4" type="line"/>
      <point x="808.0" y="-25.6"/>
      <point x="556.0" y="-22.8" type="qcurve"/>
      <point x="429.4" y="-25.6"/>
      <point x="323.6" y="25.6" type="qcurve"/>
      <point x="220.6" y="77.2"/>
      <point x="157.8" y="170.4" type="qcurve"/>
      <point x="100.0" y="265.4"/>
      <point x="97.0" y="389.6" type="qcurve"/>
      <point x="95.0" y="533.2"/>
      <point x="178.2" y="638.6" type="qcurve"/>
      <point x="262.6" y="746.2"/>
      <point x="427.0" y="819.6" type="qcurve"/>
      <point x="366.8" y="903.8"/>
      <point x="334.8" y="978.0" type="qcurve"/>
      <point x="304.4" y="1053.0"/>
      <point x="308.4" y="1137.8" type="qcurve"/>
      <point x="308.4" y="1233.2"/>
      <point x="354.2" y="1310.4" type="qcurve"/>
      <point x="402.0" y="1389.8"/>
      <point x="489.4" y="1433.4" type="qcurve"/>
      <point x="576.4" y="1482.2"/>
      <point x="679.4" y="1479.0" type="qcurve"/>
      <point x="773.8" y="1479.0"/>
      <point x="853.0" y="1435.4" type="qcurve"/>
      <point x="932.2" y="1391.6"/>
      <point x="978.0" y="1312.4" type="qcurve"/>
      <point x="1023.8" y="1235.0"/>
      <point x="1023.8" y="1139.6" type="qcurve"/>
      <point x="1024.8" y="1009.0"/>
      <point x="935.8" y="926.2" type="qcurve"/>
      <point x="844.6" y="843.0"/>
      <point x="671.6" y="773.4" type="qcurve"/>
      <point x="797.0" y="626.4"/>
      <point x="996.4" y="415.6" type="qcurve"/>
      <point x="1099.8" y="565.0"/>
      <point x="1162.0" y="741.4" type="qcurve"/>
      <point x="1306.6" y="676.0" type="line"/>
      <point x="1203.4" y="449.2"/>
      <point x="1103.6" y="307.8" type="qcurve"/>
      <point x="1348.4" y="60.8" type="line"/>
    </contour>
    <contour>
      <point x="679.2" y="1334.8" type="qcurve"/>
      <point x="588.4" y="1334.8"/>
      <point x="530.6" y="1280.8" type="qcurve"/>
      <point x="471.4" y="1230.0"/>
      <point x="468.6" y="1137.6" type="qcurve"/>
      <point x="468.6" y="1025.4"/>
      <point x="583.6" y="881.0" type="qcurve"/>
      <point x="735.8" y="937.6"/>
      <point x="794.6" y="992.4" type="qcurve"/>
      <point x="861.0" y="1051.2"/>
      <point x="862.8" y="1137.8" type="qcurve"/>
      <point x="863.6" y="1219.8"/>
      <point x="810.6" y="1274.8" type="qcurve"/>
      <point x="765.6" y="1334.0"/>
    </contour>
    <contour>
      <point x="562.8" y="124.6" type="qcurve"/>
      <point x="742.4" y="127.4"/>
      <point x="895.6" y="287.0" type="qcurve"/>
      <point x="655.6" y="538.6"/>
      <point x="514.6" y="711.0" type="qcurve"/>
      <point x="399.0" y="658.8"/>
      <point x="329.2" y="574.4" type="qcurve"/>
      <point x="262.0" y="496.0"/>
      <point x="262.0" y="394.8" type="qcurve"/>
      <point x="260.0" y="270.4"/>
      <point x="345.6" y="196.6" type="qcurve"/>
      <point x="435.6" y="124.6"/>
    </contour>
  </outline>
</glyph>
<glyph name="quotesingle" format="2">
  <advance width="434.6"/>
  <unicode hex="0027"/>
  <outline>
    <contour>
      <point x="137.6" y="984.0" type="line"/>
      <point x="137.6" y="1386.2" type="line"/>
      <point x="299.6" y="1386.2" type="line"/>
      <point x="299.6" y="984.0" type="line"/>
    </contour>
  </outline>
</glyph>
<glyph name="parenleft" format="2">
  <advance width="778.6"/>
  <unicode hex="0028"/>
  <outline>
    <contour>
      <point x="666.8" y="1398.6" type="line"/>
      <point x="575.2" y="1301.8"/>
      <point x="510.4" y="1208.4" type="qcurve"/>
      <point x="447.4" y="1115.2"/>
      <point x="400.4" y="1018.2" type="qcurve"/>
      <point x="310.4" y="820.4"/>
      <point x="310.4" y="570.6" type="qcurve"/>
      <point x="310.4" y="320.8"/>
      <point x="400.4" y="125.0" type="qcurve"/>
      <point x="489.0" y="-69.2"/>
      <point x="668.6" y="-260.4" type="qcurve"/>
      <point x="579.4" y="-354.2" type="line"/>
      <point x="363.6" y="-172.2"/>
      <point x="250.0" y="61.6" type="qcurve"/>
      <point x="136.6" y="297.6"/>
      <point x="137.6" y="570.6" type="qcurve"/>
      <point x="136.6" y="839.6"/>
      <point x="250.0" y="1072.6" type="qcurve"/>
      <point x="363.6" y="1307.6"/>
      <point x="579.4" y="1492.6" type="qcurve"/>
    </contour>
  </outline>
</glyph>
<glyph name="parenright" format="2">
  <advance width="775.4"/>
  <unicode hex="0029"/>
  <outline>
    <contour>
      <point x="110.2" y="-260.4" type="line"/>
      <point x="202.8" y="-162.6"/>
      <point x="265.6" y="-69.4" type="qcurve"/>
      <point x="330.6" y="24.0"/>
      <point x="375.6" y="121.0" type="qcurve"/>
      <point x="466.6" y="319.8"/>
      <point x="465.6" y="568.6" type="qcurve"/>
      <point x="466.6" y="819.4"/>
      <point x="375.6" y="1014.4" type="qcurve"/>
      <point x="290.2" y="1209.4"/>
      <point x="108.2" y="1398.4" type="qcurve"/>
      <point x="197.6" y="1492.4" type="line"/>
      <point x="415.4" y="1311.4"/>
      <point x="525.8" y="1076.4" type="qcurve"/>
      <point x="641.4" y="841.4"/>
      <point x="638.4" y="568.6" type="qcurve"/>
      <point x="641.4" y="299.8"/>
      <point x="525.8" y="66.6" type="qcurve"/>
      <point x="415.2" y="-168.4"/>
      <point x="197.4" y="-354.4" type="qcurve"/>
    </contour>
  </outline>
</glyph>
<glyph name="asterisk" format="2">
  <advance width="781.4"/>
  <unicode hex="002A"/>
  <outline>
    <contour>
      <point x="279.4" y="769.2" type="line"/>
      <point x="401.8" y="959.4" type="line"/>
      <point x="525.2" y="769.2" type="line"/>
      <point x="592.2" y="811.6" type="line"/>
      <point x="462.6" y="1011.2" type="line"/>
      <point x="668.4" y="1086.0" type="line"/>
      <point x="641.2" y="1161.2" type="line"/>
      <point x="441.8" y="1088.8" type="line"/>
      <point x="441.8" y="1330.8" type="line"/>
      <point x="362.8" y="1330.8" type="line"/>
      <point x="362.8" y="1088.8" type="line"/>
      <point x="163.4" y="1161.2" type="line"/>
      <point x="136.2" y="1086.0" type="line"/>
      <point x="342.0" y="1011.0" type="line"/>
      <point x="212.4" y="811.6" type="line"/>
    </contour>
  </outline>
</glyph>
<glyph name="plus" format="2">
  <advance width="1153.8"/>
  <unicode hex="002B"/>
  <outline>
    <contour>
      <point x="1025.8" y="565.2" type="line"/>
      <point x="659.2" y="565.2" type="line"/>
      <point x="659.2" y="200.6" type="line"/>
      <point x="496.2" y="200.6" type="line"/>
      <point x="496.2" y="565.2" type="line"/>
      <point x="131.6" y="565.2" type="line"/>
      <point x="131.6" y="725.2" type="line"/>
      <point x="496.2" y="725.2" type="line"/>
      <point x="496.2" y="1091.8" type="line"/>
      <point x="659.2" y="1091.8" type="line"/>
      <point x="659.2" y="725.2" type="line"/>
      <point x="1025.8" y="725.2" type="line"/>
    </contour>
  </outline>
</glyph>
<glyph name="hyphen" format="2">
  <advance width="730.6"/>
  <unicode hex="002D"/>
  <outline>
    <contour>
      <point x="108.8" y="605.6" type="line"/>
      <point x="621.6" y="605.6" type="line"/>
      <point x="621.6" y="447.6" type="line"/>
      <point x="108.8" y="447.6" type="line"/>
    </contour>
  </outline>
</glyph>
<glyph name="period" format="2">
  <advance width="505.8"/>
  <unicode hex="002E"/>
  <outline>
    <contour>
      <point x="258.6" y="-22.8" type="qcurve"/>
      <point x="213.4" y="-21.8"/>
      <point x="177.0" y="10.6" type="qcurve"/>
      <point x="141.4" y="47.2"/>
      <point x="141.4" y="92.4" type="qcurve"/>
      <point x="141.4" y="136.0"/>
      <point x="177.0" y="168.6" type="qcurve"/>
      <point x="213.4" y="200.6"/>
      <point x="258.6" y="200.6" type="qcurve"/>
      <point x="304.2" y="200.6"/>
      <point x="334.4" y="168.2" type="qcurve"/>
      <point x="366.8" y="135.6"/>
      <point x="366.8" y="92.4" type="qcurve"/>
      <point x="366.8" y="47.6"/>
      <point x="336.8" y="11.2" type="qcurve"/>
      <point x="306.4" y="-21.6"/>
    </contour>
  </outline>
</glyph>
<glyph name="slash" format="2">
  <advance width="886.0"/>
  <unicode hex="002F"/>
  <outline>
    <contour>
      <point x="205.2" y="9.4" type="line"/>
      <point x="43.2" y="9.4" type="line"/>
    </contour>
    <contour>
      <point x="28.8" y="0.0" type="line"/>
      <point x="654.4" y="1457.4" type="line"/>
      <point x="837.0" y="1457.4" type="line"/>
      <point x="211.4" y="0.0" type="line"/>
    </contour>
  </outline>
</glyph>
<glyph name="zero" format="2">
  <advance width="1533.0"/>
  <unicode hex="0030"/>
  <outline>
    <contour>
      <point x="724.8" y="1479.0" type="qcurve"/>
      <point x="896.6" y="1481.0"/>
      <point x="1035.6" y="1384.4" type="qcurve"/>
      <point x="1175.0" y="1288.2"/>
      <point x="1249.2" y="1119.0" type="qcurve"/>
      <point x="1329.0" y="949.0"/>
      <point x="1329.0" y="730.6" type="qcurve"/>
      <point x="1332.0" y="511.2"/>
      <point x="1251.0" y="339.4" type="qcurve"/>
      <point x="1176.0" y="174.2"/>
      <point x="1037.6" y="74.8" type="qcurve"/>
      <point x="899.8" y="-19.8"/>
      <point x="724.8" y="-22.8" type="qcurve"/>
      <point x="550.2" y="-21.8"/>
      <point x="407.2" y="72.8" type="qcurve"/>
      <point x="274.8" y="173.2"/>
      <point x="193.8" y="339.4" type="qcurve"/>
      <point x="115.8" y="511.2"/>
      <point x="115.8" y="730.6" type="qcurve"/>
      <point x="113.8" y="948.0"/>
      <point x="191.8" y="1117.2" type="qcurve"/>
      <point x="274.8" y="1286.2"/>
      <point x="407.2" y="1382.4" type="qcurve"/>
      <point x="550.0" y="1482.0"/>
    </contour>
    <contour>
      <point x="724.8" y="1325.0" type="qcurve"/>
      <point x="597.6" y="1325.0"/>
      <point x="497.4" y="1249.8" type="qcurve"/>
      <point x="402.4" y="1177.2"/>
      <point x="342.2" y="1041.2" type="qcurve"/>
      <point x="285.8" y="903.6"/>
      <point x="285.8" y="730.6" type="qcurve"/>
      <point x="285.8" y="562.4"/>
      <point x="340.6" y="422.0" type="qcurve"/>
      <point x="398.6" y="288.0"/>
      <point x="497.6" y="209.4" type="qcurve"/>
      <point x="597.6" y="132.4"/>
      <point x="724.8" y="132.4" type="qcurve"/>
      <point x="849.2" y="132.4"/>
      <point x="947.4" y="207.6" type="qcurve"/>
      <point x="1049.0" y="286.2"/>
      <point x="1102.6" y="418.0" type="qcurve"/>
      <point x="1161.0" y="562.6"/>
      <point x="1158.2" y="730.6" type="qcurve"/>
      <point x="1161.0" y="902.6"/>
      <point x="1102.6" y="1039.2" type="qcurve"/>
      <point x="1049.0" y="1175.4"/>
      <point x="947.4" y="1249.8" type="qcurve"/>
      <point x="849.2" y="1325.0"/>
    </contour>
  </outline>
</glyph>
<glyph name="one" format="2">
  <advance width="725.6"/>
  <unicode hex="0031"/>
  <outline>
    <contour>
      <point x="374.6" y="1247.8" type="line"/>
      <point x="124.0" y="1085.8" type="line"/>
      <point x="51.6" y="1211.6" type="line"/>
      <point x="411.8" y="1457.4" type="line"/>
      <point x="541.6" y="1457.4" type="line"/>
      <point x="541.6" y="0.0" type="line"/>
      <point x="374.6" y="0.0" type="line"/>
    </contour>
  </outline>
</glyph>
<glyph name="two" format="2">
  <advance width="1232.8"/>
  <unicode hex="0032"/>
  <outline>
    <contour>
      <point x="99.0" y="137.2" type="line"/>
      <point x="628.8" y="593.6" type="line"/>
      <point x="665.4" y="626.0"/>
      <point x="716.8" y="673.4" type="qcurve"/>
      <point x="769.4" y="719.4"/>
      <point x="814.2" y="777.8" type="qcurve"/>
      <point x="861.0" y="836.4"/>
      <point x="892.4" y="904.6" type="qcurve"/>
      <point x="924.0" y="971.8"/>
      <point x="924.0" y="1045.0" type="qcurve"/>
      <point x="925.0" y="1075.2"/>
      <point x="909.6" y="1123.2" type="qcurve"/>
      <point x="895.2" y="1172.0"/>
      <point x="858.6" y="1218.0" type="qcurve"/>
      <point x="824.4" y="1264.8"/>
      <point x="766.8" y="1296.4" type="qcurve"/>
      <point x="709.4" y="1328.8"/>
      <point x="625.2" y="1328.8" type="qcurve"/>
      <point x="506.6" y="1329.8"/>
      <point x="403.2" y="1258.4" type="qcurve"/>
      <point x="298.6" y="1188.0"/>
      <point x="225.4" y="1095.8" type="qcurve"/>
      <point x="104.4" y="1192.4" type="line"/>
      <point x="309.0" y="1479.0"/>
      <point x="625.2" y="1479.0" type="qcurve"/>
      <point x="774.0" y="1479.0"/>
      <point x="865.0" y="1425.4" type="qcurve"/>
      <point x="954.8" y="1371.8"/>
      <point x="1005.2" y="1299.2" type="qcurve"/>
      <point x="1055.6" y="1226.8"/>
      <point x="1073.8" y="1154.8" type="qcurve"/>
      <point x="1092.0" y="1083.4"/>
      <point x="1092.0" y="1046.8" type="qcurve"/>
      <point x="1093.0" y="867.6"/>
      <point x="988.2" y="739.4" type="qcurve"/>
      <point x="886.0" y="615.4"/>
      <point x="743.0" y="488.6" type="qcurve"/>
      <point x="368.4" y="158.2" type="line"/>
      <point x="1106.8" y="158.2" type="line"/>
      <point x="1106.8" y="0.0" type="line"/>
      <point x="99.0" y="0.0" type="line"/>
    </contour>
  </outline>
</glyph>
<glyph name="three" format="2">
  <advance width="1256.6"/>
  <unicode hex="0033"/>
  <outline>
    <contour>
      <point x="621.2" y="-15.8" type="qcurve"/>
      <point x="458.0" y="-17.8"/>
      <point x="319.4" y="49.4" type="qcurve"/>
      <point x="187.2" y="120.6"/>
      <point x="95.6" y="233.4" type="qcurve"/>
      <point x="209.2" y="341.2" type="line"/>
      <point x="288.2" y="246.0"/>
      <point x="388.4" y="191.6" type="qcurve"/>
      <point x="495.2" y="137.4"/>
      <point x="621.2" y="134.4" type="qcurve"/>
      <point x="774.6" y="137.4"/>
      <point x="862.4" y="211.2" type="qcurve"/>
      <point x="956.6" y="286.6"/>
      <point x="956.6" y="410.6" type="qcurve"/>
      <point x="956.6" y="535.6"/>
      <point x="857.2" y="597.0" type="qcurve"/>
      <point x="759.6" y="662.0"/>
      <point x="584.6" y="662.0" type="qcurve"/>
      <point x="429.0" y="662.0" type="line"/>
      <point x="429.0" y="817.2" type="line"/>
      <point x="586.6" y="817.2" type="line"/>
      <point x="740.6" y="817.2"/>
      <point x="830.0" y="881.6" type="qcurve"/>
      <point x="924.0" y="949.8"/>
      <point x="924.0" y="1066.8" type="qcurve"/>
      <point x="926.8" y="1180.6"/>
      <point x="833.4" y="1254.0" type="qcurve"/>
      <point x="743.2" y="1329.8"/>
      <point x="607.4" y="1326.8" type="qcurve"/>
      <point x="496.4" y="1327.8"/>
      <point x="403.6" y="1272.8" type="qcurve"/>
      <point x="319.0" y="1226.0"/>
      <point x="230.8" y="1122.6" type="qcurve"/>
      <point x="116.2" y="1221.4" type="line"/>
      <point x="314.2" y="1481.0"/>
      <point x="615.0" y="1479.0" type="qcurve"/>
      <point x="754.6" y="1482.0"/>
      <point x="860.2" y="1431.6" type="qcurve"/>
      <point x="964.2" y="1382.2"/>
      <point x="1028.0" y="1291.4" type="qcurve"/>
      <point x="1092.0" y="1200.0"/>
      <point x="1092.0" y="1087.4" type="qcurve"/>
      <point x="1092.0" y="1021.6"/>
      <point x="1074.8" y="968.0" type="qcurve"/>
      <point x="1058.2" y="914.2"/>
      <point x="1012.2" y="869.2" type="qcurve"/>
      <point x="969.8" y="823.0"/>
      <point x="900.4" y="784.6" type="qcurve"/>
      <point x="831.2" y="748.6"/>
      <point x="834.4" y="749.6" type="qcurve"/>
      <point x="834.6" y="749.6"/>
      <point x="908.6" y="714.4" type="qcurve"/>
      <point x="984.2" y="680.2"/>
      <point x="1032.8" y="631.6" type="qcurve"/>
      <point x="1124.6" y="543.0"/>
      <point x="1124.6" y="400.6" type="qcurve"/>
      <point x="1124.6" y="281.2"/>
      <point x="1060.8" y="186.0" type="qcurve"/>
      <point x="997.0" y="93.0"/>
      <point x="882.2" y="35.6" type="qcurve"/>
      <point x="774.4" y="-17.8"/>
    </contour>
  </outline>
</glyph>
<glyph name="four" format="2">
  <advance width="1335.4"/>
  <unicode hex="0034"/>
  <outline>
    <contour>
      <point x="834.0" y="356.6" type="line"/>
      <point x="119.2" y="356.6" type="line"/>
      <point x="94.4" y="497.8" type="line"/>
      <point x="811.0" y="1457.4" type="line"/>
      <point x="1003.0" y="1457.4" type="line"/>
      <point x="1003.0" y="510.8" type="line"/>
      <point x="1220.4" y="508.8" type="line"/>
      <point x="1218.2" y="356.6" type="line"/>
      <point x="1003.0" y="356.6" type="line"/>
      <point x="1003.0" y="0.0" type="line"/>
      <point x="837.0" y="0.0" type="line"/>
    </contour>
    <contour>
      <point x="834.0" y="508.8" type="line"/>
      <point x="834.0" y="1261.2" type="line"/>
      <point x="842.6" y="1257.0" type="line"/>
      <point x="274.2" y="496.6" type="line"/>
      <point x="270.4" y="504.2" type="line"/>
    </contour>
  </outline>
</glyph>
<glyph name="five" format="2">
  <advance width="1283.2"/>
  <unicode hex="0035"/>
  <outline>
    <contour>
      <point x="631.0" y="-22.8" type="qcurve"/>
      <point x="471.8" y="-24.8"/>
      <point x="343.4" y="37.4" type="qcurve"/>
      <point x="219.2" y="97.6"/>
      <point x="120.4" y="206.0" type="qcurve"/>
      <point x="231.8" y="327.6" type="line"/>
      <point x="418.8" y="124.6"/>
      <point x="636.8" y="126.4" type="qcurve"/>
      <point x="736.4" y="129.4"/>
      <point x="813.4" y="168.0" type="qcurve"/>
      <point x="891.8" y="210.0"/>
      <point x="933.0" y="283.6" type="qcurve"/>
      <point x="976.4" y="358.6"/>
      <point x="974.4" y="447.0" type="qcurve"/>
      <point x="976.4" y="582.2"/>
      <point x="878.6" y="668.6" type="qcurve"/>
      <point x="788.4" y="754.8"/>
      <point x="633.0" y="751.8" type="qcurve"/>
      <point x="470.0" y="754.8"/>
      <point x="315.8" y="642.8" type="qcurve"/>
      <point x="190.4" y="700.2" type="line"/>
      <point x="220.8" y="1457.4" type="line"/>
      <point x="1076.2" y="1457.4" type="line"/>
      <point x="1076.2" y="1296.2" type="line"/>
      <point x="385.2" y="1296.2" type="line"/>
      <point x="363.6" y="809.0" type="line"/>
      <point x="414.2" y="842.8"/>
      <point x="498.4" y="872.8" type="qcurve"/>
      <point x="583.0" y="904.0"/>
      <point x="667.4" y="904.0" type="qcurve"/>
      <point x="802.2" y="907.0"/>
      <point x="907.0" y="850.8" type="qcurve"/>
      <point x="1018.0" y="799.2"/>
      <point x="1080.6" y="695.2" type="qcurve"/>
      <point x="1150.2" y="593.2"/>
      <point x="1147.2" y="451.0" type="qcurve"/>
      <point x="1150.2" y="312.0"/>
      <point x="1080.8" y="203.2" type="qcurve"/>
      <point x="1018.2" y="96.2"/>
      <point x="897.2" y="33.8" type="qcurve"/>
      <point x="782.2" y="-23.8"/>
    </contour>
  </outline>
</glyph>
<glyph name="six" format="2">
  <advance width="1300.8"/>
  <unicode hex="0036"/>
  <outline>
    <contour>
      <point x="700.0" y="917.8" type="qcurve"/>
      <point x="787.4" y="918.8"/>
      <point x="873.0" y="892.8" type="qcurve"/>
      <point x="960.6" y="867.6"/>
      <point x="1028.4" y="810.8" type="qcurve"/>
      <point x="1098.0" y="754.4"/>
      <point x="1141.4" y="668.8" type="qcurve"/>
      <point x="1186.8" y="582.8"/>
      <point x="1185.8" y="459.2" type="qcurve"/>
      <point x="1186.8" y="401.4"/>
      <point x="1163.6" y="318.2" type="qcurve"/>
      <point x="1141.4" y="234.2"/>
      <point x="1084.2" y="158.8" type="qcurve"/>
      <point x="1027.6" y="84.0"/>
      <point x="928.0" y="30.8" type="qcurve"/>
      <point x="828.0" y="-21.8"/>
      <point x="673.6" y="-22.8" type="qcurve"/>
      <point x="581.2" y="-21.8"/>
      <point x="483.2" y="6.4" type="qcurve"/>
      <point x="384.0" y="36.6"/>
      <point x="302.4" y="116.2" type="qcurve"/>
      <point x="221.6" y="198.0"/>
      <point x="169.6" y="339.2" type="qcurve"/>
      <point x="118.8" y="483.0"/>
      <point x="117.8" y="708.0" type="qcurve"/>
      <point x="117.8" y="875.4"/>
      <point x="165.8" y="1016.2" type="qcurve"/>
      <point x="213.8" y="1158.0"/>
      <point x="294.8" y="1260.2" type="qcurve"/>
      <point x="376.0" y="1364.4"/>
      <point x="482.4" y="1420.6" type="qcurve"/>
      <point x="590.0" y="1479.0"/>
      <point x="708.0" y="1479.0" type="qcurve"/>
      <point x="864.8" y="1480.0"/>
      <point x="971.8" y="1414.6" type="qcurve"/>
      <point x="1078.4" y="1350.8"/>
      <point x="1129.6" y="1300.8" type="qcurve"/>
      <point x="1033.6" y="1165.8" type="line"/>
      <point x="987.8" y="1209.4"/>
      <point x="900.4" y="1268.4" type="qcurve"/>
      <point x="815.8" y="1327.8"/>
      <point x="700.2" y="1326.8" type="qcurve"/>
      <point x="598.6" y="1327.8"/>
      <point x="521.2" y="1267.6" type="qcurve"/>
      <point x="443.8" y="1207.4"/>
      <point x="391.4" y="1113.4" type="qcurve"/>
      <point x="339.6" y="1019.8"/>
      <point x="314.2" y="906.4" type="qcurve"/>
      <point x="288.8" y="794.8"/>
      <point x="288.8" y="725.8" type="qcurve"/>
      <point x="308.8" y="758.8"/>
      <point x="415.0" y="837.0" type="qcurve"/>
      <point x="524.2" y="916.0"/>
    </contour>
    <contour>
      <point x="667.6" y="122.6" type="qcurve"/>
      <point x="762.0" y="122.6"/>
      <point x="827.8" y="160.0" type="qcurve"/>
      <point x="894.4" y="198.4"/>
      <point x="935.8" y="252.2" type="qcurve"/>
      <point x="977.2" y="307.2"/>
      <point x="996.6" y="365.2" type="qcurve"/>
      <point x="1016.8" y="424.8"/>
      <point x="1016.8" y="459.0" type="qcurve"/>
      <point x="1016.8" y="547.0"/>
      <point x="979.8" y="605.2" type="qcurve"/>
      <point x="943.2" y="665.6"/>
      <point x="889.8" y="700.0" type="qcurve"/>
      <point x="835.6" y="735.8"/>
      <point x="775.8" y="752.2" type="qcurve"/>
      <point x="715.6" y="769.6"/>
      <point x="667.6" y="769.6" type="qcurve"/>
      <point x="544.2" y="770.6"/>
      <point x="440.8" y="698.2" type="qcurve"/>
      <point x="339.0" y="628.2"/>
      <point x="308.8" y="503.2" type="qcurve"/>
      <point x="333.6" y="384.2"/>
      <point x="377.2" y="307.6" type="qcurve"/>
      <point x="421.8" y="233.2"/>
      <point x="474.6" y="190.8" type="qcurve"/>
      <point x="529.6" y="150.2"/>
      <point x="580.2" y="136.0" type="qcurve"/>
      <point x="633.2" y="122.6"/>
    </contour>
  </outline>
</glyph>
<glyph name="seven" format="2">
  <advance width="1277.8"/>
  <unicode hex="0037"/>
  <outline>
    <contour>
      <point x="916.6" y="1296.2" type="line"/>
      <point x="135.6" y="1296.2" type="line"/>
      <point x="135.6" y="1457.4" type="line"/>
      <point x="1110.8" y="1457.4" type="line"/>
      <point x="1110.8" y="1303.6" type="line"/>
      <point x="489.6" y="0.0" type="line"/>
      <point x="296.0" y="0.0" type="line"/>
    </contour>
  </outline>
</glyph>
<glyph name="eight" format="2">
  <advance width="1298.8"/>
  <unicode hex="0038"/>
  <outline>
    <contour>
      <point x="653.8" y="-22.8" type="qcurve"/>
      <point x="501.8" y="-24.8"/>
      <point x="380.4" y="25.4" type="qcurve"/>
      <point x="262.4" y="76.8"/>
      <point x="192.8" y="167.8" type="qcurve"/>
      <point x="120.8" y="262.0"/>
      <point x="117.8" y="383.8" type="qcurve"/>
      <point x="117.8" y="519.2"/>
      <point x="211.2" y="613.8" type="qcurve"/>
      <point x="261.8" y="664.0"/>
      <point x="334.0" y="704.4" type="qcurve"/>
      <point x="408.2" y="745.4"/>
      <point x="431.6" y="752.0" type="qcurve"/>
      <point x="414.4" y="759.8"/>
      <point x="346.8" y="797.4" type="qcurve"/>
      <point x="280.2" y="838.0"/>
      <point x="237.8" y="884.4" type="qcurve"/>
      <point x="158.2" y="974.0"/>
      <point x="158.2" y="1091.2" type="qcurve"/>
      <point x="158.2" y="1209.2"/>
      <point x="229.4" y="1297.4" type="qcurve"/>
      <point x="296.2" y="1388.6"/>
      <point x="409.2" y="1432.0" type="qcurve"/>
      <point x="527.4" y="1482.0"/>
      <point x="653.8" y="1479.0" type="qcurve"/>
      <point x="721.8" y="1479.0"/>
      <point x="778.8" y="1468.0" type="qcurve"/>
      <point x="838.2" y="1458.0"/>
      <point x="898.4" y="1431.8" type="qcurve"/>
      <point x="1011.6" y="1386.4"/>
      <point x="1080.2" y="1297.8" type="qcurve"/>
      <point x="1153.2" y="1208.2"/>
      <point x="1153.2" y="1089.2" type="qcurve"/>
      <point x="1153.2" y="966.0"/>
      <point x="1071.6" y="880.4" type="qcurve"/>
      <point x="1029.2" y="835.0"/>
      <point x="964.0" y="794.6" type="qcurve"/>
      <point x="900.0" y="755.6"/>
      <point x="882.2" y="749.4" type="qcurve"/>
      <point x="902.6" y="743.2"/>
      <point x="973.6" y="702.2" type="qcurve"/>
      <point x="1045.8" y="662.2"/>
      <point x="1096.0" y="611.8" type="qcurve"/>
      <point x="1188.8" y="515.0"/>
      <point x="1185.8" y="383.8" type="qcurve"/>
      <point x="1186.8" y="264.0"/>
      <point x="1116.8" y="169.8" type="qcurve"/>
      <point x="1049.0" y="78.8"/>
      <point x="928.0" y="25.4" type="qcurve"/>
      <point x="805.8" y="-24.8"/>
    </contour>
    <contour>
      <point x="653.8" y="821.0" type="qcurve"/>
      <point x="728.6" y="825.0"/>
      <point x="804.4" y="856.8" type="qcurve"/>
      <point x="881.2" y="888.6"/>
      <point x="930.2" y="945.4" type="qcurve"/>
      <point x="978.2" y="1000.8"/>
      <point x="976.4" y="1076.4" type="qcurve"/>
      <point x="976.4" y="1148.6"/>
      <point x="937.6" y="1203.4" type="qcurve"/>
      <point x="896.8" y="1262.4"/>
      <point x="818.2" y="1291.0" type="qcurve"/>
      <point x="742.6" y="1326.0"/>
      <point x="653.6" y="1326.8" type="qcurve"/>
      <point x="516.6" y="1325.8"/>
      <point x="424.4" y="1253.8" type="qcurve"/>
      <point x="333.2" y="1184.4"/>
      <point x="335.2" y="1076.2" type="qcurve"/>
      <point x="331.4" y="996.8"/>
      <point x="379.2" y="943.4" type="qcurve"/>
      <point x="428.2" y="885.8"/>
      <point x="505.2" y="857.0" type="qcurve"/>
      <point x="582.8" y="824.8"/>
    </contour>
    <contour>
      <point x="654.0" y="130.4" type="qcurve"/>
      <point x="752.8" y="133.4"/>
      <point x="834.2" y="164.4" type="qcurve"/>
      <point x="918.6" y="196.2"/>
      <point x="968.4" y="256.4" type="qcurve"/>
      <point x="1016.6" y="318.6"/>
      <point x="1012.8" y="394.8" type="qcurve"/>
      <point x="1013.8" y="436.4"/>
      <point x="1001.6" y="467.6" type="qcurve"/>
      <point x="989.4" y="501.4"/>
      <point x="960.8" y="534.0" type="qcurve"/>
      <point x="906.0" y="600.2"/>
      <point x="816.2" y="633.0" type="qcurve"/>
      <point x="734.4" y="671.0"/>
      <point x="653.8" y="672.8" type="qcurve"/>
      <point x="576.8" y="672.8"/>
      <point x="491.4" y="634.8" type="qcurve"/>
      <point x="404.4" y="602.2"/>
      <point x="346.6" y="533.8" type="qcurve"/>
      <point x="318.2" y="502.2"/>
      <point x="306.0" y="468.6" type="qcurve"/>
      <point x="294.6" y="436.4"/>
      <point x="294.6" y="394.6" type="qcurve"/>
      <point x="291.8" y="320.6"/>
      <point x="339.2" y="258.0" type="qcurve"/>
      <point x="387.8" y="197.0"/>
      <point x="470.2" y="164.2" type="qcurve"/>
      <point x="557.8" y="133.4"/>
    </contour>
  </outline>
</glyph>
<glyph name="nine" format="2">
  <advance width="1300.8"/>
  <unicode hex="0039"/>
  <outline>
    <contour>
      <point x="603.6" y="538.4" type="qcurve"/>
      <point x="516.0" y="538.4"/>
      <point x="429.8" y="564.6" type="qcurve"/>
      <point x="344.0" y="591.8"/>
      <point x="275.4" y="646.2" type="qcurve"/>
      <point x="207.8" y="702.8"/>
      <point x="162.4" y="787.4" type="qcurve"/>
      <point x="117.8" y="874.6"/>
      <point x="117.8" y="997.4" type="qcurve"/>
      <point x="117.8" y="1056.0"/>
      <point x="139.8" y="1139.2" type="qcurve"/>
      <point x="163.2" y="1222.8"/>
      <point x="219.4" y="1298.4" type="qcurve"/>
      <point x="277.0" y="1374.2"/>
      <point x="375.8" y="1426.6" type="qcurve"/>
      <point x="475.6" y="1479.0"/>
      <point x="629.0" y="1479.0" type="qcurve"/>
      <point x="721.2" y="1480.0"/>
      <point x="819.4" y="1451.0" type="qcurve"/>
      <point x="919.6" y="1422.6"/>
      <point x="1000.4" y="1340.8" type="qcurve"/>
      <point x="1080.8" y="1261.6"/>
      <point x="1132.8" y="1118.2" type="qcurve"/>
      <point x="1186.8" y="975.4"/>
      <point x="1185.8" y="748.4" type="qcurve"/>
      <point x="1186.8" y="580.8"/>
      <point x="1137.8" y="440.2" type="qcurve"/>
      <point x="1088.8" y="299.4"/>
      <point x="1007.8" y="196.2" type="qcurve"/>
      <point x="927.8" y="94.0"/>
      <point x="820.4" y="35.8" type="qcurve"/>
      <point x="713.6" y="-21.8"/>
      <point x="594.4" y="-22.8" type="qcurve"/>
      <point x="439.6" y="-21.8"/>
      <point x="331.0" y="42.8" type="qcurve"/>
      <point x="225.2" y="108.6"/>
      <point x="172.8" y="156.2" type="qcurve"/>
      <point x="269.0" y="291.2" type="line"/>
      <point x="313.8" y="250.0"/>
      <point x="402.2" y="189.0" type="qcurve"/>
      <point x="488.8" y="131.4"/>
      <point x="603.4" y="130.4" type="qcurve"/>
      <point x="704.8" y="129.4"/>
      <point x="781.4" y="189.6" type="qcurve"/>
      <point x="859.8" y="250.8"/>
      <point x="911.2" y="344.0" type="qcurve"/>
      <point x="965.0" y="437.6"/>
      <point x="989.4" y="550.0" type="qcurve"/>
      <point x="1015.8" y="662.4"/>
      <point x="1015.2" y="730.0" type="qcurve"/>
      <point x="997.0" y="697.4"/>
      <point x="888.4" y="619.2" type="qcurve"/>
      <point x="781.2" y="541.6"/>
    </contour>
    <contour>
      <point x="635.0" y="1334.8" type="qcurve"/>
      <point x="541.6" y="1334.8"/>
      <point x="475.6" y="1296.6" type="qcurve"/>
      <point x="409.2" y="1258.8"/>
      <point x="367.8" y="1204.2" type="qcurve"/>
      <point x="326.4" y="1150.0"/>
      <point x="306.0" y="1091.2" type="qcurve"/>
      <point x="285.8" y="1033.2"/>
      <point x="285.8" y="997.4" type="qcurve"/>
      <point x="285.8" y="910.2"/>
      <point x="322.8" y="851.4" type="qcurve"/>
      <point x="360.4" y="792.6"/>
      <point x="412.8" y="756.2" type="qcurve"/>
      <point x="467.0" y="721.6"/>
      <point x="527.0" y="704.0" type="qcurve"/>
      <point x="587.8" y="686.6"/>
      <point x="635.0" y="686.6" type="qcurve"/>
      <point x="759.4" y="686.6"/>
      <point x="862.8" y="758.2" type="qcurve"/>
      <point x="965.4" y="830.2"/>
      <point x="994.0" y="953.2" type="qcurve"/>
      <point x="971.0" y="1073.0"/>
      <point x="926.2" y="1148.8" type="qcurve"/>
      <point x="883.6" y="1224.2"/>
      <point x="829.0" y="1265.6" type="qcurve"/>
      <point x="776.0" y="1307.0"/>
      <point x="723.4" y="1320.4" type="qcurve"/>
      <point x="671.4" y="1334.8"/>
    </contour>
  </outline>
</glyph>
<glyph name="semicolon" format="2">
  <advance width="526.4"/>
  <unicode hex="003B"/>
  <outline>
    <contour>
      <point x="149.0" y="-192.6" type="line"/>
      <point x="231.2" y="-97.8"/>
      <point x="251.4" y="-22.4" type="qcurve"/>
      <point x="218.4" y="-21.8"/>
      <point x="181.8" y="10.8" type="qcurve"/>
      <point x="149.4" y="47.4"/>
      <point x="149.4" y="92.4" type="qcurve"/>
      <point x="149.4" y="138.0"/>
      <point x="182.0" y="168.6" type="qcurve"/>
      <point x="216.2" y="200.6"/>
      <point x="263.4" y="200.6" type="qcurve"/>
      <point x="321.8" y="200.6"/>
      <point x="354.0" y="154.4" type="qcurve"/>
      <point x="388.4" y="110.4"/>
      <point x="388.4" y="40.0" type="qcurve"/>
      <point x="389.4" y="-17.4"/>
      <point x="357.0" y="-81.8" type="qcurve"/>
      <point x="327.0" y="-142.0"/>
      <point x="234.6" y="-256.4" type="qcurve"/>
    </contour>
    <contour>
      <point x="263.4" y="767.6" type="qcurve"/>
      <point x="216.2" y="768.6"/>
      <point x="181.8" y="801.2" type="qcurve"/>
      <point x="149.4" y="833.6"/>
      <point x="149.4" y="880.8" type="qcurve"/>
      <point x="149.4" y="924.0"/>
      <point x="181.6" y="959.6" type="qcurve"/>
      <point x="216.2" y="993.0"/>
      <point x="263.4" y="993.0" type="qcurve"/>
      <point x="309.0" y="993.0"/>
      <point x="341.4" y="959.6" type="qcurve"/>
      <point x="375.8" y="924.0"/>
      <point x="374.6" y="880.8" type="qcurve"/>
      <point x="375.6" y="833.6"/>
      <point x="343.2" y="801.2" type="qcurve"/>
      <point x="311.0" y="768.8"/>
    </contour>
  </outline>
</glyph>
<glyph name="less" format="2">
  <advance width="1139.2"/>
  <unicode hex="003C"/>
  <outline>
    <contour>
      <point x="106.8" y="601.4" type="line"/>
      <point x="106.8" y="726.6" type="line"/>
      <point x="994.2" y="1164.8" type="line"/>
      <point x="994.2" y="1012.4" type="line"/>
      <point x="281.0" y="665.4" type="line"/>
      <point x="994.2" y="316.6" type="line"/>
      <point x="994.2" y="162.2" type="line"/>
    </contour>
  </outline>
</glyph>
<glyph name="equal" format="2">
  <advance width="1153.8"/>
  <unicode hex="003D"/>
  <outline>
    <contour>
      <point x="131.6" y="934.6" type="line"/>
      <point x="1025.8" y="934.6" type="line"/>
      <point x="1025.8" y="775.6" type="line"/>
      <point x="131.6" y="775.6" type="line"/>
    </contour>
    <contour>
      <point x="131.6" y="514.8" type="line"/>
      <point x="1025.8" y="514.8" type="line"/>
      <point x="1025.8" y="356.6" type="line"/>
      <point x="131.6" y="356.6" type="line"/>
    </contour>
  </outline>
</glyph>
<glyph name="greater" format="2">
  <advance width="1138.6"/>
  <unicode hex="003E"/>
  <outline>
    <contour>
      <point x="147.4" y="316.6" type="line"/>
      <point x="859.6" y="665.4" type="line"/>
      <point x="147.4" y="1012.4" type="line"/>
      <point x="147.4" y="1164.6" type="line"/>
      <point x="1034.6" y="726.6" type="line"/>
      <point x="1034.6" y="601.4" type="line"/>
      <point x="147.4" y="162.2" type="line"/>
    </contour>
  </outline>
</glyph>
<glyph name="question" format="2">
  <advance width="1094.0"/>
  <unicode hex="003F"/>
  <outline>
    <contour>
      <point x="415.2" y="790.4" type="line"/>
      <point x="601.2" y="790.4"/>
      <point x="721.2" y="881.4" type="qcurve"/>
      <point x="842.0" y="973.4"/>
      <point x="841.0" y="1087.4" type="qcurve"/>
      <point x="842.0" y="1200.4"/>
      <point x="760.6" y="1265.8" type="qcurve"/>
      <point x="678.0" y="1332.8"/>
      <point x="542.2" y="1332.8" type="qcurve"/>
      <point x="471.6" y="1333.8"/>
      <point x="413.2" y="1309.8" type="qcurve"/>
      <point x="355.0" y="1286.6"/>
      <point x="306.4" y="1254.2" type="qcurve"/>
      <point x="259.4" y="1223.0"/>
      <point x="222.4" y="1189.0" type="qcurve"/>
      <point x="186.2" y="1155.0"/>
      <point x="162.4" y="1125.6" type="qcurve"/>
      <point x="55.2" y="1231.8" type="line"/>
      <point x="260.0" y="1489.0"/>
      <point x="552.0" y="1489.0" type="qcurve"/>
      <point x="688.6" y="1489.0"/>
      <point x="791.2" y="1437.6" type="qcurve"/>
      <point x="895.4" y="1386.0"/>
      <point x="953.4" y="1292.8" type="qcurve"/>
      <point x="1011.2" y="1199.4"/>
      <point x="1009.0" y="1087.4" type="qcurve"/>
      <point x="1012.0" y="995.0"/>
      <point x="957.2" y="903.6" type="qcurve"/>
      <point x="904.8" y="816.8"/>
      <point x="800.2" y="750.4" type="qcurve"/>
      <point x="703.8" y="687.2"/>
      <point x="582.2" y="661.6" type="qcurve"/>
      <point x="582.2" y="385.4" type="line"/>
      <point x="415.2" y="385.4" type="line"/>
    </contour>
    <contour>
      <point x="499.6" y="0.0" type="qcurve"/>
      <point x="452.2" y="0.0"/>
      <point x="419.8" y="33.4" type="qcurve"/>
      <point x="387.6" y="67.8"/>
      <point x="386.4" y="113.2" type="qcurve"/>
      <point x="387.6" y="155.6"/>
      <point x="419.8" y="187.8" type="qcurve"/>
      <point x="452.2" y="222.4"/>
      <point x="499.6" y="221.4" type="qcurve"/>
      <point x="545.2" y="222.6"/>
      <point x="575.8" y="187.8" type="qcurve"/>
      <point x="607.8" y="155.4"/>
      <point x="607.8" y="113.4" type="qcurve"/>
      <point x="610.0" y="68.0"/>
      <point x="577.6" y="33.6" type="qcurve"/>
      <point x="545.0" y="0.0"/>
    </contour>
  </outline>
</glyph>
<glyph name="at" format="2">
  <advance width="1699.2"/>
  <unicode hex="0040"/>
  <outline>
    <contour>
      <point x="1100.8" y="193.4" type="qcurve"/>
      <point x="1056.2" y="235.8"/>
      <point x="1042.0" y="299.6" type="qcurve"/>
      <point x="996.8" y="240.2"/>
      <point x="915.2" y="195.8" type="qcurve"/>
      <point x="832.0" y="150.2"/>
      <point x="736.8" y="148.2" type="qcurve"/>
      <point x="594.2" y="150.2"/>
      <point x="502.8" y="243.8" type="qcurve"/>
      <point x="411.2" y="338.6"/>
      <point x="411.2" y="487.6" type="qcurve"/>
      <point x="411.2" y="620.6"/>
      <point x="477.8" y="729.6" type="qcurve"/>
      <point x="544.0" y="842.0"/>
      <point x="646.8" y="906.4" type="qcurve"/>
      <point x="752.8" y="976.4"/>
      <point x="866.2" y="973.2" type="qcurve"/>
      <point x="963.8" y="975.2"/>
      <point x="1031.6" y="928.2" type="qcurve"/>
      <point x="1103.0" y="885.4"/>
      <point x="1121.6" y="841.4" type="qcurve"/>
      <point x="1142.2" y="945.4" type="line"/>
      <point x="1288.4" y="934.0" type="line"/>
      <point x="1256.0" y="765.4"/>
      <point x="1256.0" y="762.4" type="qcurve"/>
      <point x="1187.8" y="417.4"/>
      <point x="1187.8" y="374.0" type="qcurve"/>
      <point x="1187.8" y="320.8"/>
      <point x="1220.0" y="292.2" type="qcurve"/>
      <point x="1254.8" y="265.6"/>
      <point x="1293.2" y="272.6" type="qcurve"/>
      <point x="1347.8" y="283.0"/>
      <point x="1396.2" y="315.6" type="qcurve"/>
      <point x="1444.2" y="349.4"/>
      <point x="1470.0" y="420.0" type="qcurve"/>
      <point x="1505.0" y="498.4"/>
      <point x="1505.0" y="617.0" type="qcurve"/>
      <point x="1507.8" y="768.6"/>
      <point x="1422.4" y="899.6" type="qcurve"/>
      <point x="1338.6" y="1035.8"/>
      <point x="1198.6" y="1113.6" type="qcurve"/>
      <point x="1058.4" y="1193.6"/>
      <point x="888.8" y="1192.6" type="qcurve"/>
      <point x="709.6" y="1195.4"/>
      <point x="550.0" y="1100.0" type="qcurve"/>
      <point x="396.0" y="1008.2"/>
      <point x="298.2" y="847.2" type="qcurve"/>
      <point x="206.8" y="690.4"/>
      <point x="203.8" y="503.4" type="qcurve"/>
      <point x="206.8" y="344.0"/>
      <point x="290.4" y="201.0" type="qcurve"/>
      <point x="375.0" y="64.6"/>
      <point x="518.4" y="-26.0" type="qcurve"/>
      <point x="664.2" y="-109.6"/>
      <point x="829.6" y="-110.6" type="qcurve"/>
      <point x="944.8" y="-110.6"/>
      <point x="1029.6" y="-85.4" type="qcurve"/>
      <point x="1124.2" y="-57.0"/>
      <point x="1252.8" y="18.200000000000003" type="qcurve"/>
      <point x="1321.6" y="-92.4" type="line"/>
      <point x="1179.4" y="-183.0"/>
      <point x="1071.4" y="-214.0" type="qcurve"/>
      <point x="960.4" y="-244.0"/>
      <point x="825.8" y="-246.0" type="qcurve"/>
      <point x="619.6" y="-246.0"/>
      <point x="445.6" y="-144.0" type="qcurve"/>
      <point x="273.6" y="-44.0"/>
      <point x="165.6" y="126.0" type="qcurve"/>
      <point x="63.4" y="301.4"/>
      <point x="64.4" y="501.4" type="qcurve"/>
      <point x="65.4" y="723.2"/>
      <point x="176.4" y="914.2" type="qcurve"/>
      <point x="289.4" y="1105.0"/>
      <point x="478.2" y="1216.0" type="qcurve"/>
      <point x="670.8" y="1331.8"/>
      <point x="892.6" y="1329.8" type="qcurve"/>
      <point x="1091.0" y="1332.8"/>
      <point x="1265.0" y="1234.8" type="qcurve"/>
      <point x="1439.0" y="1137.0"/>
      <point x="1540.2" y="971.8" type="qcurve"/>
      <point x="1645.2" y="811.4"/>
      <point x="1644.2" y="617.0" type="qcurve"/>
      <point x="1644.2" y="463.8"/>
      <point x="1590.0" y="351.0" type="qcurve"/>
      <point x="1538.4" y="240.2"/>
      <point x="1450.4" y="181.4" type="qcurve"/>
      <point x="1366.0" y="123.6"/>
      <point x="1265.2" y="123.6" type="qcurve"/>
      <point x="1171.4" y="126.6"/>
    </contour>
    <contour>
      <point x="771.2" y="279.6" type="qcurve"/>
      <point x="898.4" y="281.6"/>
      <point x="978.8" y="370.4" type="qcurve"/>
      <point x="1059.6" y="462.0"/>
      <point x="1073.2" y="604.8" type="qcurve"/>
      <point x="1077.2" y="619.0"/>
      <point x="1075.2" y="645.4" type="qcurve"/>
      <point x="1078.0" y="739.8"/>
      <point x="1027.4" y="790.4" type="qcurve"/>
      <point x="978.6" y="843.6"/>
      <point x="880.0" y="842.8" type="qcurve"/>
      <point x="799.8" y="842.8"/>
      <point x="728.0" y="794.0" type="qcurve"/>
      <point x="656.0" y="747.8"/>
      <point x="613.6" y="667.0" type="qcurve"/>
      <point x="570.2" y="585.8"/>
      <point x="567.4" y="493.4" type="qcurve"/>
      <point x="568.4" y="399.4"/>
      <point x="622.2" y="339.8" type="qcurve"/>
      <point x="677.6" y="277.6"/>
    </contour>
  </outline>
</glyph>
<glyph name="B" format="2">
  <advance width="1321.4"/>
  <unicode hex="0042"/>
  <outline>
    <contour>
      <point x="182.0" y="1457.4" type="line"/>
      <point x="793.0" y="1457.4" type="line"/>
      <point x="902.2" y="1457.4"/>
      <point x="984.4" y="1410.6" type="qcurve"/>
      <point x="1069.8" y="1364.0"/>
      <point x="1115.6" y="1277.4" type="qcurve"/>
      <point x="1161.2" y="1192.6"/>
      <point x="1161.2" y="1089.4" type="qcurve"/>
      <point x="1164.0" y="983.0"/>
      <point x="1115.4" y="901.4" type="qcurve"/>
      <point x="1067.6" y="828.6"/>
      <point x="984.0" y="773.6" type="qcurve"/>
      <point x="1085.2" y="718.0"/>
      <point x="1149.6" y="622.2" type="qcurve"/>
      <point x="1213.4" y="528.0"/>
      <point x="1213.4" y="404.6" type="qcurve"/>
      <point x="1213.4" y="286.6"/>
      <point x="1162.2" y="195.6" type="qcurve"/>
      <point x="1115.4" y="103.2"/>
      <point x="1022.8" y="51.6" type="qcurve"/>
      <point x="932.8" y="0.0"/>
      <point x="815.8" y="0.0" type="qcurve"/>
      <point x="182.0" y="0.0" type="line"/>
    </contour>
    <contour>
      <point x="351.0" y="1302.2" type="line"/>
      <point x="351.0" y="842.8" type="line"/>
      <point x="754.6" y="842.8" type="line"/>
      <point x="860.2" y="842.8"/>
      <point x="924.8" y="907.2" type="qcurve"/>
      <point x="992.2" y="971.8"/>
      <point x="992.2" y="1070.8" type="qcurve"/>
      <point x="995.0" y="1175.0"/>
      <point x="926.8" y="1237.6" type="qcurve"/>
      <point x="861.2" y="1304.2"/>
      <point x="754.8" y="1302.2" type="qcurve"/>
    </contour>
    <contour>
      <point x="351.0" y="686.6" type="line"/>
      <point x="351.0" y="148.2" type="line"/>
      <point x="777.2" y="148.2" type="line"/>
      <point x="897.8" y="148.2"/>
      <point x="969.0" y="222.4" type="qcurve"/>
      <point x="1045.4" y="301.6"/>
      <point x="1045.4" y="416.6" type="qcurve"/>
      <point x="1048.2" y="537.0"/>
      <point x="971.2" y="610.4" type="qcurve"/>
      <point x="896.8" y="689.6"/>
      <point x="777.2" y="686.6" type="qcurve"/>
    </contour>
  </outline>
</glyph>
<glyph name="D" format="2">
  <advance width="1472.8"/>
  <unicode hex="0044"/>
  <outline>
    <contour>
      <point x="182.0" y="1457.4" type="line"/>
      <point x="635.0" y="1457.4" type="line"/>
      <point x="842.0" y="1457.4"/>
      <point x="1004.2" y="1364.2" type="qcurve"/>
      <point x="1168.4" y="1272.2"/>
      <point x="1261.8" y="1105.6" type="qcurve"/>
      <point x="1351.8" y="940.6"/>
      <point x="1351.8" y="728.6" type="qcurve"/>
      <point x="1351.8" y="521.8"/>
      <point x="1261.8" y="355.6" type="qcurve"/>
      <point x="1171.6" y="190.4"/>
      <point x="1006.2" y="94.2" type="qcurve"/>
      <point x="842.0" y="0.0"/>
      <point x="635.0" y="0.0" type="qcurve"/>
      <point x="182.0" y="0.0" type="line"/>
    </contour>
    <contour>
      <point x="635.0" y="152.2" type="line"/>
      <point x="793.4" y="152.2"/>
      <point x="915.6" y="228.0" type="qcurve"/>
      <point x="1042.0" y="304.6"/>
      <point x="1110.8" y="430.8" type="qcurve"/>
      <point x="1185.8" y="568.0"/>
      <point x="1182.8" y="728.6" type="qcurve"/>
      <point x="1186.8" y="894.2"/>
      <point x="1112.8" y="1025.4" type="qcurve"/>
      <point x="1044.0" y="1156.6"/>
      <point x="917.8" y="1230.4" type="qcurve"/>
      <point x="792.6" y="1304.2"/>
      <point x="635.2" y="1302.2" type="qcurve"/>
      <point x="351.0" y="1302.2" type="line"/>
      <point x="351.0" y="152.2" type="line"/>
    </contour>
  </outline>
</glyph>
<glyph name="E" format="2">
  <advance width="1217.8"/>
  <unicode hex="0045"/>
  <outline>
    <contour>
      <point x="322.4" y="1296.2" type="line"/>
      <point x="322.4" y="821.0" type="line"/>
      <point x="1035.6" y="821.0" type="line"/>
      <point x="1035.6" y="662.0" type="line"/>
      <point x="322.4" y="662.0" type="line"/>
      <point x="322.4" y="158.2" type="line"/>
      <point x="1112.8" y="158.2" type="line"/>
      <point x="1112.8" y="0.0" type="line"/>
      <point x="154.4" y="0.0" type="line"/>
      <point x="154.4" y="1457.4" type="line"/>
      <point x="1112.8" y="1457.4" type="line"/>
      <point x="1112.8" y="1296.2" type="line"/>
    </contour>
  </outline>
</glyph>
<glyph name="F" format="2">
  <advance width="1183.8"/>
  <unicode hex="0046"/>
  <outline>
    <contour>
      <point x="322.4" y="1296.2" type="line"/>
      <point x="322.4" y="885.2" type="line"/>
      <point x="1035.6" y="885.2" type="line"/>
      <point x="1035.6" y="725.2" type="line"/>
      <point x="322.4" y="725.2" type="line"/>
      <point x="322.4" y="0.0" type="line"/>
      <point x="154.4" y="0.0" type="line"/>
      <point x="154.4" y="1457.4" type="line"/>
      <point x="1112.8" y="1457.4" type="line"/>
      <point x="1112.8" y="1296.2" type="line"/>
    </contour>
  </outline>
</glyph>
<glyph name="H" format="2">
  <advance width="1467.2"/>
  <unicode hex="0048"/>
  <outline>
    <contour>
      <point x="1317.2" y="1457.4" type="line"/>
      <point x="1317.2" y="0.0" type="line"/>
      <point x="1150.2" y="0.0" type="line"/>
      <point x="1150.2" y="667.8" type="line"/>
      <point x="320.4" y="667.8" type="line"/>
      <point x="320.4" y="0.0" type="line"/>
      <point x="154.4" y="0.0" type="line"/>
      <point x="154.4" y="1457.4" type="line"/>
      <point x="320.4" y="1457.4" type="line"/>
      <point x="320.4" y="829.0" type="line"/>
      <point x="1150.2" y="829.0" type="line"/>
      <point x="1150.2" y="1457.4" type="line"/>
    </contour>
  </outline>
</glyph>
<glyph name="I" format="2">
  <advance width="474.4"/>
  <unicode hex="0049"/>
  <outline>
    <contour>
      <point x="154.4" y="1457.4" type="line"/>
      <point x="320.4" y="1457.4" type="line"/>
      <point x="320.4" y="0.0" type="line"/>
      <point x="154.4" y="0.0" type="line"/>
    </contour>
  </outline>
</glyph>
<glyph name="J" format="2">
  <advance width="1052.4"/>
  <unicode hex="004A"/>
  <outline>
    <contour>
      <point x="465.0" y="-22.8" type="qcurve"/>
      <point x="347.0" y="-22.8"/>
      <point x="232.4" y="39.6" type="qcurve"/>
      <point x="117.6" y="103.0"/>
      <point x="51.8" y="205.4" type="qcurve"/>
      <point x="174.4" y="324.6" type="line"/>
      <point x="217.4" y="235.4"/>
      <point x="298.0" y="183.2" type="qcurve"/>
      <point x="382.0" y="133.4"/>
      <point x="465.0" y="130.4" type="qcurve"/>
      <point x="576.4" y="133.2"/>
      <point x="648.6" y="216.2" type="qcurve"/>
      <point x="721.4" y="301.2"/>
      <point x="719.4" y="437.0" type="qcurve"/>
      <point x="719.4" y="1457.4" type="line"/>
      <point x="887.4" y="1457.4" type="line"/>
      <point x="887.4" y="437.4" type="line"/>
      <point x="890.4" y="305.6"/>
      <point x="836.0" y="199.8" type="qcurve"/>
      <point x="783.4" y="93.8"/>
      <point x="684.2" y="35.8" type="qcurve"/>
      <point x="589.2" y="-21.8"/>
    </contour>
  </outline>
</glyph>
<glyph name="K" format="2">
  <advance width="1291.2"/>
  <unicode hex="004B"/>
  <outline>
    <contour>
      <point x="178.0" y="1457.4" type="line"/>
      <point x="347.0" y="1457.4" type="line"/>
      <point x="347.0" y="789.8" type="line"/>
      <point x="1016.6" y="1457.4" type="line"/>
      <point x="1237.6" y="1457.4" type="line"/>
      <point x="524.8" y="748.4" type="line"/>
      <point x="1276.2" y="0.0" type="line"/>
      <point x="1054.8" y="0.0" type="line"/>
      <point x="347.0" y="706.2" type="line"/>
      <point x="347.0" y="0.0" type="line"/>
      <point x="178.0" y="0.0" type="line"/>
    </contour>
  </outline>
</glyph>
<glyph name="L" format="2">
  <advance width="1079.8"/>
  <unicode hex="004C"/>
  <outline>
    <contour>
      <point x="1014.8" y="158.2" type="line"/>
      <point x="1014.8" y="0.0" type="line"/>
      <point x="133.6" y="0.0" type="line"/>
      <point x="133.6" y="1457.4" type="line"/>
      <point x="302.6" y="1457.4" type="line"/>
      <point x="302.6" y="158.2" type="line"/>
    </contour>
  </outline>
</glyph>
<glyph name="M" format="2">
  <advance width="1726.4"/>
  <unicode hex="004D"/>
  <outline>
    <contour>
      <point x="182.0" y="1457.4" type="line"/>
      <point x="355.0" y="1457.4" type="line"/>
      <point x="866.2" y="553.2" type="line"/>
      <point x="1373.4" y="1457.4" type="line"/>
      <point x="1546.4" y="1457.4" type="line"/>
      <point x="1546.4" y="0.0" type="line"/>
      <point x="1379.4" y="0.0" type="line"/>
      <point x="1379.4" y="1104.4" type="line"/>
      <point x="866.2" y="206.8" type="line"/>
      <point x="351.0" y="1104.4" type="line"/>
      <point x="351.0" y="0.0" type="line"/>
      <point x="182.0" y="0.0" type="line"/>
    </contour>
  </outline>
</glyph>
<glyph name="N" format="2">
  <advance width="1571.4"/>
  <unicode hex="004E"/>
  <outline>
    <contour>
      <point x="182.0" y="1457.4" type="line"/>
      <point x="346.2" y="1457.4" type="line"/>
      <point x="1223.4" y="282.8" type="line"/>
      <point x="1223.4" y="1457.4" type="line"/>
      <point x="1390.4" y="1457.4" type="line"/>
      <point x="1390.4" y="0.0" type="line"/>
      <point x="1228.0" y="0.0" type="line"/>
      <point x="351.0" y="1176.4" type="line"/>
      <point x="351.0" y="0.0" type="line"/>
      <point x="182.0" y="0.0" type="line"/>
    </contour>
  </outline>
</glyph>
<glyph name="P" format="2">
  <advance width="1249.8"/>
  <unicode hex="0050"/>
  <outline>
    <contour>
      <point x="154.4" y="1457.4" type="line"/>
      <point x="694.2" y="1457.4" type="line"/>
      <point x="834.8" y="1457.4"/>
      <point x="943.2" y="1403.0" type="qcurve"/>
      <point x="1058.6" y="1350.6"/>
      <point x="1119.2" y="1252.4" type="qcurve"/>
      <point x="1188.8" y="1154.6"/>
      <point x="1187.8" y="1030.2" type="qcurve"/>
      <point x="1190.8" y="905.4"/>
      <point x="1121.0" y="808.4" type="qcurve"/>
      <point x="1057.6" y="711.6"/>
      <point x="943.4" y="655.0" type="qcurve"/>
      <point x="834.8" y="600.8"/>
      <point x="694.2" y="599.8" type="qcurve"/>
      <point x="320.4" y="599.8" type="line"/>
      <point x="320.4" y="0.0" type="line"/>
      <point x="154.4" y="0.0" type="line"/>
    </contour>
    <contour>
      <point x="669.6" y="759.8" type="line"/>
      <point x="829.4" y="759.8"/>
      <point x="921.8" y="832.8" type="qcurve"/>
      <point x="1018.8" y="905.2"/>
      <point x="1018.8" y="1030.2" type="qcurve"/>
      <point x="1021.6" y="1154.8"/>
      <point x="923.8" y="1224.8" type="qcurve"/>
      <point x="828.6" y="1298.0"/>
      <point x="669.8" y="1296.2" type="qcurve"/>
      <point x="320.4" y="1296.2" type="line"/>
      <point x="320.4" y="759.8" type="line"/>
    </contour>
  </outline>
</glyph>
<glyph name="Q" format="2">
  <advance width="1687.0"/>
  <unicode hex="0051"/>
  <outline>
    <contour>
      <point x="848.4" y="1479.0" type="qcurve"/>
      <point x="1049.6" y="1481.0"/>
      <point x="1215.8" y="1379.0" type="qcurve"/>
      <point x="1386.0" y="1276.8"/>
      <point x="1487.8" y="1103.8" type="qcurve"/>
      <point x="1592.0" y="934.8"/>
      <point x="1589.0" y="728.6" type="qcurve"/>
      <point x="1591.8" y="527.6"/>
      <point x="1487.8" y="355.2" type="qcurve"/>
      <point x="1451.8" y="296.4"/>
      <point x="1411.8" y="247.4" type="qcurve"/>
      <point x="1558.0" y="117.8" type="line"/>
      <point x="1450.0" y="-5.800000000000001" type="line"/>
      <point x="1291.4" y="130.8" type="line"/>
      <point x="1261.8" y="108.2"/>
      <point x="1217.6" y="82.4" type="qcurve"/>
      <point x="1049.6" y="-19.8"/>
      <point x="848.4" y="-22.8" type="qcurve"/>
      <point x="652.2" y="-21.8"/>
      <point x="481.0" y="80.4" type="qcurve"/>
      <point x="311.0" y="184.2"/>
      <point x="206.0" y="355.2" type="qcurve"/>
      <point x="101.0" y="527.4"/>
      <point x="101.0" y="728.6" type="qcurve"/>
      <point x="101.0" y="932.8"/>
      <point x="206.2" y="1102.0" type="qcurve"/>
      <point x="310.8" y="1274.8"/>
      <point x="479.0" y="1377.0" type="qcurve"/>
      <point x="651.2" y="1482.2"/>
    </contour>
    <contour>
      <point x="848.4" y="1310.0" type="qcurve"/>
      <point x="699.6" y="1312.0"/>
      <point x="562.8" y="1232.4" type="qcurve"/>
      <point x="496.6" y="1191.4"/>
      <point x="445.0" y="1140.0" type="qcurve"/>
      <point x="394.4" y="1090.2"/>
      <point x="351.8" y="1021.4" type="qcurve"/>
      <point x="273.8" y="883.2"/>
      <point x="273.8" y="728.6" type="qcurve"/>
      <point x="271.0" y="579.0"/>
      <point x="349.6" y="442.0" type="qcurve"/>
      <point x="429.6" y="307.8"/>
      <point x="560.8" y="228.0" type="qcurve"/>
      <point x="697.8" y="144.2"/>
      <point x="848.4" y="146.2" type="qcurve"/>
      <point x="997.0" y="144.2"/>
      <point x="1131.2" y="228.0" type="qcurve"/>
      <point x="1154.4" y="240.6"/>
      <point x="1161.8" y="246.8" type="qcurve"/>
      <point x="972.6" y="411.4" type="line"/>
      <point x="1077.6" y="535.6" type="line"/>
      <point x="1283.8" y="356.8" type="line"/>
      <point x="1310.0" y="390.2"/>
      <point x="1342.4" y="442.0" type="qcurve"/>
      <point x="1423.0" y="579.0"/>
      <point x="1420.0" y="728.6" type="qcurve"/>
      <point x="1423.0" y="880.4"/>
      <point x="1342.2" y="1017.6" type="qcurve"/>
      <point x="1267.2" y="1152.6"/>
      <point x="1133.2" y="1230.4" type="qcurve"/>
      <point x="999.0" y="1312.0"/>
    </contour>
  </outline>
</glyph>
<glyph name="T" format="2">
  <advance width="1223.4"/>
  <unicode hex="0054"/>
  <outline>
    <contour>
      <point x="528.8" y="1296.2" type="line"/>
      <point x="91.0" y="1296.2" type="line"/>
      <point x="91.0" y="1457.4" type="line"/>
      <point x="1137.4" y="1457.4" type="line"/>
      <point x="1137.4" y="1296.2" type="line"/>
      <point x="695.8" y="1296.2" type="line"/>
      <point x="695.8" y="0.0" type="line"/>
      <point x="528.8" y="0.0" type="line"/>
    </contour>
  </outline>
</glyph>
<glyph name="V" format="2">
  <advance width="1357.4"/>
  <unicode hex="0056"/>
  <outline>
    <contour>
      <point x="1113.6" y="1457.4" type="line"/>
      <point x="1293.4" y="1457.4" type="line"/>
      <point x="766.0" y="0.0" type="line"/>
      <point x="590.8" y="0.0" type="line"/>
      <point x="62.4" y="1457.4" type="line"/>
      <point x="242.4" y="1457.4" type="line"/>
      <point x="678.4" y="255.4" type="line"/>
    </contour>
  </outline>
</glyph>
<glyph name="W" format="2">
  <advance width="1891.6"/>
  <unicode hex="0057"/>
  <outline>
    <contour>
      <point x="1.4000000000000001" y="1457.4" type="line"/>
      <point x="168.8" y="1457.4" type="line"/>
      <point x="482.4" y="297.8" type="line"/>
      <point x="847.4" y="1457.4" type="line"/>
      <point x="1006.6" y="1457.4" type="line"/>
      <point x="1374.2" y="297.8" type="line"/>
      <point x="1683.0" y="1457.4" type="line"/>
      <point x="1852.6" y="1457.4" type="line"/>
      <point x="1463.2" y="0.0" type="line"/>
      <point x="1298.8" y="0.0" type="line"/>
      <point x="924.4" y="1183.6" type="line"/>
      <point x="553.0" y="0.0" type="line"/>
      <point x="391.8" y="0.0" type="line"/>
    </contour>
  </outline>
</glyph>
<glyph name="X" format="2">
  <advance width="1459.6"/>
  <unicode hex="0058"/>
  <outline>
    <contour>
      <point x="847.2" y="728.6" type="line"/>
      <point x="1382.8" y="0.0" type="line"/>
      <point x="1181.6" y="0.0" type="line"/>
      <point x="734.6" y="584.0" type="line"/>
      <point x="273.0" y="0.0" type="line"/>
      <point x="67.6" y="0.0" type="line"/>
      <point x="625.2" y="726.6" type="line"/>
      <point x="67.6" y="1457.4" type="line"/>
      <point x="271.0" y="1457.4" type="line"/>
      <point x="736.6" y="875.2" type="line"/>
      <point x="1183.6" y="1457.4" type="line"/>
      <point x="1386.6" y="1457.4" type="line"/>
    </contour>
  </outline>
</glyph>
<glyph name="Z" format="2">
  <advance width="1323.4"/>
  <unicode hex="005A"/>
  <outline>
    <contour>
      <point x="113.8" y="130.2" type="line"/>
      <point x="993.6" y="1296.2" type="line"/>
      <point x="129.6" y="1296.2" type="line"/>
      <point x="129.6" y="1457.4" type="line"/>
      <point x="1218.4" y="1457.4" type="line"/>
      <point x="1218.4" y="1314.4" type="line"/>
      <point x="344.8" y="158.2" type="line"/>
      <point x="1218.4" y="158.2" type="line"/>
      <point x="1218.4" y="0.0" type="line"/>
      <point x="113.8" y="0.0" type="line"/>
    </contour>
  </outline>
</glyph>
<glyph name="bracketleft" format="2">
  <advance width="720.4"/>
  <unicode hex="005B"/>
  <outline>
    <contour>
      <point x="158.2" y="1457.4" type="line"/>
      <point x="641.4" y="1457.4" type="line"/>
      <point x="641.4" y="1326.8" type="line"/>
      <point x="304.6" y="1326.8" type="line"/>
      <point x="304.6" y="-203.6" type="line"/>
      <point x="641.4" y="-203.6" type="line"/>
      <point x="641.4" y="-331.0" type="line"/>
      <point x="158.2" y="-331.0" type="line"/>
    </contour>
  </outline>
</glyph>
<glyph name="backslash" format="2">
  <advance width="816.8"/>
  <unicode hex="005C"/>
  <outline>
    <contour>
      <point x="-10.6" y="1434.6" type="line"/>
      <point x="171.8" y="1434.6" type="line"/>
      <point x="849.8" y="-139.4" type="line"/>
      <point x="667.4" y="-139.4" type="line"/>
    </contour>
  </outline>
</glyph>
<glyph name="bracketright" format="2">
  <advance width="721.2"/>
  <unicode hex="005D"/>
  <outline>
    <contour>
      <point x="99.0" y="-203.6" type="line"/>
      <point x="435.8" y="-203.6" type="line"/>
      <point x="435.8" y="1326.8" type="line"/>
      <point x="99.0" y="1326.8" type="line"/>
      <point x="99.0" y="1457.4" type="line"/>
      <point x="580.2" y="1457.4" type="line"/>
      <point x="580.2" y="-331.0" type="line"/>
      <point x="99.0" y="-331.0" type="line"/>
    </contour>
  </outline>
</glyph>
<glyph name="asciicircum" format="2">
  <advance width="964.0"/>
  <unicode hex="005E"/>
  <outline>
    <contour>
      <point x="419.2" y="1327.0" type="line"/>
      <point x="541.6" y="1327.0" type="line"/>
      <point x="860.0" y="787.4" type="line"/>
      <point x="714.6" y="787.4" type="line"/>
      <point x="481.8" y="1196.0" type="line"/>
      <point x="244.2" y="787.4" type="line"/>
      <point x="97.8" y="787.4" type="line"/>
    </contour>
  </outline>
</glyph>
<glyph name="underscore" format="2">
  <advance width="1150.2"/>
  <unicode hex="005F"/>
  <outline>
    <contour>
      <point x="0.20000000000000018" y="-123.4" type="line"/>
      <point x="1155.2" y="-123.4" type="line"/>
      <point x="1155.2" y="-271.6" type="line"/>
      <point x="0.20000000000000018" y="-271.6" type="line"/>
    </contour>
  </outline>
</glyph>
<glyph name="grave" format="2">
  <advance width="656.4"/>
  <unicode hex="0060"/>
  <unicode hex="0300"/>
  <outline>
    <contour>
      <point x="113.2" y="1351.2" type="line"/>
      <point x="288.8" y="1391.2" type="line"/>
      <point x="533.4" y="1097.6" type="line"/>
      <point x="401.2" y="1097.6" type="line"/>
    </contour>
  </outline>
</glyph>
<glyph name="b" format="2">
  <advance width="1238.6"/>
  <unicode hex="0062"/>
  <outline>
    <contour>
      <point x="630.0" y="881.2" type="qcurve"/>
      <point x="538.0" y="879.4"/>
      <point x="465.0" y="831.4" type="qcurve"/>
      <point x="391.2" y="785.6"/>
      <point x="351.0" y="700.0" type="qcurve"/>
      <point x="310.4" y="612.0"/>
      <point x="309.4" y="501.4" type="qcurve"/>
      <point x="310.4" y="388.8"/>
      <point x="351.0" y="305.0" type="qcurve"/>
      <point x="391.4" y="219.4"/>
      <point x="465.2" y="171.4" type="qcurve"/>
      <point x="538.0" y="122.8"/>
      <point x="630.0" y="124.6" type="qcurve"/>
      <point x="722.0" y="122.6"/>
      <point x="794.8" y="171.4" type="qcurve"/>
      <point x="870.6" y="219.4"/>
      <point x="911.0" y="304.8" type="qcurve"/>
      <point x="951.6" y="388.8"/>
      <point x="950.6" y="501.4" type="qcurve"/>
      <point x="951.6" y="612.0"/>
      <point x="911.0" y="698.0" type="qcurve"/>
      <point x="870.6" y="782.6"/>
      <point x="797.8" y="831.4" type="qcurve"/>
      <point x="721.2" y="879.6"/>
    </contour>
    <contour>
      <point x="147.4" y="0.0" type="line"/>
      <point x="147.4" y="1457.4" type="line"/>
      <point x="309.4" y="1457.4" type="line"/>
      <point x="309.4" y="845.0" type="line"/>
      <point x="347.4" y="911.2"/>
      <point x="441.4" y="968.0" type="qcurve"/>
      <point x="537.4" y="1025.6"/>
      <point x="656.6" y="1025.6" type="qcurve"/>
      <point x="787.0" y="1028.6"/>
      <point x="893.0" y="958.8" type="qcurve"/>
      <point x="997.8" y="892.4"/>
      <point x="1060.2" y="771.4" type="qcurve"/>
      <point x="1120.6" y="648.0"/>
      <point x="1121.6" y="501.4" type="qcurve"/>
      <point x="1120.6" y="351.0"/>
      <point x="1060.4" y="232.4" type="qcurve"/>
      <point x="997.8" y="111.6"/>
      <point x="895.0" y="44.0" type="qcurve"/>
      <point x="788.0" y="-24.8"/>
      <point x="656.8" y="-24.8" type="qcurve"/>
      <point x="539.4" y="-25.6"/>
      <point x="444.4" y="31.0" type="qcurve"/>
      <point x="349.4" y="88.6"/>
      <point x="309.4" y="158.6" type="qcurve"/>
      <point x="309.4" y="0.0" type="line"/>
    </contour>
  </outline>
</glyph>
<glyph name="c" format="2">
  <advance width="1059.2"/>
  <unicode hex="0063"/>
  <outline>
    <contour>
      <point x="615.0" y="-22.8" type="qcurve"/>
      <point x="478.2" y="-19.8"/>
      <point x="357.4" y="49.8" type="qcurve"/>
      <point x="239.8" y="121.0"/>
      <point x="167.4" y="241.6" type="qcurve"/>
      <point x="97.0" y="364.6"/>
      <point x="97.0" y="501.4" type="qcurve"/>
      <point x="97.0" y="644.2"/>
      <point x="165.6" y="763.0" type="qcurve"/>
      <point x="238.0" y="887.8"/>
      <point x="357.4" y="955.2" type="qcurve"/>
      <point x="478.2" y="1027.6"/>
      <point x="615.2" y="1027.6" type="qcurve"/>
      <point x="716.8" y="1027.6"/>
      <point x="807.6" y="988.2" type="qcurve"/>
      <point x="902.0" y="949.0"/>
      <point x="979.4" y="871.8" type="qcurve"/>
      <point x="867.6" y="761.2" type="line"/>
      <point x="815.0" y="822.6"/>
      <point x="748.8" y="851.4" type="qcurve"/>
      <point x="688.2" y="879.4"/>
      <point x="615.0" y="879.4" type="qcurve"/>
      <point x="522.0" y="881.2"/>
      <point x="441.4" y="829.4" type="qcurve"/>
      <point x="360.4" y="779.2"/>
      <point x="311.2" y="689.6" type="qcurve"/>
      <point x="266.0" y="603.0"/>
      <point x="266.0" y="501.4" type="qcurve"/>
      <point x="264.0" y="401.0"/>
      <point x="309.2" y="313.2" type="qcurve"/>
      <point x="358.4" y="227.6"/>
      <point x="439.4" y="175.4" type="qcurve"/>
      <point x="523.2" y="125.6"/>
      <point x="615.4" y="122.6" type="qcurve"/>
      <point x="689.2" y="122.6"/>
      <point x="750.6" y="151.2" type="qcurve"/>
      <point x="815.8" y="183.0"/>
      <point x="871.6" y="248.4" type="qcurve"/>
      <point x="985.2" y="136.8" type="line"/>
      <point x="908.2" y="60.8"/>
      <point x="813.6" y="18.6" type="qcurve"/>
      <point x="721.0" y="-21.8"/>
    </contour>
  </outline>
</glyph>
<glyph name="f" format="2">
  <advance width="748.0"/>
  <unicode hex="0066"/>
  <outline>
    <contour>
      <point x="228.4" y="1002.8" type="line"/>
      <point x="228.4" y="1165.4" type="line"/>
      <point x="227.4" y="1248.4"/>
      <point x="260.0" y="1315.8" type="qcurve"/>
      <point x="292.8" y="1385.0"/>
      <point x="352.0" y="1427.0" type="qcurve"/>
      <point x="413.0" y="1469.8"/>
      <point x="495.6" y="1479.0" type="qcurve"/>
      <point x="579.8" y="1489.2"/>
      <point x="689.0" y="1451.0" type="qcurve"/>
      <point x="644.8" y="1293.0" type="line"/>
      <point x="592.0" y="1321.0"/>
      <point x="546.8" y="1321.0" type="qcurve"/>
      <point x="503.8" y="1322.0"/>
      <point x="468.4" y="1302.4" type="qcurve"/>
      <point x="433.2" y="1284.6"/>
      <point x="411.8" y="1248.6" type="qcurve"/>
      <point x="390.4" y="1213.2"/>
      <point x="390.4" y="1165.4" type="qcurve"/>
      <point x="390.4" y="1002.8" type="line"/>
      <point x="635.4" y="1002.8" type="line"/>
      <point x="635.4" y="857.6" type="line"/>
      <point x="390.4" y="857.6" type="line"/>
      <point x="390.4" y="0.0" type="line"/>
      <point x="228.4" y="0.0" type="line"/>
      <point x="228.4" y="857.6" type="line"/>
      <point x="73.2" y="857.6" type="line"/>
      <point x="73.2" y="1002.8" type="line"/>
    </contour>
  </outline>
</glyph>
<glyph name="i" format="2">
  <advance width="453.4"/>
  <unicode hex="0069"/>
  <outline>
    <contour>
      <point x="228.0" y="1164.8" type="qcurve"/>
      <point x="185.6" y="1162.6"/>
      <point x="154.8" y="1195.6" type="qcurve"/>
      <point x="122.6" y="1230.0"/>
      <point x="123.6" y="1267.2" type="qcurve"/>
      <point x="122.6" y="1309.4"/>
      <point x="153.0" y="1340.8" type="qcurve"/>
      <point x="183.6" y="1371.4"/>
      <point x="227.6" y="1371.4" type="qcurve"/>
      <point x="270.0" y="1374.8"/>
      <point x="301.6" y="1342.8" type="qcurve"/>
      <point x="334.6" y="1309.2"/>
      <point x="331.2" y="1267.4" type="qcurve"/>
      <point x="335.8" y="1230.4"/>
      <point x="304.0" y="1195.6" type="qcurve"/>
      <point x="273.4" y="1162.6"/>
    </contour>
    <contour>
      <point x="146.4" y="1002.8" type="line"/>
      <point x="308.4" y="1002.8" type="line"/>
      <point x="308.4" y="0.0" type="line"/>
      <point x="146.4" y="0.0" type="line"/>
    </contour>
  </outline>
</glyph>
<glyph name="k" format="2">
  <advance width="1050.4"/>
  <unicode hex="006B"/>
  <outline>
    <contour>
      <point x="143.4" y="1457.4" type="line"/>
      <point x="308.4" y="1457.4" type="line"/>
      <point x="308.4" y="556.8" type="line"/>
      <point x="752.8" y="1002.8" type="line"/>
      <point x="979.8" y="1002.8" type="line"/>
      <point x="493.0" y="515.2" type="line"/>
      <point x="1010.4" y="0.0" type="line"/>
      <point x="783.2" y="0.0" type="line"/>
      <point x="308.4" y="473.0" type="line"/>
      <point x="308.4" y="0.0" type="line"/>
      <point x="143.4" y="0.0" type="line"/>
    </contour>
  </outline>
</glyph>
<glyph name="l" format="2">
  <advance width="457.4"/>
  <unicode hex="006C"/>
  <outline>
    <contour>
      <point x="147.4" y="1457.4" type="line"/>
      <point x="309.4" y="1457.4" type="line"/>
      <point x="309.4" y="0.0" type="line"/>
      <point x="147.4" y="0.0" type="line"/>
    </contour>
  </outline>
</glyph>
<glyph name="m" format="2">
  <advance width="1728.0"/>
  <unicode hex="006D"/>
  <outline>
    <contour>
      <point x="1223.6" y="1027.6" type="qcurve"/>
      <point x="1327.4" y="1030.6"/>
      <point x="1408.6" y="977.8" type="qcurve"/>
      <point x="1489.8" y="930.8"/>
      <point x="1535.6" y="839.6" type="qcurve"/>
      <point x="1581.0" y="752.6"/>
      <point x="1581.0" y="637.8" type="qcurve"/>
      <point x="1581.0" y="0.0" type="line"/>
      <point x="1421.0" y="0.0" type="line"/>
      <point x="1421.0" y="617.2" type="line"/>
      <point x="1423.8" y="735.0"/>
      <point x="1359.8" y="807.6" type="qcurve"/>
      <point x="1300.4" y="881.2"/>
      <point x="1203.0" y="879.4" type="qcurve"/>
      <point x="1089.0" y="883.0"/>
      <point x="1018.0" y="812.8" type="qcurve"/>
      <point x="946.8" y="744.4"/>
      <point x="945.8" y="637.8" type="qcurve"/>
      <point x="945.8" y="0.0" type="line"/>
      <point x="784.6" y="0.0" type="line"/>
      <point x="784.6" y="617.0" type="line"/>
      <point x="785.6" y="735.0"/>
      <point x="722.6" y="807.6" type="qcurve"/>
      <point x="662.0" y="881.2"/>
      <point x="567.8" y="879.4" type="qcurve"/>
      <point x="454.8" y="883.0"/>
      <point x="381.8" y="812.8" type="qcurve"/>
      <point x="310.4" y="744.4"/>
      <point x="309.4" y="637.8" type="qcurve"/>
      <point x="309.4" y="0.0" type="line"/>
      <point x="147.4" y="0.0" type="line"/>
      <point x="147.4" y="1002.8" type="line"/>
      <point x="309.4" y="1002.8" type="line"/>
      <point x="309.4" y="891.4" type="line"/>
      <point x="331.4" y="937.0"/>
      <point x="409.0" y="979.8" type="qcurve"/>
      <point x="488.0" y="1028.8"/>
      <point x="585.8" y="1027.6" type="qcurve"/>
      <point x="701.2" y="1027.6"/>
      <point x="785.4" y="969.6" type="qcurve"/>
      <point x="871.8" y="911.8"/>
      <point x="903.0" y="834.6" type="qcurve"/>
      <point x="929.6" y="911.8"/>
      <point x="1018.2" y="966.8" type="qcurve"/>
      <point x="1108.4" y="1027.6"/>
    </contour>
  </outline>
</glyph>
<glyph name="n" format="2">
  <advance width="1152.0"/>
  <unicode hex="006E"/>
  <outline>
    <contour>
      <point x="625.8" y="1027.6" type="qcurve"/>
      <point x="736.4" y="1030.6"/>
      <point x="821.2" y="978.0" type="qcurve"/>
      <point x="910.6" y="931.2"/>
      <point x="956.4" y="839.6" type="qcurve"/>
      <point x="1007.0" y="752.8"/>
      <point x="1004.0" y="637.8" type="qcurve"/>
      <point x="1004.0" y="0.0" type="line"/>
      <point x="844.0" y="0.0" type="line"/>
      <point x="844.0" y="617.0" type="line"/>
      <point x="844.0" y="734.8"/>
      <point x="777.0" y="807.4" type="qcurve"/>
      <point x="713.6" y="881.2"/>
      <point x="608.4" y="879.4" type="qcurve"/>
      <point x="530.4" y="879.4"/>
      <point x="460.0" y="847.4" type="qcurve"/>
      <point x="392.2" y="816.2"/>
      <point x="350.2" y="755.8" type="qcurve"/>
      <point x="312.4" y="703.0"/>
      <point x="311.4" y="637.6" type="qcurve"/>
      <point x="311.4" y="0.0" type="line"/>
      <point x="149.4" y="0.0" type="line"/>
      <point x="149.4" y="1002.8" type="line"/>
      <point x="311.4" y="1002.8" type="line"/>
      <point x="311.4" y="873.2" type="line"/>
      <point x="337.6" y="922.2"/>
      <point x="428.8" y="974.0" type="qcurve"/>
      <point x="521.8" y="1028.6"/>
    </contour>
  </outline>
</glyph>
<glyph name="r" format="2">
  <advance width="757.6"/>
  <unicode hex="0072"/>
  <outline>
    <contour>
      <point x="322.4" y="845.6" type="line"/>
      <point x="350.0" y="907.4"/>
      <point x="454.4" y="965.0" type="qcurve"/>
      <point x="558.2" y="1028.6"/>
      <point x="703.6" y="1027.6" type="qcurve"/>
      <point x="703.6" y="879.4" type="line"/>
      <point x="586.6" y="879.4"/>
      <point x="501.6" y="839.8" type="qcurve"/>
      <point x="421.0" y="800.4"/>
      <point x="372.2" y="725.6" type="qcurve"/>
      <point x="323.2" y="652.6"/>
      <point x="322.4" y="560.6" type="qcurve"/>
      <point x="322.4" y="0.0" type="line"/>
      <point x="162.2" y="0.0" type="line"/>
      <point x="162.2" y="1002.8" type="line"/>
      <point x="322.4" y="1002.8" type="line"/>
    </contour>
  </outline>
</glyph>
<glyph name="s" format="2">
  <advance width="995.4"/>
  <unicode hex="0073"/>
  <outline>
    <contour>
      <point x="866.4" y="868.0" type="qcurve"/>
      <point x="751.6" y="751.6" type="line"/>
      <point x="636.8" y="873.6"/>
      <point x="488.8" y="879.4" type="qcurve"/>
      <point x="321.4" y="873.6"/>
      <point x="305.4" y="745.8" type="qcurve"/>
      <point x="305.4" y="669.4"/>
      <point x="362.2" y="643.2" type="qcurve"/>
      <point x="425.2" y="615.0"/>
      <point x="537.8" y="577.6" type="qcurve"/>
      <point x="728.0" y="532.0"/>
      <point x="809.4" y="472.4" type="qcurve"/>
      <point x="893.4" y="412.4"/>
      <point x="893.4" y="280.8" type="qcurve"/>
      <point x="871.0" y="-7.6"/>
      <point x="543.2" y="-22.8" type="qcurve"/>
      <point x="262.4" y="-21.8"/>
      <point x="103.4" y="153.8" type="qcurve"/>
      <point x="219.6" y="272.2" type="line"/>
      <point x="344.8" y="122.6"/>
      <point x="543.2" y="124.6" type="qcurve"/>
      <point x="710.6" y="119.0"/>
      <point x="730.4" y="281.6" type="qcurve"/>
      <point x="730.4" y="386.8"/>
      <point x="494.8" y="430.0" type="qcurve"/>
      <point x="302.6" y="475.0"/>
      <point x="222.8" y="542.6" type="qcurve"/>
      <point x="142.4" y="613.8"/>
      <point x="142.4" y="746.4" type="qcurve"/>
      <point x="142.4" y="861.8"/>
      <point x="249.8" y="944.6" type="qcurve"/>
      <point x="356.2" y="1027.6"/>
      <point x="504.8" y="1027.6" type="qcurve"/>
      <point x="627.6" y="1020.4"/>
      <point x="705.0" y="984.2" type="qcurve"/>
      <point x="784.6" y="950.0"/>
    </contour>
  </outline>
</glyph>
<glyph name="t" format="2">
  <advance width="728.6"/>
  <unicode hex="0074"/>
  <outline>
    <contour>
      <point x="274.8" y="0.0" type="line"/>
      <point x="274.8" y="858.6" type="line"/>
      <point x="75.2" y="858.6" type="line"/>
      <point x="75.2" y="1002.8" type="line"/>
      <point x="274.8" y="1002.8" type="line"/>
      <point x="274.8" y="1270.6" type="line"/>
      <point x="435.0" y="1270.6" type="line"/>
      <point x="435.0" y="1002.8" type="line"/>
      <point x="634.6" y="1002.8" type="line"/>
      <point x="634.6" y="858.6" type="line"/>
      <point x="435.0" y="858.6" type="line"/>
      <point x="435.0" y="0.0" type="line"/>
    </contour>
  </outline>
</glyph>
<glyph name="u" format="2">
  <advance width="1152.0"/>
  <unicode hex="0075"/>
  <outline>
    <contour>
      <point x="522.4" y="-24.8" type="qcurve"/>
      <point x="412.0" y="-25.6"/>
      <point x="327.0" y="25.8" type="qcurve"/>
      <point x="237.8" y="74.6"/>
      <point x="192.2" y="163.0" type="qcurve"/>
      <point x="141.4" y="251.0"/>
      <point x="143.4" y="366.2" type="qcurve"/>
      <point x="143.4" y="1002.8" type="line"/>
      <point x="304.6" y="1002.8" type="line"/>
      <point x="304.6" y="385.8" type="line"/>
      <point x="305.6" y="267.8"/>
      <point x="371.2" y="195.6" type="qcurve"/>
      <point x="434.8" y="123.6"/>
      <point x="540.2" y="124.6" type="qcurve"/>
      <point x="619.0" y="124.6"/>
      <point x="688.6" y="155.4" type="qcurve"/>
      <point x="756.2" y="186.6"/>
      <point x="798.4" y="248.0" type="qcurve"/>
      <point x="838.0" y="301.0"/>
      <point x="837.0" y="365.8" type="qcurve"/>
      <point x="837.0" y="1002.8" type="line"/>
      <point x="999.0" y="1002.8" type="line"/>
      <point x="999.0" y="0.0" type="line"/>
      <point x="837.0" y="0.0" type="line"/>
      <point x="837.0" y="129.4" type="line"/>
      <point x="811.8" y="81.6"/>
      <point x="718.8" y="29.8" type="qcurve"/>
      <point x="628.8" y="-24.8"/>
    </contour>
  </outline>
</glyph>
<glyph name="v" format="2">
  <advance width="1098.2"/>
  <unicode hex="0076"/>
  <outline>
    <contour>
      <point x="51.6" y="1002.8" type="line"/>
      <point x="230.4" y="1002.8" type="line"/>
      <point x="551.8" y="202.8" type="line"/>
      <point x="867.6" y="1002.8" type="line"/>
      <point x="1048.2" y="1002.8" type="line"/>
      <point x="627.4" y="0.0" type="line"/>
      <point x="479.6" y="0.0" type="line"/>
    </contour>
  </outline>
</glyph>
<glyph name="w" format="2">
  <advance width="1614.2"/>
  <unicode hex="0077"/>
  <outline>
    <contour>
      <point x="67.8" y="1002.8" type="line"/>
      <point x="238.8" y="1002.8" type="line"/>
      <point x="480.2" y="230.6" type="line"/>
      <point x="739.8" y="1002.8" type="line"/>
      <point x="878.8" y="1002.8" type="line"/>
      <point x="1139.4" y="230.8" type="line"/>
      <point x="1378.0" y="1002.8" type="line"/>
      <point x="1550.2" y="1002.8" type="line"/>
      <point x="1212.8" y="0.0" type="line"/>
      <point x="1064.0" y="0.0" type="line"/>
      <point x="809.8" y="767.2" type="line"/>
      <point x="550.8" y="0.0" type="line"/>
      <point x="404.0" y="0.0" type="line"/>
    </contour>
  </outline>
</glyph>
<glyph name="x" format="2">
  <advance width="1081.4"/>
  <unicode hex="0078"/>
  <outline>
    <contour>
      <point x="829.8" y="0.0" type="line"/>
      <point x="537.2" y="387.0" type="line"/>
      <point x="246.4" y="0.0" type="line"/>
      <point x="54.8" y="0.0" type="line"/>
      <point x="442.4" y="511.4" type="line"/>
      <point x="70.6" y="1002.8" type="line"/>
      <point x="262.2" y="1002.8" type="line"/>
      <point x="537.2" y="638.6" type="line"/>
      <point x="814.0" y="1002.8" type="line"/>
      <point x="1005.6" y="1002.8" type="line"/>
      <point x="634.0" y="511.4" type="line"/>
      <point x="1019.4" y="0.0" type="line"/>
    </contour>
  </outline>
</glyph>
<glyph name="y" format="2">
  <advance width="1157.8"/>
  <unicode hex="0079"/>
  <outline>
    <contour>
      <point x="346.6" y="-374.4" type="line"/>
      <point x="495.2" y="9.200000000000001" type="line"/>
      <point x="55.4" y="1002.8" type="line"/>
      <point x="234.2" y="1002.8" type="line"/>
      <point x="576.4" y="204.2" type="line"/>
      <point x="892.6" y="1002.8" type="line"/>
      <point x="1068.8" y="1002.8" type="line"/>
      <point x="505.8" y="-374.4" type="line"/>
    </contour>
  </outline>
</glyph>
<glyph name="braceleft" format="2">
  <advance width="774.0"/>
  <unicode hex="007B"/>
  <outline>
    <contour>
      <point x="290.2" y="581.2" type="qcurve"/>
      <point x="347.8" y="560.6"/>
      <point x="382.0" y="506.4" type="qcurve"/>
      <point x="416.2" y="450.8"/>
      <point x="418.2" y="364.0" type="qcurve"/>
      <point x="416.2" y="23.200000000000003" type="line"/>
      <point x="416.2" y="-53.6"/>
      <point x="434.8" y="-92.0" type="qcurve"/>
      <point x="457.0" y="-131.4"/>
      <point x="507.4" y="-153.8" type="qcurve"/>
      <point x="563.4" y="-179.0"/>
      <point x="687.8" y="-194.8" type="qcurve"/>
      <point x="673.8" y="-317.2" type="line"/>
      <point x="518.0" y="-298.2"/>
      <point x="430.8" y="-260.0" type="qcurve"/>
      <point x="342.8" y="-225.2"/>
      <point x="306.6" y="-155.0" type="qcurve"/>
      <point x="273.8" y="-89.4"/>
      <point x="273.8" y="15.4" type="qcurve"/>
      <point x="273.8" y="347.2" type="line"/>
      <point x="273.8" y="440.2"/>
      <point x="232.0" y="481.0" type="qcurve"/>
      <point x="195.4" y="519.6"/>
      <point x="87.2" y="518.8" type="qcurve"/>
      <point x="87.2" y="642.2" type="line"/>
      <point x="195.6" y="643.2"/>
      <point x="232.2" y="680.0" type="qcurve"/>
      <point x="273.8" y="722.6"/>
      <point x="273.8" y="813.6" type="qcurve"/>
      <point x="273.8" y="1145.6" type="line"/>
      <point x="273.8" y="1251.6"/>
      <point x="306.4" y="1316.0" type="qcurve"/>
      <point x="342.6" y="1387.2"/>
      <point x="430.8" y="1422.0" type="qcurve"/>
      <point x="518.0" y="1461.0"/>
      <point x="673.8" y="1478.0" type="qcurve"/>
      <point x="688.0" y="1358.8" type="line"/>
      <point x="563.8" y="1341.8"/>
      <point x="507.6" y="1315.0" type="qcurve"/>
      <point x="456.8" y="1292.4"/>
      <point x="435.0" y="1253.0" type="qcurve"/>
      <point x="416.2" y="1215.6"/>
      <point x="416.2" y="1137.6" type="qcurve"/>
      <point x="418.2" y="796.6" type="line"/>
      <point x="416.2" y="712.2"/>
      <point x="382.0" y="654.4" type="qcurve"/>
      <point x="344.6" y="604.4"/>
    </contour>
  </outline>
</glyph>
<glyph name="bar" format="2">
  <advance width="554.0"/>
  <unicode hex="007C"/>
  <outline>
    <contour>
      <point x="212.6" y="1456.4" type="line"/>
      <point x="345.0" y="1456.4" type="line"/>
      <point x="345.0" y="-139.4" type="line"/>
      <point x="212.6" y="-139.4" type="line"/>
    </contour>
  </outline>
</glyph>
<glyph name="braceright" format="2">
  <advance width="772.8"/>
  <unicode hex="007D"/>
  <outline>
    <contour>
      <point x="486.0" y="580.0" type="qcurve"/>
      <point x="428.2" y="602.4"/>
      <point x="394.8" y="654.6" type="qcurve"/>
      <point x="362.0" y="712.2"/>
      <point x="358.8" y="796.6" type="qcurve"/>
      <point x="360.8" y="1137.6" type="line"/>
      <point x="360.8" y="1215.4"/>
      <point x="341.2" y="1253.2" type="qcurve"/>
      <point x="321.8" y="1292.4"/>
      <point x="268.6" y="1314.8" type="qcurve"/>
      <point x="214.4" y="1341.0"/>
      <point x="88.0" y="1355.6" type="qcurve"/>
      <point x="102.0" y="1478.0" type="line"/>
      <point x="259.0" y="1461.0"/>
      <point x="345.4" y="1422.2" type="qcurve"/>
      <point x="434.2" y="1387.2"/>
      <point x="469.6" y="1316.0" type="qcurve"/>
      <point x="503.2" y="1251.6"/>
      <point x="503.2" y="1145.6" type="qcurve"/>
      <point x="503.2" y="813.6" type="line"/>
      <point x="503.2" y="722.6"/>
      <point x="545.0" y="680.0" type="qcurve"/>
      <point x="582.6" y="643.2"/>
      <point x="688.8" y="642.2" type="qcurve"/>
      <point x="688.8" y="518.8" type="line"/>
      <point x="582.6" y="519.6"/>
      <point x="545.0" y="481.0" type="qcurve"/>
      <point x="503.2" y="440.2"/>
      <point x="503.2" y="347.2" type="qcurve"/>
      <point x="503.2" y="15.4" type="line"/>
      <point x="503.2" y="-89.6"/>
      <point x="469.4" y="-155.0" type="qcurve"/>
      <point x="434.2" y="-225.2"/>
      <point x="345.2" y="-260.2" type="qcurve"/>
      <point x="259.0" y="-298.2"/>
      <point x="102.0" y="-317.2" type="qcurve"/>
      <point x="88.0" y="-197.0" type="line"/>
      <point x="214.2" y="-180.0"/>
      <point x="268.4" y="-153.8" type="qcurve"/>
      <point x="322.0" y="-131.4"/>
      <point x="341.0" y="-92.2" type="qcurve"/>
      <point x="360.8" y="-53.6"/>
      <point x="360.8" y="23.200000000000003" type="qcurve"/>
      <point x="358.8" y="364.2" type="line"/>
      <point x="361.8" y="450.8"/>
      <point x="395.0" y="506.4" type="qcurve"/>
      <point x="432.2" y="558.6"/>
    </contour>
  </outline>
</glyph>
<glyph name="asciitilde" format="2">
  <advance width="873.2"/>
  <unicode hex="007E"/>
  <outline>
    <contour>
      <point x="560.8" y="571.0" type="qcurve"/>
      <point x="516.6" y="571.0"/>
      <point x="486.4" y="591.6" type="qcurve"/>
      <point x="458.8" y="610.4"/>
      <point x="408.4" y="644.4" type="qcurve"/>
      <point x="379.8" y="675.2"/>
      <point x="355.6" y="683.8" type="qcurve"/>
      <point x="339.4" y="697.6"/>
      <point x="312.8" y="696.6" type="qcurve"/>
      <point x="281.2" y="697.4"/>
      <point x="262.4" y="669.8" type="qcurve"/>
      <point x="241.8" y="641.8"/>
      <point x="227.6" y="565.8" type="qcurve"/>
      <point x="120.4" y="582.6" type="line"/>
      <point x="155.6" y="827.0"/>
      <point x="312.8" y="827.0" type="qcurve"/>
      <point x="357.2" y="827.0"/>
      <point x="386.6" y="808.0" type="qcurve"/>
      <point x="419.8" y="791.8"/>
      <point x="467.0" y="753.8" type="qcurve"/>
      <point x="499.6" y="726.2"/>
      <point x="518.8" y="711.8" type="qcurve"/>
      <point x="539.6" y="699.6"/>
      <point x="560.8" y="699.6" type="qcurve"/>
      <point x="594.4" y="699.6"/>
      <point x="613.6" y="728.6" type="qcurve"/>
      <point x="637.8" y="756.6"/>
      <point x="647.6" y="832.2" type="qcurve"/>
      <point x="753.2" y="815.4" type="line"/>
      <point x="721.4" y="571.0"/>
    </contour>
  </outline>
</glyph>
<glyph name="exclamdown" format="2">
  <advance width="542.6"/>
  <unicode hex="00A1"/>
  <outline>
    <contour>
      <point x="270.4" y="1027.6" type="qcurve"/>
      <point x="317.8" y="1028.8"/>
      <point x="350.2" y="994.0" type="qcurve"/>
      <point x="384.4" y="962.0"/>
      <point x="385.6" y="912.4" type="qcurve"/>
      <point x="384.4" y="869.0"/>
      <point x="350.2" y="835.8" type="qcurve"/>
      <point x="317.8" y="802.2"/>
      <point x="270.4" y="802.2" type="qcurve"/>
      <point x="227.0" y="802.2"/>
      <point x="193.6" y="835.8" type="qcurve"/>
      <point x="160.2" y="869.2"/>
      <point x="160.2" y="912.2" type="qcurve"/>
      <point x="158.0" y="961.6"/>
      <point x="191.6" y="994.0" type="qcurve"/>
      <point x="225.0" y="1028.8"/>
    </contour>
    <contour>
      <point x="365.2" y="-324.0" type="line"/>
      <point x="171.8" y="-324.0" type="line"/>
      <point x="211.0" y="636.4" type="line"/>
      <point x="328.8" y="636.4" type="line"/>
    </contour>
  </outline>
</glyph>
<glyph name="cent" format="2">
  <advance width="1059.2"/>
  <unicode hex="00A2"/>
  <outline>
    <contour>
      <point x="985.2" y="136.6" type="qcurve"/>
      <point x="914.2" y="66.8"/>
      <point x="835.6" y="27.6" type="qcurve"/>
      <point x="757.0" y="-7.8"/>
      <point x="675.0" y="-18.6" type="qcurve"/>
      <point x="675.0" y="-139.4" type="line"/>
      <point x="506.0" y="-139.4" type="line"/>
      <point x="506.0" y="-12.0" type="line"/>
      <point x="398.6" y="12.4"/>
      <point x="301.2" y="86.8" type="qcurve"/>
      <point x="208.6" y="162.2"/>
      <point x="151.4" y="271.0" type="qcurve"/>
      <point x="97.0" y="380.6"/>
      <point x="97.0" y="501.4" type="qcurve"/>
      <point x="95.0" y="624.0"/>
      <point x="149.4" y="732.8" type="qcurve"/>
      <point x="205.8" y="841.4"/>
      <point x="299.2" y="917.8" type="qcurve"/>
      <point x="398.8" y="994.4"/>
      <point x="506.0" y="1016.0" type="qcurve"/>
      <point x="506.0" y="1141.2" type="line"/>
      <point x="675.0" y="1141.2" type="line"/>
      <point x="675.0" y="1025.0" type="line"/>
      <point x="753.2" y="1020.4"/>
      <point x="832.0" y="978.2" type="qcurve"/>
      <point x="910.2" y="941.8"/>
      <point x="979.4" y="871.8" type="qcurve"/>
      <point x="867.6" y="761.4" type="line"/>
      <point x="781.2" y="860.2"/>
      <point x="675.0" y="874.0" type="qcurve"/>
      <point x="675.0" y="128.6" type="line"/>
      <point x="782.2" y="150.4"/>
      <point x="871.8" y="248.2" type="qcurve"/>
      <point x="909.6" y="211.6"/>
      <point x="927.2" y="192.8" type="qcurve"/>
      <point x="946.6" y="175.2"/>
    </contour>
    <contour>
      <point x="266.0" y="501.4" type="qcurve"/>
      <point x="264.0" y="377.0"/>
      <point x="337.4" y="275.6" type="qcurve"/>
      <point x="410.6" y="175.6"/>
      <point x="506.0" y="142.2" type="qcurve"/>
      <point x="506.0" y="861.2" type="line"/>
      <point x="410.6" y="831.2"/>
      <point x="337.4" y="729.2" type="qcurve"/>
      <point x="264.0" y="628.8"/>
    </contour>
  </outline>
</glyph>
<glyph name="sterling" format="2">
  <advance width="1294.6"/>
  <unicode hex="00A3"/>
  <outline>
    <contour>
      <point x="1206.6" y="158.2" type="line"/>
      <point x="1206.6" y="0.0" type="line"/>
      <point x="106.8" y="0.0" type="line"/>
      <point x="106.8" y="83.2" type="line"/>
      <point x="246.2" y="157.4" type="line"/>
      <point x="246.2" y="550.4" type="line"/>
      <point x="112.8" y="550.4" type="line"/>
      <point x="112.8" y="697.6" type="line"/>
      <point x="246.2" y="697.6" type="line"/>
      <point x="246.2" y="979.6" type="line"/>
      <point x="246.2" y="1127.2"/>
      <point x="303.6" y="1238.8" type="qcurve"/>
      <point x="364.0" y="1353.8"/>
      <point x="467.0" y="1416.4" type="qcurve"/>
      <point x="573.0" y="1480.0"/>
      <point x="706.0" y="1480.0" type="qcurve"/>
      <point x="852.8" y="1483.0"/>
      <point x="976.4" y="1411.8" type="qcurve"/>
      <point x="1103.6" y="1348.2"/>
      <point x="1155.0" y="1238.2" type="qcurve"/>
      <point x="1029.4" y="1118.2" type="line"/>
      <point x="1002.4" y="1212.6"/>
      <point x="910.4" y="1268.2" type="qcurve"/>
      <point x="821.8" y="1328.8"/>
      <point x="706.2" y="1328.8" type="qcurve"/>
      <point x="578.2" y="1329.8"/>
      <point x="495.0" y="1229.4" type="qcurve"/>
      <point x="412.2" y="1136.0"/>
      <point x="412.2" y="979.6" type="qcurve"/>
      <point x="412.2" y="697.6" type="line"/>
      <point x="840.0" y="697.6" type="line"/>
      <point x="840.0" y="550.4" type="line"/>
      <point x="412.2" y="550.4" type="line"/>
      <point x="412.2" y="158.2" type="line"/>
    </contour>
  </outline>
</glyph>
<glyph name="yen" format="2">
  <advance width="1409.8"/>
  <unicode hex="00A5"/>
  <outline>
    <contour>
      <point x="864.0" y="700.6" type="line"/>
      <point x="1229.2" y="700.6" type="line"/>
      <point x="1229.2" y="552.2" type="line"/>
      <point x="791.6" y="552.2" type="line"/>
      <point x="791.6" y="388.4" type="line"/>
      <point x="1229.2" y="388.4" type="line"/>
      <point x="1229.2" y="242.0" type="line"/>
      <point x="791.6" y="242.0" type="line"/>
      <point x="791.6" y="0.0" type="line"/>
      <point x="614.8" y="0.0" type="line"/>
      <point x="614.8" y="242.0" type="line"/>
      <point x="179.0" y="242.0" type="line"/>
      <point x="179.0" y="388.4" type="line"/>
      <point x="614.8" y="388.4" type="line"/>
      <point x="614.8" y="552.2" type="line"/>
      <point x="179.0" y="552.2" type="line"/>
      <point x="179.0" y="700.6" type="line"/>
      <point x="543.2" y="700.6" type="line"/>
      <point x="28.4" y="1457.4" type="line"/>
      <point x="235.0" y="1457.4" type="line"/>
      <point x="704.2" y="751.6" type="line"/>
      <point x="1175.2" y="1457.4" type="line"/>
      <point x="1378.8" y="1457.4" type="line"/>
    </contour>
  </outline>
</glyph>
<glyph name="dieresis" format="2">
  <advance width="806.0"/>
  <unicode hex="00A8"/>
  <unicode hex="0308"/>
  <outline>
    <contour>
      <point x="218.0" y="1330.8" type="qcurve"/>
      <point x="258.6" y="1330.8"/>
      <point x="286.8" y="1302.4" type="qcurve"/>
      <point x="316.4" y="1274.0"/>
      <point x="316.4" y="1232.8" type="qcurve"/>
      <point x="317.6" y="1193.0"/>
      <point x="287.8" y="1164.6" type="qcurve"/>
      <point x="258.4" y="1136.2"/>
      <point x="218.0" y="1136.2" type="qcurve"/>
      <point x="179.8" y="1136.2"/>
      <point x="150.2" y="1163.6" type="qcurve"/>
      <point x="121.8" y="1193.2"/>
      <point x="121.8" y="1232.4" type="qcurve"/>
      <point x="120.6" y="1272.8"/>
      <point x="149.2" y="1301.4" type="qcurve"/>
      <point x="178.8" y="1330.8"/>
    </contour>
    <contour>
      <point x="584.6" y="1330.8" type="qcurve"/>
      <point x="625.2" y="1330.8"/>
      <point x="653.4" y="1302.4" type="qcurve"/>
      <point x="683.0" y="1274.0"/>
      <point x="683.0" y="1234.6" type="qcurve"/>
      <point x="683.0" y="1195.2"/>
      <point x="654.6" y="1165.6" type="qcurve"/>
      <point x="626.0" y="1136.2"/>
      <point x="584.6" y="1136.2" type="qcurve"/>
      <point x="545.0" y="1136.2"/>
      <point x="517.4" y="1164.8" type="qcurve"/>
      <point x="490.2" y="1195.4"/>
      <point x="490.2" y="1234.6" type="qcurve"/>
      <point x="490.2" y="1272.8"/>
      <point x="516.4" y="1301.2" type="qcurve"/>
      <point x="545.0" y="1330.8"/>
    </contour>
  </outline>
</glyph>
<glyph name="guillemotleft" format="2">
  <advance width="1025.4"/>
  <unicode hex="00AB"/>
  <outline>
    <contour>
      <point x="86.4" y="487.8" type="line"/>
      <point x="401.2" y="874.6" type="line"/>
      <point x="549.0" y="839.0" type="line"/>
      <point x="264.6" y="489.4" type="line"/>
      <point x="548.6" y="135.4" type="line"/>
      <point x="401.2" y="95.6" type="line"/>
    </contour>
    <contour>
      <point x="462.8" y="487.8" type="line"/>
      <point x="777.6" y="874.6" type="line"/>
      <point x="925.4" y="839.0" type="line"/>
      <point x="641.0" y="489.4" type="line"/>
      <point x="925.0" y="135.4" type="line"/>
      <point x="777.6" y="95.6" type="line"/>
    </contour>
  </outline>
</glyph>
<glyph name="macron" format="2">
  <advance width="854.2"/>
  <unicode hex="00AF"/>
  <outline>
    <contour>
      <point x="123.6" y="1256.8" type="line"/>
      <point x="734.2" y="1256.8" type="line"/>
      <point x="734.2" y="1132.2" type="line"/>
      <point x="123.6" y="1132.2" type="line"/>
    </contour>
  </outline>
</glyph>
<glyph name="paragraph" format="2">
  <advance width="1286.2"/>
  <unicode hex="00B6"/>
  <outline>
    <contour>
      <point x="563.4" y="629.6" type="line"/>
      <point x="422.4" y="632.4"/>
      <point x="310.0" y="680.6" type="qcurve"/>
      <point x="201.0" y="735.2"/>
      <point x="136.2" y="828.0" type="qcurve"/>
      <point x="75.2" y="919.4"/>
      <point x="75.2" y="1041.8" type="qcurve"/>
      <point x="75.2" y="1164.0"/>
      <point x="134.0" y="1257.4" type="qcurve"/>
      <point x="194.8" y="1354.4"/>
      <point x="298.8" y="1403.0" type="qcurve"/>
      <point x="402.6" y="1457.4"/>
      <point x="535.2" y="1457.4" type="qcurve"/>
      <point x="1076.2" y="1457.4" type="line"/>
      <point x="1076.2" y="-107.6" type="line"/>
      <point x="942.8" y="-107.6" type="line"/>
      <point x="942.8" y="1333.8" type="line"/>
      <point x="699.8" y="1333.8" type="line"/>
      <point x="699.8" y="-107.6" type="line"/>
      <point x="563.4" y="-107.6" type="line"/>
    </contour>
  </outline>
</glyph>
<glyph name="periodcentered" format="2">
  <advance width="478.0"/>
  <unicode hex="00B7"/>
  <outline>
    <contour>
      <point x="242.8" y="420.8" type="qcurve"/>
      <point x="199.6" y="420.8"/>
      <point x="164.8" y="452.2" type="qcurve"/>
      <point x="134.6" y="484.8"/>
      <point x="133.6" y="528.0" type="qcurve"/>
      <point x="134.6" y="573.4"/>
      <point x="164.8" y="605.8" type="qcurve"/>
      <point x="199.6" y="639.6"/>
      <point x="242.8" y="636.4" type="qcurve"/>
      <point x="286.0" y="639.6"/>
      <point x="315.8" y="607.8" type="qcurve"/>
      <point x="349.0" y="575.6"/>
      <point x="349.0" y="528.0" type="qcurve"/>
      <point x="349.0" y="484.6"/>
      <point x="315.8" y="452.4" type="qcurve"/>
      <point x="286.4" y="420.8"/>
    </contour>
  </outline>
</glyph>
<glyph name="cedilla" format="2">
  <advance width="619.2"/>
  <unicode hex="00B8"/>
  <unicode hex="0327"/>
  <outline>
    <contour>
      <point x="356.0" y="-68.2" type="qcurve"/>
      <point x="418.4" y="-65.0"/>
      <point x="457.6" y="-103.2" type="qcurve"/>
      <point x="502.4" y="-140.6"/>
      <point x="499.2" y="-201.4" type="qcurve"/>
      <point x="499.2" y="-273.8"/>
      <point x="440.2" y="-320.0" type="qcurve"/>
      <point x="386.4" y="-363.6"/>
      <point x="301.2" y="-364.6" type="qcurve"/>
      <point x="255.2" y="-364.6"/>
      <point x="207.2" y="-350.2" type="qcurve"/>
      <point x="160.4" y="-332.0"/>
      <point x="121.2" y="-306.2" type="qcurve"/>
      <point x="166.0" y="-209.4" type="line"/>
      <point x="230.2" y="-256.0"/>
      <point x="295.4" y="-258.8" type="qcurve"/>
      <point x="332.4" y="-258.8"/>
      <point x="356.4" y="-240.2" type="qcurve"/>
      <point x="381.2" y="-221.4"/>
      <point x="378.6" y="-195.2" type="qcurve"/>
      <point x="381.0" y="-168.0"/>
      <point x="364.2" y="-156.0" type="qcurve"/>
      <point x="345.6" y="-137.4"/>
      <point x="312.8" y="-137.4" type="qcurve"/>
      <point x="283.4" y="-136.6"/>
      <point x="249.8" y="-163.4" type="qcurve"/>
      <point x="209.2" y="-120.0" type="line"/>
      <point x="277.0" y="38.6" type="line"/>
      <point x="394.0" y="38.6" type="line"/>
      <point x="353.6" y="-60.0" type="line"/>
      <point x="342.2" y="-65.8"/>
    </contour>
  </outline>
</glyph>
<glyph name="guillemotright" format="2">
  <advance width="1020.6"/>
  <unicode hex="00BB"/>
  <outline>
    <contour>
      <point x="93.8" y="135.6" type="line"/>
      <point x="379.8" y="489.4" type="line"/>
      <point x="93.4" y="839.0" type="line"/>
      <point x="244.6" y="874.6" type="line"/>
      <point x="558.0" y="487.6" type="line"/>
      <point x="244.4" y="95.6" type="line"/>
    </contour>
    <contour>
      <point x="475.6" y="135.6" type="line"/>
      <point x="757.4" y="489.6" type="line"/>
      <point x="475.2" y="839.0" type="line"/>
      <point x="620.8" y="874.8" type="line"/>
      <point x="934.6" y="487.6" type="line"/>
      <point x="620.6" y="95.6" type="line"/>
    </contour>
  </outline>
</glyph>
<glyph name="questiondown" format="2">
  <advance width="992.0"/>
  <unicode hex="00BF"/>
  <outline>
    <contour>
      <point x="552.0" y="1027.6" type="qcurve"/>
      <point x="600.4" y="1028.6"/>
      <point x="633.6" y="994.2" type="qcurve"/>
      <point x="667.2" y="961.8"/>
      <point x="667.2" y="912.4" type="qcurve"/>
      <point x="667.2" y="869.0"/>
      <point x="633.6" y="835.8" type="qcurve"/>
      <point x="600.2" y="802.2"/>
      <point x="552.0" y="802.2" type="qcurve"/>
      <point x="507.4" y="802.2"/>
      <point x="477.0" y="835.8" type="qcurve"/>
      <point x="444.8" y="869.0"/>
      <point x="443.8" y="912.2" type="qcurve"/>
      <point x="442.8" y="961.6"/>
      <point x="475.0" y="994.0" type="qcurve"/>
      <point x="507.6" y="1028.6"/>
    </contour>
    <contour>
      <point x="638.4" y="261.6" type="line"/>
      <point x="521.6" y="252.2"/>
      <point x="435.8" y="217.2" type="qcurve"/>
      <point x="355.0" y="187.0"/>
      <point x="305.8" y="132.4" type="qcurve"/>
      <point x="258.0" y="84.6"/>
      <point x="258.0" y="25.200000000000003" type="qcurve"/>
      <point x="258.0" y="-28.6"/>
      <point x="287.4" y="-82.6" type="qcurve"/>
      <point x="320.2" y="-131.6"/>
      <point x="374.6" y="-160.2" type="qcurve"/>
      <point x="432.0" y="-191.6"/>
      <point x="503.6" y="-191.6" type="qcurve"/>
      <point x="603.8" y="-190.6"/>
      <point x="676.6" y="-146.6" type="qcurve"/>
      <point x="756.2" y="-97.8"/>
      <point x="830.8" y="-7.199999999999999" type="qcurve"/>
      <point x="940.0" y="-117.4" type="line"/>
      <point x="759.0" y="-343.8"/>
      <point x="495.6" y="-346.8" type="qcurve"/>
      <point x="376.8" y="-343.8"/>
      <point x="285.0" y="-298.4" type="qcurve"/>
      <point x="193.8" y="-252.8"/>
      <point x="138.8" y="-169.4" type="qcurve"/>
      <point x="89.2" y="-86.2"/>
      <point x="89.2" y="11.4" type="qcurve"/>
      <point x="89.2" y="97.0"/>
      <point x="136.8" y="176.6" type="qcurve"/>
      <point x="188.6" y="255.2"/>
      <point x="276.2" y="309.0" type="qcurve"/>
      <point x="366.6" y="367.0"/>
      <point x="470.4" y="389.4" type="qcurve"/>
      <point x="470.4" y="636.4" type="line"/>
      <point x="638.4" y="636.4" type="line"/>
    </contour>
  </outline>
</glyph>
<glyph name="Agrave" format="2">
  <advance width="1363.4"/>
  <unicode hex="00C0"/>
  <outline>
    <contour>
      <point x="595.8" y="1457.4" type="line"/>
      <point x="771.0" y="1457.4" type="line"/>
      <point x="1299.4" y="0.0" type="line"/>
      <point x="1120.4" y="0.0" type="line"/>
      <point x="972.2" y="413.0" type="line"/>
      <point x="393.6" y="413.0" type="line"/>
      <point x="242.4" y="0.0" type="line"/>
      <point x="62.2" y="0.0" type="line"/>
    </contour>
    <contour>
      <point x="683.4" y="1201.4" type="line"/>
      <point x="451.0" y="570.2" type="line"/>
      <point x="914.8" y="570.2" type="line"/>
    </contour>
    <contour>
      <point x="468.8" y="1793.0" type="line"/>
      <point x="644.4" y="1833.0" type="line"/>
      <point x="889.0" y="1539.4" type="line"/>
      <point x="755.8" y="1539.4" type="line"/>
    </contour>
  </outline>
</glyph>
<glyph name="Aacute" format="2">
  <advance width="1363.4"/>
  <unicode hex="00C1"/>
  <outline>
    <contour>
      <point x="595.8" y="1457.4" type="line"/>
      <point x="771.0" y="1457.4" type="line"/>
      <point x="1299.4" y="0.0" type="line"/>
      <point x="1120.4" y="0.0" type="line"/>
      <point x="972.2" y="413.0" type="line"/>
      <point x="393.6" y="413.0" type="line"/>
      <point x="242.4" y="0.0" type="line"/>
      <point x="62.2" y="0.0" type="line"/>
    </contour>
    <contour>
      <point x="683.4" y="1201.4" type="line"/>
      <point x="451.0" y="570.2" type="line"/>
      <point x="914.8" y="570.2" type="line"/>
    </contour>
    <contour>
      <point x="715.6" y="1832.8" type="line"/>
      <point x="889.0" y="1792.8" type="line"/>
      <point x="603.0" y="1539.4" type="line"/>
      <point x="468.6" y="1539.4" type="line"/>
    </contour>
  </outline>
</glyph>
<glyph name="Acircumflex" format="2">
  <advance width="1363.4"/>
  <unicode hex="00C2"/>
  <outline>
    <contour>
      <point x="595.8" y="1457.4" type="line"/>
      <point x="771.0" y="1457.4" type="line"/>
      <point x="1299.4" y="0.0" type="line"/>
      <point x="1120.4" y="0.0" type="line"/>
      <point x="972.2" y="413.0" type="line"/>
      <point x="393.6" y="413.0" type="line"/>
      <point x="242.4" y="0.0" type="line"/>
      <point x="62.2" y="0.0" type="line"/>
    </contour>
    <contour>
      <point x="683.4" y="1201.4" type="line"/>
      <point x="451.0" y="570.2" type="line"/>
      <point x="914.8" y="570.2" type="line"/>
    </contour>
    <contour>
      <point x="605.6" y="1819.0" type="line"/>
      <point x="748.4" y="1819.0" type="line"/>
      <point x="957.0" y="1539.4" type="line"/>
      <point x="822.6" y="1539.4" type="line"/>
      <point x="676.4" y="1696.8" type="line"/>
      <point x="533.4" y="1539.4" type="line"/>
      <point x="401.2" y="1539.4" type="line"/>
    </contour>
  </outline>
</glyph>
<glyph name="Atilde" format="2">
  <advance width="1363.4"/>
  <unicode hex="00C3"/>
  <outline>
    <contour>
      <point x="595.8" y="1457.4" type="line"/>
      <point x="771.0" y="1457.4" type="line"/>
      <point x="1299.4" y="0.0" type="line"/>
      <point x="1120.4" y="0.0" type="line"/>
      <point x="972.2" y="413.0" type="line"/>
      <point x="393.6" y="413.0" type="line"/>
      <point x="242.4" y="0.0" type="line"/>
      <point x="62.2" y="0.0" type="line"/>
    </contour>
    <contour>
      <point x="683.4" y="1201.4" type="line"/>
      <point x="451.0" y="570.2" type="line"/>
      <point x="914.8" y="570.2" type="line"/>
    </contour>
    <contour>
      <point x="803.4" y="1543.2" type="qcurve"/>
      <point x="759.0" y="1541.0"/>
      <point x="726.4" y="1560.8" type="qcurve"/>
      <point x="698.4" y="1582.6"/>
      <point x="648.6" y="1616.8" type="qcurve"/>
      <point x="621.2" y="1647.6"/>
      <point x="597.6" y="1658.0" type="qcurve"/>
      <point x="579.2" y="1671.4"/>
      <point x="555.4" y="1668.8" type="qcurve"/>
      <point x="526.6" y="1669.6"/>
      <point x="504.0" y="1641.4" type="qcurve"/>
      <point x="481.8" y="1614.0"/>
      <point x="467.6" y="1538.2" type="qcurve"/>
      <point x="362.6" y="1552.4" type="line"/>
      <point x="395.6" y="1797.2"/>
      <point x="554.8" y="1797.2" type="qcurve"/>
      <point x="595.8" y="1799.4"/>
      <point x="628.6" y="1780.0" type="qcurve"/>
      <point x="662.0" y="1762.2"/>
      <point x="709.0" y="1724.0" type="qcurve"/>
      <point x="741.4" y="1696.6"/>
      <point x="760.0" y="1684.4" type="qcurve"/>
      <point x="783.2" y="1673.6"/>
      <point x="802.8" y="1673.6" type="qcurve"/>
      <point x="836.6" y="1674.4"/>
      <point x="855.6" y="1700.6" type="qcurve"/>
      <point x="877.0" y="1728.4"/>
      <point x="890.0" y="1802.2" type="qcurve"/>
      <point x="995.2" y="1788.0" type="line"/>
      <point x="963.4" y="1545.2"/>
    </contour>
  </outline>
</glyph>
<glyph name="Adieresis" format="2">
  <advance width="1363.4"/>
  <unicode hex="00C4"/>
  <outline>
    <contour>
      <point x="595.8" y="1457.4" type="line"/>
      <point x="771.0" y="1457.4" type="line"/>
      <point x="1299.4" y="0.0" type="line"/>
      <point x="1120.4" y="0.0" type="line"/>
      <point x="972.2" y="413.0" type="line"/>
      <point x="393.6" y="413.0" type="line"/>
      <point x="242.4" y="0.0" type="line"/>
      <point x="62.2" y="0.0" type="line"/>
    </contour>
    <contour>
      <point x="683.4" y="1201.4" type="line"/>
      <point x="451.0" y="570.2" type="line"/>
      <point x="914.8" y="570.2" type="line"/>
    </contour>
    <contour>
      <point x="494.6" y="1734.0" type="qcurve"/>
      <point x="535.2" y="1734.0"/>
      <point x="563.6" y="1705.4" type="qcurve"/>
      <point x="593.0" y="1677.2"/>
      <point x="593.0" y="1635.6" type="qcurve"/>
      <point x="593.0" y="1596.2"/>
      <point x="564.4" y="1567.8" type="qcurve"/>
      <point x="536.0" y="1539.4"/>
      <point x="494.6" y="1539.4" type="qcurve"/>
      <point x="455.4" y="1539.4"/>
      <point x="426.6" y="1566.8" type="qcurve"/>
      <point x="398.4" y="1596.4"/>
      <point x="398.4" y="1635.6" type="qcurve"/>
      <point x="398.4" y="1676.0"/>
      <point x="425.6" y="1704.4" type="qcurve"/>
      <point x="455.4" y="1734.0"/>
    </contour>
    <contour>
      <point x="861.2" y="1734.0" type="qcurve"/>
      <point x="901.8" y="1734.0"/>
      <point x="930.0" y="1705.4" type="qcurve"/>
      <point x="959.6" y="1677.2"/>
      <point x="959.6" y="1637.8" type="qcurve"/>
      <point x="960.8" y="1598.2"/>
      <point x="931.0" y="1568.8" type="qcurve"/>
      <point x="901.6" y="1539.4"/>
      <point x="861.2" y="1539.4" type="qcurve"/>
      <point x="822.6" y="1539.4"/>
      <point x="794.2" y="1568.0" type="qcurve"/>
      <point x="767.8" y="1598.2"/>
      <point x="766.8" y="1637.6" type="qcurve"/>
      <point x="766.8" y="1676.0"/>
      <point x="793.0" y="1704.2" type="qcurve"/>
      <point x="821.8" y="1734.0"/>
    </contour>
  </outline>
</glyph>
<glyph name="Aring" format="2">
  <advance width="1363.4"/>
  <unicode hex="00C5"/>
  <outline>
    <contour>
      <point x="595.8" y="1457.4" type="line"/>
      <point x="771.0" y="1457.4" type="line"/>
      <point x="1299.4" y="0.0" type="line"/>
      <point x="1120.4" y="0.0" type="line"/>
      <point x="972.2" y="413.0" type="line"/>
      <point x="393.6" y="413.0" type="line"/>
      <point x="242.4" y="0.0" type="line"/>
      <point x="62.2" y="0.0" type="line"/>
    </contour>
    <contour>
      <point x="683.4" y="1201.4" type="line"/>
      <point x="451.0" y="570.2" type="line"/>
      <point x="914.8" y="570.2" type="line"/>
    </contour>
    <contour>
      <point x="678.4" y="1539.4" type="qcurve"/>
      <point x="594.6" y="1539.4"/>
      <point x="532.6" y="1598.4" type="qcurve"/>
      <point x="473.4" y="1658.6"/>
      <point x="473.4" y="1745.4" type="qcurve"/>
      <point x="473.4" y="1833.4"/>
      <point x="532.8" y="1889.4" type="qcurve"/>
      <point x="594.6" y="1951.4"/>
      <point x="678.4" y="1951.4" type="qcurve"/>
      <point x="769.6" y="1951.4"/>
      <point x="825.6" y="1889.0" type="qcurve"/>
      <point x="884.4" y="1833.2"/>
      <point x="884.4" y="1745.4" type="qcurve"/>
      <point x="884.4" y="1658.6"/>
      <point x="825.6" y="1598.4" type="qcurve"/>
      <point x="769.4" y="1539.4"/>
    </contour>
    <contour>
      <point x="678.4" y="1643.0" type="qcurve"/>
      <point x="720.2" y="1643.0"/>
      <point x="751.0" y="1673.0" type="qcurve"/>
      <point x="783.4" y="1703.0"/>
      <point x="782.6" y="1745.4" type="qcurve"/>
      <point x="782.6" y="1787.8"/>
      <point x="752.8" y="1817.8" type="qcurve"/>
      <point x="722.2" y="1847.6"/>
      <point x="678.4" y="1847.6" type="qcurve"/>
      <point x="638.8" y="1847.6"/>
      <point x="609.0" y="1819.8" type="qcurve"/>
      <point x="579.0" y="1788.8"/>
      <point x="577.2" y="1745.2" type="qcurve"/>
      <point x="577.2" y="1702.6"/>
      <point x="606.0" y="1673.0" type="qcurve"/>
      <point x="638.8" y="1643.0"/>
    </contour>
  </outline>
</glyph>
<glyph name="AE" format="2">
  <advance width="2179.4"/>
  <unicode hex="00C6"/>
  <outline>
    <contour>
      <point x="1187.8" y="1300.2" type="line"/>
      <point x="1189.8" y="825.0" type="line"/>
      <point x="1977.0" y="825.0" type="line"/>
      <point x="1979.4" y="664.0" type="line"/>
      <point x="1187.8" y="664.0" type="line"/>
      <point x="1189.8" y="165.0" type="line"/>
      <point x="2062.4" y="165.0" type="line"/>
      <point x="2060.0" y="2.0" type="line"/>
      <point x="1014.8" y="0.0" type="line"/>
      <point x="1016.8" y="332.0" type="line"/>
      <point x="464.6" y="332.0" type="line"/>
      <point x="273.8" y="0.0" type="line"/>
      <point x="76.4" y="0.0" type="line"/>
      <point x="915.0" y="1457.4" type="line"/>
      <point x="2062.4" y="1457.4" type="line"/>
      <point x="2060.0" y="1298.2" type="line"/>
    </contour>
    <contour>
      <point x="1014.8" y="497.0" type="line"/>
      <point x="1016.8" y="1293.2" type="line"/>
      <point x="554.6" y="497.0" type="line"/>
    </contour>
  </outline>
</glyph>
<glyph name="Ccedilla" format="2">
  <advance width="1431.2"/>
  <unicode hex="00C7"/>
  <outline>
    <contour>
      <point x="848.4" y="1479.0" type="qcurve"/>
      <point x="1049.6" y="1481.0"/>
      <point x="1215.8" y="1379.0" type="qcurve"/>
      <point x="1302.0" y="1324.8"/>
      <point x="1377.2" y="1249.4" type="qcurve"/>
      <point x="1259.6" y="1130.4" type="line"/>
      <point x="1199.2" y="1189.4"/>
      <point x="1133.0" y="1230.4" type="qcurve"/>
      <point x="999.0" y="1312.0"/>
      <point x="848.4" y="1310.0" type="qcurve"/>
      <point x="699.6" y="1312.0"/>
      <point x="562.6" y="1232.4" type="qcurve"/>
      <point x="495.6" y="1191.4"/>
      <point x="444.0" y="1140.8" type="qcurve"/>
      <point x="392.6" y="1091.4"/>
      <point x="351.6" y="1021.4" type="qcurve"/>
      <point x="273.8" y="883.2"/>
      <point x="273.8" y="728.6" type="qcurve"/>
      <point x="271.0" y="579.0"/>
      <point x="349.4" y="442.0" type="qcurve"/>
      <point x="392.4" y="374.8"/>
      <point x="442.2" y="322.0" type="qcurve"/>
      <point x="493.8" y="269.6"/>
      <point x="560.8" y="227.8" type="qcurve"/>
      <point x="697.8" y="144.2"/>
      <point x="848.4" y="146.2" type="qcurve"/>
      <point x="997.0" y="144.2"/>
      <point x="1131.0" y="227.8" type="qcurve"/>
      <point x="1198.2" y="267.8"/>
      <point x="1257.6" y="327.0" type="qcurve"/>
      <point x="1375.6" y="208.0" type="line"/>
      <point x="1305.0" y="136.4"/>
      <point x="1217.8" y="82.6" type="qcurve"/>
      <point x="1049.6" y="-19.8"/>
      <point x="848.4" y="-22.8" type="qcurve"/>
      <point x="652.2" y="-21.8"/>
      <point x="481.0" y="80.4" type="qcurve"/>
      <point x="309.0" y="184.2"/>
      <point x="206.0" y="355.2" type="qcurve"/>
      <point x="101.0" y="527.4"/>
      <point x="101.0" y="728.6" type="qcurve"/>
      <point x="101.0" y="932.8"/>
      <point x="206.2" y="1102.0" type="qcurve"/>
      <point x="310.8" y="1274.8"/>
      <point x="479.0" y="1377.0" type="qcurve"/>
      <point x="651.2" y="1482.2"/>
    </contour>
    <contour>
      <point x="783.8" y="-212.4" type="qcurve"/>
      <point x="846.0" y="-210.2"/>
      <point x="884.2" y="-246.4" type="qcurve"/>
      <point x="929.2" y="-282.6"/>
      <point x="926.0" y="-345.6" type="qcurve"/>
      <point x="926.0" y="-418.0"/>
      <point x="868.0" y="-464.2" type="qcurve"/>
      <point x="813.2" y="-507.8"/>
      <point x="729.0" y="-508.8" type="qcurve"/>
      <point x="682.8" y="-508.8"/>
      <point x="634.0" y="-493.6" type="qcurve"/>
      <point x="586.0" y="-477.0"/>
      <point x="549.4" y="-449.0" type="qcurve"/>
      <point x="592.6" y="-352.6" type="line"/>
      <point x="657.0" y="-399.4"/>
      <point x="723.2" y="-402.0" type="qcurve"/>
      <point x="759.2" y="-402.0"/>
      <point x="783.2" y="-384.4" type="qcurve"/>
      <point x="809.0" y="-363.8"/>
      <point x="806.4" y="-339.6" type="qcurve"/>
      <point x="808.0" y="-312.2"/>
      <point x="790.6" y="-298.8" type="qcurve"/>
      <point x="774.2" y="-280.8"/>
      <point x="740.8" y="-281.6" type="qcurve"/>
      <point x="710.4" y="-280.8"/>
      <point x="676.4" y="-307.6" type="qcurve"/>
      <point x="637.0" y="-264.2" type="line"/>
      <point x="703.8" y="-104.8" type="line"/>
      <point x="822.0" y="-104.8" type="line"/>
      <point x="780.2" y="-205.6" type="line"/>
      <point x="770.2" y="-210.0"/>
    </contour>
  </outline>
</glyph>
<glyph name="Egrave" format="2">
  <advance width="1217.8"/>
  <unicode hex="00C8"/>
  <outline>
    <contour>
      <point x="322.4" y="1296.2" type="line"/>
      <point x="322.4" y="821.0" type="line"/>
      <point x="1035.6" y="821.0" type="line"/>
      <point x="1035.6" y="662.0" type="line"/>
      <point x="322.4" y="662.0" type="line"/>
      <point x="322.4" y="158.2" type="line"/>
      <point x="1112.8" y="158.2" type="line"/>
      <point x="1112.8" y="0.0" type="line"/>
      <point x="154.4" y="0.0" type="line"/>
      <point x="154.4" y="1457.4" type="line"/>
      <point x="1112.8" y="1457.4" type="line"/>
      <point x="1112.8" y="1296.2" type="line"/>
    </contour>
    <contour>
      <point x="423.4" y="1792.8" type="line"/>
      <point x="598.0" y="1833.0" type="line"/>
      <point x="843.8" y="1539.4" type="line"/>
      <point x="710.4" y="1539.4" type="line"/>
    </contour>
  </outline>
</glyph>
<glyph name="Eacute" format="2">
  <advance width="1217.8"/>
  <unicode hex="00C9"/>
  <outline>
    <contour>
      <point x="322.4" y="1296.2" type="line"/>
      <point x="322.4" y="821.0" type="line"/>
      <point x="1035.6" y="821.0" type="line"/>
      <point x="1035.6" y="662.0" type="line"/>
      <point x="322.4" y="662.0" type="line"/>
      <point x="322.4" y="158.2" type="line"/>
      <point x="1112.8" y="158.2" type="line"/>
      <point x="1112.8" y="0.0" type="line"/>
      <point x="154.4" y="0.0" type="line"/>
      <point x="154.4" y="1457.4" type="line"/>
      <point x="1112.8" y="1457.4" type="line"/>
      <point x="1112.8" y="1296.2" type="line"/>
    </contour>
    <contour>
      <point x="670.2" y="1832.8" type="line"/>
      <point x="843.6" y="1792.8" type="line"/>
      <point x="557.6" y="1539.4" type="line"/>
      <point x="423.2" y="1539.4" type="line"/>
    </contour>
  </outline>
</glyph>
<glyph name="Edieresis" format="2">
  <advance width="1217.8"/>
  <unicode hex="00CB"/>
  <outline>
    <contour>
      <point x="322.4" y="1296.2" type="line"/>
      <point x="322.4" y="821.0" type="line"/>
      <point x="1035.6" y="821.0" type="line"/>
      <point x="1035.6" y="662.0" type="line"/>
      <point x="322.4" y="662.0" type="line"/>
      <point x="322.4" y="158.2" type="line"/>
      <point x="1112.8" y="158.2" type="line"/>
      <point x="1112.8" y="0.0" type="line"/>
      <point x="154.4" y="0.0" type="line"/>
      <point x="154.4" y="1457.4" type="line"/>
      <point x="1112.8" y="1457.4" type="line"/>
      <point x="1112.8" y="1296.2" type="line"/>
    </contour>
    <contour>
      <point x="449.2" y="1734.0" type="qcurve"/>
      <point x="489.8" y="1734.0"/>
      <point x="518.0" y="1705.4" type="qcurve"/>
      <point x="547.6" y="1677.2"/>
      <point x="547.6" y="1635.8" type="qcurve"/>
      <point x="548.8" y="1596.2"/>
      <point x="519.0" y="1567.6" type="qcurve"/>
      <point x="489.6" y="1539.4"/>
      <point x="449.2" y="1539.4" type="qcurve"/>
      <point x="411.0" y="1539.4"/>
      <point x="381.4" y="1566.6" type="qcurve"/>
      <point x="352.8" y="1596.4"/>
      <point x="352.8" y="1635.4" type="qcurve"/>
      <point x="351.8" y="1676.0"/>
      <point x="380.4" y="1704.4" type="qcurve"/>
      <point x="410.0" y="1734.0"/>
    </contour>
    <contour>
      <point x="815.8" y="1734.0" type="qcurve"/>
      <point x="856.2" y="1734.0"/>
      <point x="884.6" y="1705.4" type="qcurve"/>
      <point x="914.2" y="1677.2"/>
      <point x="914.2" y="1637.6" type="qcurve"/>
      <point x="914.2" y="1598.2"/>
      <point x="885.8" y="1568.8" type="qcurve"/>
      <point x="857.2" y="1539.4"/>
      <point x="815.8" y="1539.4" type="qcurve"/>
      <point x="776.2" y="1539.4"/>
      <point x="748.6" y="1568.0" type="qcurve"/>
      <point x="721.4" y="1598.4"/>
      <point x="721.4" y="1637.6" type="qcurve"/>
      <point x="721.4" y="1676.0"/>
      <point x="747.6" y="1704.2" type="qcurve"/>
      <point x="776.2" y="1734.0"/>
    </contour>
  </outline>
</glyph>
<glyph name="Igrave" format="2">
  <advance width="483.4"/>
  <unicode hex="00CC"/>
  <outline>
    <contour>
      <point x="154.4" y="1457.4" type="line"/>
      <point x="320.4" y="1457.4" type="line"/>
      <point x="320.4" y="0.0" type="line"/>
      <point x="154.4" y="0.0" type="line"/>
    </contour>
    <contour>
      <point x="26.2" y="1792.8" type="line"/>
      <point x="201.8" y="1833.0" type="line"/>
      <point x="446.4" y="1539.4" type="line"/>
      <point x="314.2" y="1539.4" type="line"/>
    </contour>
  </outline>
</glyph>
<glyph name="Iacute" format="2">
  <advance width="483.2"/>
  <unicode hex="00CD"/>
  <outline>
    <contour>
      <point x="154.4" y="1457.4" type="line"/>
      <point x="320.4" y="1457.4" type="line"/>
      <point x="320.4" y="0.0" type="line"/>
      <point x="154.4" y="0.0" type="line"/>
    </contour>
    <contour>
      <point x="273.0" y="1832.8" type="line"/>
      <point x="446.2" y="1792.8" type="line"/>
      <point x="161.4" y="1539.4" type="line"/>
      <point x="26.0" y="1539.4" type="line"/>
    </contour>
  </outline>
</glyph>
<glyph name="Icircumflex" format="2">
  <advance width="481.4"/>
  <unicode hex="00CE"/>
  <outline>
    <contour>
      <point x="154.4" y="1457.4" type="line"/>
      <point x="320.4" y="1457.4" type="line"/>
      <point x="320.4" y="0.0" type="line"/>
      <point x="154.4" y="0.0" type="line"/>
    </contour>
    <contour>
      <point x="163.0" y="1819.0" type="line"/>
      <point x="305.8" y="1819.0" type="line"/>
      <point x="514.4" y="1539.4" type="line"/>
      <point x="380.0" y="1539.4" type="line"/>
      <point x="233.8" y="1696.8" type="line"/>
      <point x="90.8" y="1539.4" type="line"/>
      <point x="-41.4" y="1539.4" type="line"/>
    </contour>
  </outline>
</glyph>
<glyph name="Idieresis" format="2">
  <advance width="472.0"/>
  <unicode hex="00CF"/>
  <outline>
    <contour>
      <point x="154.4" y="1457.4" type="line"/>
      <point x="320.4" y="1457.4" type="line"/>
      <point x="320.4" y="0.0" type="line"/>
      <point x="154.4" y="0.0" type="line"/>
    </contour>
    <contour>
      <point x="52.0" y="1734.0" type="qcurve"/>
      <point x="92.6" y="1734.0"/>
      <point x="120.8" y="1705.4" type="qcurve"/>
      <point x="150.4" y="1677.2"/>
      <point x="150.4" y="1635.8" type="qcurve"/>
      <point x="151.6" y="1596.2"/>
      <point x="121.8" y="1567.6" type="qcurve"/>
      <point x="92.4" y="1539.4"/>
      <point x="52.0" y="1539.4" type="qcurve"/>
      <point x="13.8" y="1539.4"/>
      <point x="-15.8" y="1566.6" type="qcurve"/>
      <point x="-44.2" y="1596.4"/>
      <point x="-44.2" y="1635.4" type="qcurve"/>
      <point x="-45.4" y="1676.0"/>
      <point x="-16.8" y="1704.4" type="qcurve"/>
      <point x="12.8" y="1734.0"/>
    </contour>
    <contour>
      <point x="418.6" y="1734.0" type="qcurve"/>
      <point x="459.2" y="1734.0"/>
      <point x="487.4" y="1705.4" type="qcurve"/>
      <point x="517.0" y="1677.2"/>
      <point x="517.0" y="1637.6" type="qcurve"/>
      <point x="517.0" y="1598.2"/>
      <point x="488.6" y="1568.8" type="qcurve"/>
      <point x="460.2" y="1539.4"/>
      <point x="418.6" y="1539.4" type="qcurve"/>
      <point x="379.2" y="1539.4"/>
      <point x="351.4" y="1568.0" type="qcurve"/>
      <point x="324.2" y="1598.4"/>
      <point x="324.2" y="1637.6" type="qcurve"/>
      <point x="324.2" y="1676.0"/>
      <point x="350.4" y="1704.2" type="qcurve"/>
      <point x="379.2" y="1734.0"/>
    </contour>
  </outline>
</glyph>
<glyph name="Ntilde" format="2">
  <advance width="1571.4"/>
  <unicode hex="00D1"/>
  <outline>
    <contour>
      <point x="182.0" y="1457.4" type="line"/>
      <point x="346.2" y="1457.4" type="line"/>
      <point x="1223.4" y="282.8" type="line"/>
      <point x="1223.4" y="1457.4" type="line"/>
      <point x="1390.4" y="1457.4" type="line"/>
      <point x="1390.4" y="0.0" type="line"/>
      <point x="1228.0" y="0.0" type="line"/>
      <point x="351.0" y="1176.4" type="line"/>
      <point x="351.0" y="0.0" type="line"/>
      <point x="182.0" y="0.0" type="line"/>
    </contour>
    <contour>
      <point x="911.0" y="1543.2" type="qcurve"/>
      <point x="868.8" y="1541.0"/>
      <point x="834.0" y="1560.6" type="qcurve"/>
      <point x="807.2" y="1582.4"/>
      <point x="756.0" y="1616.6" type="qcurve"/>
      <point x="730.2" y="1647.6"/>
      <point x="705.4" y="1658.0" type="qcurve"/>
      <point x="687.6" y="1671.4"/>
      <point x="664.2" y="1668.8" type="qcurve"/>
      <point x="634.6" y="1669.6"/>
      <point x="612.6" y="1641.4" type="qcurve"/>
      <point x="589.4" y="1613.8"/>
      <point x="576.4" y="1538.2" type="qcurve"/>
      <point x="471.4" y="1552.4" type="line"/>
      <point x="503.2" y="1797.2"/>
      <point x="663.4" y="1797.2" type="qcurve"/>
      <point x="705.6" y="1799.4"/>
      <point x="737.6" y="1780.2" type="qcurve"/>
      <point x="771.6" y="1762.2"/>
      <point x="818.0" y="1724.0" type="qcurve"/>
      <point x="849.0" y="1696.8"/>
      <point x="868.6" y="1684.6" type="qcurve"/>
      <point x="892.0" y="1673.6"/>
      <point x="910.4" y="1673.6" type="qcurve"/>
      <point x="945.2" y="1674.4"/>
      <point x="964.4" y="1700.6" type="qcurve"/>
      <point x="984.8" y="1728.6"/>
      <point x="997.8" y="1802.2" type="qcurve"/>
      <point x="1104.2" y="1788.0" type="line"/>
      <point x="1071.0" y="1545.2"/>
    </contour>
  </outline>
</glyph>
<glyph name="Otilde" format="2">
  <advance width="1706.0"/>
  <unicode hex="00D5"/>
  <outline>
    <contour>
      <point x="848.4" y="-22.8" type="qcurve"/>
      <point x="652.2" y="-21.8"/>
      <point x="481.0" y="80.4" type="qcurve"/>
      <point x="309.0" y="184.2"/>
      <point x="206.0" y="355.2" type="qcurve"/>
      <point x="101.0" y="527.4"/>
      <point x="101.0" y="728.6" type="qcurve"/>
      <point x="101.0" y="932.8"/>
      <point x="206.2" y="1102.0" type="qcurve"/>
      <point x="310.8" y="1274.8"/>
      <point x="479.0" y="1377.0" type="qcurve"/>
      <point x="651.2" y="1482.2"/>
      <point x="848.4" y="1479.0" type="qcurve"/>
      <point x="1049.6" y="1481.0"/>
      <point x="1215.8" y="1379.0" type="qcurve"/>
      <point x="1384.0" y="1277.0"/>
      <point x="1487.8" y="1104.0" type="qcurve"/>
      <point x="1592.0" y="934.8"/>
      <point x="1589.0" y="728.6" type="qcurve"/>
      <point x="1591.8" y="527.6"/>
      <point x="1487.8" y="355.2" type="qcurve"/>
      <point x="1388.8" y="187.4"/>
      <point x="1217.8" y="82.4" type="qcurve"/>
      <point x="1049.6" y="-19.8"/>
    </contour>
    <contour>
      <point x="848.2" y="146.2" type="qcurve"/>
      <point x="995.0" y="149.2"/>
      <point x="1131.2" y="228.0" type="qcurve"/>
      <point x="1267.2" y="307.6"/>
      <point x="1342.0" y="442.0" type="qcurve"/>
      <point x="1423.0" y="579.0"/>
      <point x="1420.0" y="728.6" type="qcurve"/>
      <point x="1421.0" y="878.4"/>
      <point x="1342.0" y="1017.4" type="qcurve"/>
      <point x="1267.2" y="1152.6"/>
      <point x="1133.2" y="1230.4" type="qcurve"/>
      <point x="997.2" y="1310.0"/>
      <point x="848.4" y="1310.0" type="qcurve"/>
      <point x="699.6" y="1312.0"/>
      <point x="562.6" y="1232.4" type="qcurve"/>
      <point x="495.6" y="1191.4"/>
      <point x="444.0" y="1140.8" type="qcurve"/>
      <point x="392.6" y="1091.4"/>
      <point x="351.6" y="1021.4" type="qcurve"/>
      <point x="273.8" y="883.2"/>
      <point x="273.8" y="728.6" type="qcurve"/>
      <point x="271.0" y="579.0"/>
      <point x="349.4" y="442.0" type="qcurve"/>
      <point x="392.4" y="374.8"/>
      <point x="442.2" y="322.0" type="qcurve"/>
      <point x="493.8" y="269.6"/>
      <point x="560.8" y="227.8" type="qcurve"/>
      <point x="697.8" y="144.2"/>
    </contour>
    <contour>
      <point x="970.2" y="1568.0" type="qcurve"/>
      <point x="928.2" y="1565.8"/>
      <point x="893.6" y="1585.2" type="qcurve"/>
      <point x="865.6" y="1606.2"/>
      <point x="815.6" y="1640.6" type="qcurve"/>
      <point x="788.2" y="1671.4"/>
      <point x="764.4" y="1682.8" type="qcurve"/>
      <point x="746.2" y="1696.0"/>
      <point x="723.4" y="1693.4" type="qcurve"/>
      <point x="693.6" y="1693.4"/>
      <point x="671.0" y="1666.4" type="qcurve"/>
      <point x="648.8" y="1637.6"/>
      <point x="634.6" y="1562.8" type="qcurve"/>
      <point x="529.4" y="1577.2" type="line"/>
      <point x="563.4" y="1821.0"/>
      <point x="722.4" y="1821.0" type="qcurve"/>
      <point x="763.8" y="1825.2"/>
      <point x="796.0" y="1803.8" type="qcurve"/>
      <point x="829.0" y="1785.8"/>
      <point x="876.2" y="1748.6" type="qcurve"/>
      <point x="908.4" y="1720.4"/>
      <point x="927.0" y="1709.2" type="qcurve"/>
      <point x="950.4" y="1698.2"/>
      <point x="970.0" y="1697.4" type="qcurve"/>
      <point x="1004.6" y="1698.2"/>
      <point x="1022.4" y="1724.0" type="qcurve"/>
      <point x="1043.8" y="1754.0"/>
      <point x="1057.2" y="1827.2" type="qcurve"/>
      <point x="1162.2" y="1811.6" type="line"/>
      <point x="1130.4" y="1571.0"/>
    </contour>
  </outline>
</glyph>
<glyph name="multiply" format="2">
  <advance width="1058.2"/>
  <unicode hex="00D7"/>
  <outline>
    <contour>
      <point x="644.2" y="647.6" type="line"/>
      <point x="900.2" y="387.6" type="line"/>
      <point x="787.2" y="275.6" type="line"/>
      <point x="530.2" y="532.8" type="line"/>
      <point x="270.4" y="275.8" type="line"/>
      <point x="156.2" y="385.6" type="line"/>
      <point x="415.4" y="645.6" type="line"/>
      <point x="156.4" y="904.6" type="line"/>
      <point x="270.2" y="1019.6" type="line"/>
      <point x="530.2" y="759.6" type="line"/>
      <point x="789.4" y="1019.6" type="line"/>
      <point x="900.0" y="904.6" type="line"/>
    </contour>
  </outline>
</glyph>
<glyph name="Uacute" format="2">
  <advance width="1445.6"/>
  <unicode hex="00DA"/>
  <outline>
    <contour>
      <point x="724.8" y="-22.8" type="qcurve"/>
      <point x="568.4" y="-22.8"/>
      <point x="438.4" y="51.8" type="qcurve"/>
      <point x="310.8" y="129.0"/>
      <point x="240.4" y="256.0" type="qcurve"/>
      <point x="171.2" y="390.4"/>
      <point x="168.2" y="551.6" type="qcurve"/>
      <point x="168.2" y="1457.4" type="line"/>
      <point x="335.2" y="1457.4" type="line"/>
      <point x="335.2" y="551.8" type="line"/>
      <point x="335.2" y="432.6"/>
      <point x="386.4" y="335.8" type="qcurve"/>
      <point x="435.6" y="241.2"/>
      <point x="522.4" y="185.4" type="qcurve"/>
      <point x="612.0" y="133.2"/>
      <point x="724.8" y="130.4" type="qcurve"/>
      <point x="834.8" y="133.4"/>
      <point x="922.6" y="185.4" type="qcurve"/>
      <point x="1012.2" y="239.4"/>
      <point x="1062.4" y="333.8" type="qcurve"/>
      <point x="1114.6" y="430.6"/>
      <point x="1111.6" y="551.8" type="qcurve"/>
      <point x="1111.6" y="1457.4" type="line"/>
      <point x="1278.6" y="1457.4" type="line"/>
      <point x="1278.6" y="552.0" type="line"/>
      <point x="1282.6" y="390.4"/>
      <point x="1210.4" y="255.8" type="qcurve"/>
      <point x="1142.8" y="129.2"/>
      <point x="1013.4" y="51.8" type="qcurve"/>
      <point x="883.4" y="-22.8"/>
    </contour>
    <contour>
      <point x="762.0" y="1832.8" type="line"/>
      <point x="934.4" y="1792.8" type="line"/>
      <point x="649.4" y="1539.4" type="line"/>
      <point x="514.0" y="1539.4" type="line"/>
    </contour>
  </outline>
</glyph>
<glyph name="Udieresis" format="2">
  <advance width="1445.6"/>
  <unicode hex="00DC"/>
  <outline>
    <contour>
      <point x="724.8" y="-22.8" type="qcurve"/>
      <point x="568.4" y="-22.8"/>
      <point x="438.4" y="51.8" type="qcurve"/>
      <point x="310.8" y="129.0"/>
      <point x="240.4" y="256.0" type="qcurve"/>
      <point x="171.2" y="390.4"/>
      <point x="168.2" y="551.6" type="qcurve"/>
      <point x="168.2" y="1457.4" type="line"/>
      <point x="335.2" y="1457.4" type="line"/>
      <point x="335.2" y="551.8" type="line"/>
      <point x="335.2" y="432.6"/>
      <point x="386.4" y="335.8" type="qcurve"/>
      <point x="435.6" y="241.2"/>
      <point x="522.4" y="185.4" type="qcurve"/>
      <point x="612.0" y="133.2"/>
      <point x="724.8" y="130.4" type="qcurve"/>
      <point x="834.8" y="133.4"/>
      <point x="922.6" y="185.4" type="qcurve"/>
      <point x="1012.2" y="239.4"/>
      <point x="1062.4" y="333.8" type="qcurve"/>
      <point x="1114.6" y="430.6"/>
      <point x="1111.6" y="551.8" type="qcurve"/>
      <point x="1111.6" y="1457.4" type="line"/>
      <point x="1278.6" y="1457.4" type="line"/>
      <point x="1278.6" y="552.0" type="line"/>
      <point x="1282.6" y="390.4"/>
      <point x="1210.4" y="255.8" type="qcurve"/>
      <point x="1142.8" y="129.2"/>
      <point x="1013.4" y="51.8" type="qcurve"/>
      <point x="883.4" y="-22.8"/>
    </contour>
    <contour>
      <point x="540.2" y="1734.0" type="qcurve"/>
      <point x="580.6" y="1734.0"/>
      <point x="609.0" y="1705.4" type="qcurve"/>
      <point x="638.4" y="1677.2"/>
      <point x="638.4" y="1635.8" type="qcurve"/>
      <point x="639.6" y="1596.2"/>
      <point x="610.0" y="1567.6" type="qcurve"/>
      <point x="580.4" y="1539.4"/>
      <point x="540.2" y="1539.4" type="qcurve"/>
      <point x="501.8" y="1539.4"/>
      <point x="472.4" y="1566.6" type="qcurve"/>
      <point x="443.8" y="1596.4"/>
      <point x="443.8" y="1635.4" type="qcurve"/>
      <point x="442.6" y="1676.0"/>
      <point x="471.4" y="1704.4" type="qcurve"/>
      <point x="500.8" y="1734.0"/>
    </contour>
    <contour>
      <point x="906.6" y="1734.0" type="qcurve"/>
      <point x="947.2" y="1734.0"/>
      <point x="975.6" y="1705.4" type="qcurve"/>
      <point x="1005.0" y="1677.2"/>
      <point x="1005.0" y="1637.6" type="qcurve"/>
      <point x="1005.0" y="1598.2"/>
      <point x="976.6" y="1568.8" type="qcurve"/>
      <point x="948.2" y="1539.4"/>
      <point x="906.6" y="1539.4" type="qcurve"/>
      <point x="867.2" y="1539.4"/>
      <point x="839.4" y="1568.0" type="qcurve"/>
      <point x="812.4" y="1598.4"/>
      <point x="812.4" y="1637.6" type="qcurve"/>
      <point x="812.4" y="1676.0"/>
      <point x="838.4" y="1704.2" type="qcurve"/>
      <point x="867.2" y="1734.0"/>
    </contour>
  </outline>
</glyph>
<glyph name="Yacute" format="2">
  <advance width="1409.8"/>
  <unicode hex="00DD"/>
  <outline>
    <contour>
      <point x="617.6" y="593.4" type="line"/>
      <point x="30.4" y="1457.4" type="line"/>
      <point x="236.8" y="1457.4" type="line"/>
      <point x="709.8" y="767.2" type="line"/>
      <point x="1175.4" y="1457.4" type="line"/>
      <point x="1375.8" y="1457.4" type="line"/>
      <point x="792.6" y="593.4" type="line"/>
      <point x="792.6" y="0.0" type="line"/>
      <point x="617.6" y="0.0" type="line"/>
    </contour>
    <contour>
      <point x="741.2" y="1832.8" type="line"/>
      <point x="914.8" y="1792.8" type="line"/>
      <point x="628.6" y="1539.4" type="line"/>
      <point x="493.2" y="1539.4" type="line"/>
    </contour>
  </outline>
</glyph>
<glyph name="Thorn" format="2">
  <advance width="1249.8"/>
  <unicode hex="00DE"/>
  <outline>
    <contour>
      <point x="154.4" y="1327.0" type="line"/>
      <point x="324.2" y="1327.0" type="line"/>
      <point x="324.2" y="1096.8" type="line"/>
      <point x="694.2" y="1096.8" type="line"/>
      <point x="834.8" y="1096.8"/>
      <point x="943.2" y="1042.4" type="qcurve"/>
      <point x="1058.6" y="990.0"/>
      <point x="1119.2" y="890.0" type="qcurve"/>
      <point x="1189.0" y="793.0"/>
      <point x="1187.8" y="669.6" type="qcurve"/>
      <point x="1190.8" y="544.8"/>
      <point x="1121.0" y="447.8" type="qcurve"/>
      <point x="1057.6" y="350.0"/>
      <point x="943.6" y="292.4" type="qcurve"/>
      <point x="834.6" y="239.0"/>
      <point x="694.0" y="241.0" type="qcurve"/>
      <point x="320.4" y="241.0" type="line"/>
      <point x="320.4" y="0.0" type="line"/>
      <point x="154.4" y="0.0" type="line"/>
    </contour>
    <contour>
      <point x="669.6" y="399.2" type="line"/>
      <point x="829.4" y="400.2"/>
      <point x="921.6" y="472.2" type="qcurve"/>
      <point x="1018.8" y="545.6"/>
      <point x="1018.8" y="669.6" type="qcurve"/>
      <point x="1021.6" y="795.0"/>
      <point x="923.8" y="864.4" type="qcurve"/>
      <point x="828.4" y="940.6"/>
      <point x="669.8" y="937.6" type="qcurve"/>
      <point x="320.4" y="937.6" type="line"/>
      <point x="320.4" y="399.2" type="line"/>
    </contour>
  </outline>
</glyph>
<glyph name="germandbls" format="2">
  <advance width="1120.8"/>
  <unicode hex="00DF"/>
  <outline>
    <contour>
      <point x="164.2" y="1012.2" type="line"/>
      <point x="162.2" y="1113.8"/>
      <point x="216.2" y="1193.4" type="qcurve"/>
      <point x="271.0" y="1277.4"/>
      <point x="362.4" y="1320.0" type="qcurve"/>
      <point x="455.8" y="1365.4"/>
      <point x="572.8" y="1365.4" type="qcurve"/>
      <point x="689.6" y="1365.4"/>
      <point x="779.4" y="1320.0" type="qcurve"/>
      <point x="871.6" y="1277.4"/>
      <point x="924.4" y="1195.2" type="qcurve"/>
      <point x="979.4" y="1113.8"/>
      <point x="977.4" y="1012.2" type="qcurve"/>
      <point x="980.4" y="808.4"/>
      <point x="801.4" y="704.8" type="qcurve"/>
      <point x="901.2" y="657.0"/>
      <point x="964.6" y="568.4" type="qcurve"/>
      <point x="1032.6" y="481.0"/>
      <point x="1029.8" y="368.0" type="qcurve"/>
      <point x="1032.6" y="263.6"/>
      <point x="977.8" y="178.4" type="qcurve"/>
      <point x="929.2" y="96.4"/>
      <point x="838.0" y="47.6" type="qcurve"/>
      <point x="749.0" y="0.0"/>
      <point x="631.0" y="0.0" type="qcurve"/>
      <point x="455.6" y="0.0" type="line"/>
      <point x="455.6" y="152.2" type="line"/>
      <point x="592.6" y="152.2" type="line"/>
      <point x="710.4" y="153.2"/>
      <point x="784.8" y="218.8" type="qcurve"/>
      <point x="863.6" y="286.2"/>
      <point x="860.8" y="385.8" type="qcurve"/>
      <point x="863.6" y="489.2"/>
      <point x="786.8" y="553.8" type="qcurve"/>
      <point x="713.4" y="619.4"/>
      <point x="592.6" y="619.4" type="qcurve"/>
      <point x="455.6" y="619.4" type="line"/>
      <point x="455.6" y="772.6" type="line"/>
      <point x="570.8" y="772.6" type="line"/>
      <point x="639.2" y="772.6"/>
      <point x="689.6" y="803.2" type="qcurve"/>
      <point x="746.0" y="832.6"/>
      <point x="777.0" y="880.8" type="qcurve"/>
      <point x="808.4" y="934.6"/>
      <point x="808.4" y="991.4" type="qcurve"/>
      <point x="810.4" y="1090.0"/>
      <point x="742.2" y="1148.6" type="qcurve"/>
      <point x="676.4" y="1211.2"/>
      <point x="570.6" y="1211.2" type="qcurve"/>
      <point x="467.8" y="1214.0"/>
      <point x="398.4" y="1148.8" type="qcurve"/>
      <point x="331.2" y="1088.2"/>
      <point x="331.2" y="987.6" type="qcurve"/>
      <point x="331.2" y="0.0" type="line"/>
      <point x="164.2" y="0.0" type="line"/>
    </contour>
  </outline>
</glyph>
<glyph name="atilde" format="2">
  <advance width="1239.0"/>
  <unicode hex="00E3"/>
  <outline>
    <contour>
      <point x="596.4" y="122.6" type="qcurve"/>
      <point x="690.2" y="125.6"/>
      <point x="762.4" y="171.4" type="qcurve"/>
      <point x="836.2" y="219.4"/>
      <point x="876.4" y="303.0" type="qcurve"/>
      <point x="919.0" y="392.8"/>
      <point x="918.0" y="501.4" type="qcurve"/>
      <point x="919.0" y="614.8"/>
      <point x="876.4" y="697.8" type="qcurve"/>
      <point x="836.2" y="785.4"/>
      <point x="762.4" y="831.6" type="qcurve"/>
      <point x="690.4" y="881.2"/>
      <point x="596.4" y="879.4" type="qcurve"/>
      <point x="506.4" y="881.2"/>
      <point x="431.6" y="831.2" type="qcurve"/>
      <point x="356.8" y="785.4"/>
      <point x="315.4" y="698.0" type="qcurve"/>
      <point x="275.8" y="614.8"/>
      <point x="275.8" y="501.4" type="qcurve"/>
      <point x="275.8" y="392.8"/>
      <point x="315.6" y="305.0" type="qcurve"/>
      <point x="357.8" y="221.2"/>
      <point x="429.6" y="171.4" type="qcurve"/>
      <point x="507.2" y="125.6"/>
    </contour>
    <contour>
      <point x="1080.0" y="1002.8" type="line"/>
      <point x="1080.0" y="0.0" type="line"/>
      <point x="918.0" y="0.0" type="line"/>
      <point x="918.0" y="159.4" type="line"/>
      <point x="879.0" y="92.6"/>
      <point x="785.2" y="35.0" type="qcurve"/>
      <point x="692.0" y="-22.8"/>
      <point x="570.8" y="-22.8" type="qcurve"/>
      <point x="440.6" y="-24.8"/>
      <point x="334.4" y="44.0" type="qcurve"/>
      <point x="229.4" y="113.4"/>
      <point x="167.2" y="232.6" type="qcurve"/>
      <point x="109.0" y="356.8"/>
      <point x="105.0" y="501.4" type="qcurve"/>
      <point x="108.8" y="651.8"/>
      <point x="167.2" y="771.4" type="qcurve"/>
      <point x="229.4" y="894.4"/>
      <point x="332.6" y="958.8" type="qcurve"/>
      <point x="441.4" y="1028.6"/>
      <point x="570.8" y="1027.6" type="qcurve"/>
      <point x="689.0" y="1028.6"/>
      <point x="783.2" y="971.8" type="qcurve"/>
      <point x="878.0" y="915.2"/>
      <point x="918.0" y="845.2" type="qcurve"/>
      <point x="918.0" y="1002.8" type="line"/>
    </contour>
    <contour>
      <point x="716.4" y="1114.4" type="qcurve"/>
      <point x="673.0" y="1112.4"/>
      <point x="640.6" y="1131.8" type="qcurve"/>
      <point x="612.8" y="1152.8"/>
      <point x="562.6" y="1186.8" type="qcurve"/>
      <point x="535.4" y="1216.8"/>
      <point x="510.4" y="1228.6" type="qcurve"/>
      <point x="492.8" y="1242.6"/>
      <point x="469.6" y="1240.0" type="qcurve"/>
      <point x="439.2" y="1240.8"/>
      <point x="418.2" y="1212.8" type="qcurve"/>
      <point x="395.8" y="1185.2"/>
      <point x="381.6" y="1108.2" type="qcurve"/>
      <point x="276.6" y="1123.8" type="line"/>
      <point x="309.6" y="1368.6"/>
      <point x="468.6" y="1367.4" type="qcurve"/>
      <point x="509.8" y="1370.6"/>
      <point x="542.8" y="1350.2" type="qcurve"/>
      <point x="576.0" y="1331.2"/>
      <point x="623.0" y="1295.2" type="qcurve"/>
      <point x="655.4" y="1267.8"/>
      <point x="674.2" y="1255.6" type="qcurve"/>
      <point x="697.4" y="1244.0"/>
      <point x="716.0" y="1244.0" type="qcurve"/>
      <point x="749.8" y="1244.0"/>
      <point x="769.8" y="1270.8" type="qcurve"/>
      <point x="791.0" y="1300.6"/>
      <point x="804.4" y="1372.4" type="qcurve"/>
      <point x="909.4" y="1358.2" type="line"/>
      <point x="877.4" y="1117.4"/>
    </contour>
  </outline>
</glyph>
<glyph name="adieresis" format="2">
  <advance width="1239.0"/>
  <unicode hex="00E4"/>
  <outline>
    <contour>
      <point x="596.4" y="122.6" type="qcurve"/>
      <point x="690.2" y="125.6"/>
      <point x="762.4" y="171.4" type="qcurve"/>
      <point x="836.2" y="219.4"/>
      <point x="876.4" y="303.0" type="qcurve"/>
      <point x="919.0" y="392.8"/>
      <point x="918.0" y="501.4" type="qcurve"/>
      <point x="919.0" y="614.8"/>
      <point x="876.4" y="697.8" type="qcurve"/>
      <point x="836.2" y="785.4"/>
      <point x="762.4" y="831.6" type="qcurve"/>
      <point x="690.4" y="881.2"/>
      <point x="596.4" y="879.4" type="qcurve"/>
      <point x="506.4" y="881.2"/>
      <point x="431.6" y="831.2" type="qcurve"/>
      <point x="356.8" y="785.4"/>
      <point x="315.4" y="698.0" type="qcurve"/>
      <point x="275.8" y="614.8"/>
      <point x="275.8" y="501.4" type="qcurve"/>
      <point x="275.8" y="392.8"/>
      <point x="315.6" y="305.0" type="qcurve"/>
      <point x="357.8" y="221.2"/>
      <point x="429.6" y="171.4" type="qcurve"/>
      <point x="507.2" y="125.6"/>
    </contour>
    <contour>
      <point x="1080.0" y="1002.8" type="line"/>
      <point x="1080.0" y="0.0" type="line"/>
      <point x="918.0" y="0.0" type="line"/>
      <point x="918.0" y="159.4" type="line"/>
      <point x="879.0" y="92.6"/>
      <point x="785.2" y="35.0" type="qcurve"/>
      <point x="692.0" y="-22.8"/>
      <point x="570.8" y="-22.8" type="qcurve"/>
      <point x="440.6" y="-24.8"/>
      <point x="334.4" y="44.0" type="qcurve"/>
      <point x="229.4" y="113.4"/>
      <point x="167.2" y="232.6" type="qcurve"/>
      <point x="109.0" y="356.8"/>
      <point x="105.0" y="501.4" type="qcurve"/>
      <point x="108.8" y="651.8"/>
      <point x="167.2" y="771.4" type="qcurve"/>
      <point x="229.4" y="894.4"/>
      <point x="332.6" y="958.8" type="qcurve"/>
      <point x="441.4" y="1028.6"/>
      <point x="570.8" y="1027.6" type="qcurve"/>
      <point x="689.0" y="1028.6"/>
      <point x="783.2" y="971.8" type="qcurve"/>
      <point x="878.0" y="915.2"/>
      <point x="918.0" y="845.2" type="qcurve"/>
      <point x="918.0" y="1002.8" type="line"/>
    </contour>
    <contour>
      <point x="408.8" y="1305.2" type="qcurve"/>
      <point x="449.2" y="1305.2"/>
      <point x="477.8" y="1275.6" type="qcurve"/>
      <point x="507.0" y="1246.2"/>
      <point x="507.0" y="1206.8" type="qcurve"/>
      <point x="507.0" y="1167.6"/>
      <point x="478.8" y="1138.0" type="qcurve"/>
      <point x="450.0" y="1109.6"/>
      <point x="408.8" y="1109.6" type="qcurve"/>
      <point x="369.2" y="1109.6"/>
      <point x="340.8" y="1138.0" type="qcurve"/>
      <point x="312.4" y="1167.6"/>
      <point x="312.4" y="1206.8" type="qcurve"/>
      <point x="312.4" y="1246.2"/>
      <point x="339.8" y="1275.6" type="qcurve"/>
      <point x="369.4" y="1305.2"/>
    </contour>
    <contour>
      <point x="775.2" y="1305.2" type="qcurve"/>
      <point x="815.8" y="1305.2"/>
      <point x="844.2" y="1275.6" type="qcurve"/>
      <point x="873.6" y="1246.2"/>
      <point x="873.6" y="1209.0" type="qcurve"/>
      <point x="874.8" y="1169.6"/>
      <point x="845.2" y="1139.0" type="qcurve"/>
      <point x="815.6" y="1109.6"/>
      <point x="775.2" y="1109.6" type="qcurve"/>
      <point x="736.8" y="1109.6"/>
      <point x="708.0" y="1139.2" type="qcurve"/>
      <point x="682.0" y="1169.6"/>
      <point x="681.0" y="1208.8" type="qcurve"/>
      <point x="681.0" y="1246.0"/>
      <point x="707.2" y="1275.4" type="qcurve"/>
      <point x="735.8" y="1305.2"/>
    </contour>
  </outline>
</glyph>
<glyph name="aring" format="2">
  <advance width="1239.0"/>
  <unicode hex="00E5"/>
  <outline>
    <contour>
      <point x="596.4" y="122.6" type="qcurve"/>
      <point x="690.2" y="125.6"/>
      <point x="762.4" y="171.4" type="qcurve"/>
      <point x="836.2" y="219.4"/>
      <point x="876.4" y="303.0" type="qcurve"/>
      <point x="919.0" y="392.8"/>
      <point x="918.0" y="501.4" type="qcurve"/>
      <point x="919.0" y="614.8"/>
      <point x="876.4" y="697.8" type="qcurve"/>
      <point x="836.2" y="785.4"/>
      <point x="762.4" y="831.6" type="qcurve"/>
      <point x="690.4" y="881.2"/>
      <point x="596.4" y="879.4" type="qcurve"/>
      <point x="506.4" y="881.2"/>
      <point x="431.6" y="831.2" type="qcurve"/>
      <point x="356.8" y="785.4"/>
      <point x="315.4" y="698.0" type="qcurve"/>
      <point x="275.8" y="614.8"/>
      <point x="275.8" y="501.4" type="qcurve"/>
      <point x="275.8" y="392.8"/>
      <point x="315.6" y="305.0" type="qcurve"/>
      <point x="357.8" y="221.2"/>
      <point x="429.6" y="171.4" type="qcurve"/>
      <point x="507.2" y="125.6"/>
    </contour>
    <contour>
      <point x="1080.0" y="1002.8" type="line"/>
      <point x="1080.0" y="0.0" type="line"/>
      <point x="918.0" y="0.0" type="line"/>
      <point x="918.0" y="159.4" type="line"/>
      <point x="879.0" y="92.6"/>
      <point x="785.2" y="35.0" type="qcurve"/>
      <point x="692.0" y="-22.8"/>
      <point x="570.8" y="-22.8" type="qcurve"/>
      <point x="440.6" y="-24.8"/>
      <point x="334.4" y="44.0" type="qcurve"/>
      <point x="229.4" y="113.4"/>
      <point x="167.2" y="232.6" type="qcurve"/>
      <point x="109.0" y="356.8"/>
      <point x="105.0" y="501.4" type="qcurve"/>
      <point x="108.8" y="651.8"/>
      <point x="167.2" y="771.4" type="qcurve"/>
      <point x="229.4" y="894.4"/>
      <point x="332.6" y="958.8" type="qcurve"/>
      <point x="441.4" y="1028.6"/>
      <point x="570.8" y="1027.6" type="qcurve"/>
      <point x="689.0" y="1028.6"/>
      <point x="783.2" y="971.8" type="qcurve"/>
      <point x="878.0" y="915.2"/>
      <point x="918.0" y="845.2" type="qcurve"/>
      <point x="918.0" y="1002.8" type="line"/>
    </contour>
    <contour>
      <point x="592.6" y="1109.6" type="qcurve"/>
      <point x="508.6" y="1110.6"/>
      <point x="446.8" y="1169.4" type="qcurve"/>
      <point x="387.6" y="1228.6"/>
      <point x="386.4" y="1315.6" type="qcurve"/>
      <point x="387.4" y="1402.6"/>
      <point x="446.6" y="1460.6" type="qcurve"/>
      <point x="508.8" y="1522.6"/>
      <point x="592.6" y="1521.6" type="qcurve"/>
      <point x="681.4" y="1522.6"/>
      <point x="739.6" y="1460.4" type="qcurve"/>
      <point x="798.6" y="1402.4"/>
      <point x="798.6" y="1315.6" type="qcurve"/>
      <point x="798.6" y="1228.6"/>
      <point x="739.4" y="1169.6" type="qcurve"/>
      <point x="681.6" y="1110.6"/>
    </contour>
    <contour>
      <point x="592.6" y="1214.2" type="qcurve"/>
      <point x="634.2" y="1214.2"/>
      <point x="665.2" y="1243.2" type="qcurve"/>
      <point x="697.8" y="1274.0"/>
      <point x="696.8" y="1315.6" type="qcurve"/>
      <point x="696.8" y="1359.0"/>
      <point x="667.0" y="1387.8" type="qcurve"/>
      <point x="636.2" y="1417.8"/>
      <point x="592.4" y="1417.8" type="qcurve"/>
      <point x="551.8" y="1418.8"/>
      <point x="522.2" y="1390.0" type="qcurve"/>
      <point x="493.0" y="1359.2"/>
      <point x="491.2" y="1315.4" type="qcurve"/>
      <point x="491.2" y="1273.8"/>
      <point x="519.8" y="1243.2" type="qcurve"/>
      <point x="552.6" y="1214.2"/>
    </contour>
  </outline>
</glyph>
<glyph name="ae" format="2">
  <advance width="1865.4"/>
  <unicode hex="00E6"/>
  <outline>
    <contour>
      <point x="1311.8" y="122.6" type="qcurve"/>
      <point x="1397.0" y="125.6"/>
      <point x="1484.4" y="155.6" type="qcurve"/>
      <point x="1574.0" y="190.4"/>
      <point x="1624.0" y="246.6" type="qcurve"/>
      <point x="1723.8" y="138.8" type="line"/>
      <point x="1653.2" y="62.6"/>
      <point x="1538.2" y="20.4" type="qcurve"/>
      <point x="1424.4" y="-19.8"/>
      <point x="1314.0" y="-22.8" type="qcurve"/>
      <point x="1189.0" y="-24.8"/>
      <point x="1074.0" y="37.6" type="qcurve"/>
      <point x="963.4" y="103.2"/>
      <point x="901.0" y="196.6" type="qcurve"/>
      <point x="844.2" y="106.0"/>
      <point x="731.8" y="41.8" type="qcurve"/>
      <point x="624.8" y="-24.8"/>
      <point x="489.8" y="-22.8" type="qcurve"/>
      <point x="310.6" y="-24.8"/>
      <point x="204.2" y="60.6" type="qcurve"/>
      <point x="101.0" y="149.4"/>
      <point x="101.0" y="298.6" type="qcurve"/>
      <point x="99.0" y="398.6"/>
      <point x="152.0" y="476.0" type="qcurve"/>
      <point x="207.0" y="555.4"/>
      <point x="297.0" y="595.0" type="qcurve"/>
      <point x="390.8" y="639.2"/>
      <point x="495.6" y="638.2" type="qcurve"/>
      <point x="645.4" y="638.2"/>
      <point x="806.4" y="585.6" type="qcurve"/>
      <point x="806.4" y="609.2" type="line"/>
      <point x="808.4" y="725.6"/>
      <point x="746.8" y="806.2" type="qcurve"/>
      <point x="690.4" y="888.2"/>
      <point x="547.8" y="885.2" type="qcurve"/>
      <point x="485.4" y="888.2"/>
      <point x="417.6" y="863.0" type="qcurve"/>
      <point x="349.2" y="840.4"/>
      <point x="258.4" y="793.2" type="qcurve"/>
      <point x="191.4" y="924.2" type="line"/>
      <point x="392.6" y="1027.6"/>
      <point x="558.0" y="1027.6" type="qcurve"/>
      <point x="694.0" y="1028.6"/>
      <point x="784.0" y="973.8" type="qcurve"/>
      <point x="880.4" y="919.0"/>
      <point x="916.6" y="838.2" type="qcurve"/>
      <point x="975.4" y="919.8"/>
      <point x="1078.2" y="972.2" type="qcurve"/>
      <point x="1183.8" y="1028.6"/>
      <point x="1301.8" y="1027.6" type="qcurve"/>
      <point x="1525.8" y="1027.6"/>
      <point x="1651.0" y="869.8" type="qcurve"/>
      <point x="1779.8" y="713.2"/>
      <point x="1776.4" y="439.6" type="qcurve"/>
      <point x="971.6" y="439.6" type="line"/>
      <point x="987.8" y="305.2"/>
      <point x="1077.2" y="214.8" type="qcurve"/>
      <point x="1171.2" y="125.4"/>
    </contour>
    <contour>
      <point x="1305.8" y="879.4" type="qcurve"/>
      <point x="1177.0" y="881.2"/>
      <point x="1082.8" y="796.8" type="qcurve"/>
      <point x="992.6" y="714.0"/>
      <point x="973.8" y="584.0" type="qcurve"/>
      <point x="1617.6" y="584.0" type="line"/>
      <point x="1605.0" y="714.4"/>
      <point x="1523.4" y="795.2" type="qcurve"/>
      <point x="1448.0" y="879.4"/>
    </contour>
    <contour>
      <point x="511.4" y="119.6" type="qcurve"/>
      <point x="590.0" y="119.6"/>
      <point x="657.2" y="157.0" type="qcurve"/>
      <point x="728.0" y="198.0"/>
      <point x="765.4" y="261.2" type="qcurve"/>
      <point x="806.4" y="324.4"/>
      <point x="806.4" y="396.6" type="qcurve"/>
      <point x="806.4" y="461.4" type="line"/>
      <point x="668.2" y="498.0"/>
      <point x="517.4" y="498.0" type="qcurve"/>
      <point x="410.8" y="498.0"/>
      <point x="333.2" y="443.4" type="qcurve"/>
      <point x="258.0" y="389.8"/>
      <point x="258.0" y="304.8" type="qcurve"/>
      <point x="258.0" y="221.6"/>
      <point x="323.6" y="171.0" type="qcurve"/>
      <point x="392.2" y="119.6"/>
    </contour>
  </outline>
</glyph>
<glyph name="ccedilla" format="2">
  <advance width="1059.2"/>
  <unicode hex="00E7"/>
  <outline>
    <contour>
      <point x="615.0" y="-22.8" type="qcurve"/>
      <point x="478.2" y="-19.8"/>
      <point x="357.4" y="49.8" type="qcurve"/>
      <point x="239.8" y="121.0"/>
      <point x="167.4" y="241.6" type="qcurve"/>
      <point x="97.0" y="364.6"/>
      <point x="97.0" y="501.4" type="qcurve"/>
      <point x="97.0" y="644.2"/>
      <point x="165.6" y="763.0" type="qcurve"/>
      <point x="238.0" y="887.8"/>
      <point x="357.4" y="955.2" type="qcurve"/>
      <point x="478.2" y="1027.6"/>
      <point x="615.2" y="1027.6" type="qcurve"/>
      <point x="716.8" y="1027.6"/>
      <point x="807.6" y="988.2" type="qcurve"/>
      <point x="902.0" y="949.0"/>
      <point x="979.4" y="871.8" type="qcurve"/>
      <point x="867.6" y="761.2" type="line"/>
      <point x="815.0" y="822.6"/>
      <point x="748.8" y="851.4" type="qcurve"/>
      <point x="688.2" y="879.4"/>
      <point x="615.0" y="879.4" type="qcurve"/>
      <point x="522.0" y="881.2"/>
      <point x="441.4" y="829.4" type="qcurve"/>
      <point x="360.4" y="779.2"/>
      <point x="311.2" y="689.6" type="qcurve"/>
      <point x="266.0" y="603.0"/>
      <point x="266.0" y="501.4" type="qcurve"/>
      <point x="264.0" y="401.0"/>
      <point x="309.2" y="313.2" type="qcurve"/>
      <point x="358.4" y="227.6"/>
      <point x="439.4" y="175.4" type="qcurve"/>
      <point x="523.2" y="125.6"/>
      <point x="615.4" y="122.6" type="qcurve"/>
      <point x="689.2" y="122.6"/>
      <point x="750.6" y="151.2" type="qcurve"/>
      <point x="815.8" y="183.0"/>
      <point x="871.6" y="248.4" type="qcurve"/>
      <point x="985.2" y="136.8" type="line"/>
      <point x="908.2" y="60.8"/>
      <point x="813.6" y="18.6" type="qcurve"/>
      <point x="721.0" y="-21.8"/>
    </contour>
    <contour>
      <point x="585.2" y="-212.4" type="qcurve"/>
      <point x="647.4" y="-210.2"/>
      <point x="685.6" y="-246.4" type="qcurve"/>
      <point x="730.6" y="-282.6"/>
      <point x="727.4" y="-345.4" type="qcurve"/>
      <point x="728.4" y="-418.0"/>
      <point x="669.4" y="-464.2" type="qcurve"/>
      <point x="615.6" y="-507.8"/>
      <point x="530.4" y="-508.8" type="qcurve"/>
      <point x="484.2" y="-508.8"/>
      <point x="435.4" y="-493.6" type="qcurve"/>
      <point x="388.6" y="-477.0"/>
      <point x="350.4" y="-449.0" type="qcurve"/>
      <point x="395.2" y="-352.8" type="line"/>
      <point x="459.4" y="-399.4"/>
      <point x="524.6" y="-402.0" type="qcurve"/>
      <point x="561.6" y="-402.0"/>
      <point x="584.8" y="-384.2" type="qcurve"/>
      <point x="610.4" y="-363.8"/>
      <point x="607.6" y="-339.4" type="qcurve"/>
      <point x="610.2" y="-312.0"/>
      <point x="592.2" y="-298.8" type="qcurve"/>
      <point x="574.8" y="-280.6"/>
      <point x="542.2" y="-281.6" type="qcurve"/>
      <point x="511.0" y="-280.8"/>
      <point x="479.4" y="-307.8" type="qcurve"/>
      <point x="438.4" y="-264.2" type="line"/>
      <point x="505.2" y="-104.8" type="line"/>
      <point x="623.2" y="-104.8" type="line"/>
      <point x="582.8" y="-204.2" type="line"/>
      <point x="571.4" y="-210.0"/>
    </contour>
  </outline>
</glyph>
<glyph name="ecircumflex" format="2">
  <advance width="1157.2"/>
  <unicode hex="00EA"/>
  <outline>
    <contour>
      <point x="603.4" y="122.6" type="qcurve"/>
      <point x="689.4" y="125.6"/>
      <point x="773.8" y="155.6" type="qcurve"/>
      <point x="863.6" y="190.2"/>
      <point x="912.4" y="246.8" type="qcurve"/>
      <point x="1012.4" y="139.0" type="line"/>
      <point x="943.8" y="62.8"/>
      <point x="828.8" y="20.4" type="qcurve"/>
      <point x="715.0" y="-19.8"/>
      <point x="605.4" y="-22.8" type="qcurve"/>
      <point x="469.4" y="-22.8"/>
      <point x="352.6" y="45.8" type="qcurve"/>
      <point x="238.0" y="113.2"/>
      <point x="167.4" y="234.0" type="qcurve"/>
      <point x="97.0" y="356.8"/>
      <point x="97.0" y="503.4" type="qcurve"/>
      <point x="95.0" y="651.8"/>
      <point x="161.4" y="770.0" type="qcurve"/>
      <point x="229.8" y="892.6"/>
      <point x="340.6" y="959.0" type="qcurve"/>
      <point x="457.4" y="1028.6"/>
      <point x="590.6" y="1027.6" type="qcurve"/>
      <point x="816.4" y="1027.6"/>
      <point x="940.6" y="869.8" type="qcurve"/>
      <point x="1068.2" y="713.2"/>
      <point x="1068.2" y="439.6" type="qcurve"/>
      <point x="263.2" y="439.6" type="line"/>
      <point x="277.4" y="305.2"/>
      <point x="368.8" y="214.8" type="qcurve"/>
      <point x="463.8" y="125.4"/>
    </contour>
    <contour>
      <point x="596.4" y="879.4" type="qcurve"/>
      <point x="466.6" y="881.2"/>
      <point x="374.6" y="796.8" type="qcurve"/>
      <point x="284.2" y="714.0"/>
      <point x="265.4" y="584.0" type="qcurve"/>
      <point x="906.2" y="584.0" type="line"/>
      <point x="893.8" y="714.4"/>
      <point x="813.0" y="795.4" type="qcurve"/>
      <point x="736.6" y="879.4"/>
    </contour>
    <contour>
      <point x="508.8" y="1390.2" type="line"/>
      <point x="652.6" y="1390.2" type="line"/>
      <point x="860.0" y="1109.6" type="line"/>
      <point x="726.6" y="1109.6" type="line"/>
      <point x="580.6" y="1267.0" type="line"/>
      <point x="436.6" y="1109.6" type="line"/>
      <point x="305.4" y="1109.6" type="line"/>
    </contour>
  </outline>
</glyph>
<glyph name="igrave" format="2">
  <advance width="462.6"/>
  <unicode hex="00EC"/>
  <outline>
    <contour>
      <point x="146.4" y="1002.8" type="line"/>
      <point x="308.4" y="1002.8" type="line"/>
      <point x="308.4" y="0.0" type="line"/>
      <point x="146.4" y="0.0" type="line"/>
    </contour>
    <contour>
      <point x="17.4" y="1338.4" type="line"/>
      <point x="193.0" y="1378.4" type="line"/>
      <point x="437.6" y="1084.8" type="line"/>
      <point x="305.4" y="1084.8" type="line"/>
    </contour>
  </outline>
</glyph>
<glyph name="iacute" format="2">
  <advance width="462.4"/>
  <unicode hex="00ED"/>
  <outline>
    <contour>
      <point x="146.4" y="1002.8" type="line"/>
      <point x="308.4" y="1002.8" type="line"/>
      <point x="308.4" y="0.0" type="line"/>
      <point x="146.4" y="0.0" type="line"/>
    </contour>
    <contour>
      <point x="265.0" y="1378.2" type="line"/>
      <point x="437.4" y="1338.4" type="line"/>
      <point x="152.4" y="1084.8" type="line"/>
      <point x="17.0" y="1084.8" type="line"/>
    </contour>
  </outline>
</glyph>
<glyph name="idieresis" format="2">
  <advance width="451.0"/>
  <unicode hex="00EF"/>
  <outline>
    <contour>
      <point x="146.4" y="1002.8" type="line"/>
      <point x="308.4" y="1002.8" type="line"/>
      <point x="308.4" y="0.0" type="line"/>
      <point x="146.4" y="0.0" type="line"/>
    </contour>
    <contour>
      <point x="43.2" y="1279.4" type="qcurve"/>
      <point x="84.6" y="1279.4"/>
      <point x="112.0" y="1251.2" type="qcurve"/>
      <point x="141.4" y="1222.6"/>
      <point x="141.4" y="1181.4" type="qcurve"/>
      <point x="143.6" y="1141.8"/>
      <point x="113.0" y="1113.2" type="qcurve"/>
      <point x="84.4" y="1084.8"/>
      <point x="43.2" y="1084.8" type="qcurve"/>
      <point x="6.0" y="1084.8"/>
      <point x="-24.4" y="1112.2" type="qcurve"/>
      <point x="-53.2" y="1141.8"/>
      <point x="-53.2" y="1181.2" type="qcurve"/>
      <point x="-53.2" y="1222.6"/>
      <point x="-25.6" y="1250.0" type="qcurve"/>
      <point x="3.8000000000000007" y="1279.4"/>
    </contour>
    <contour>
      <point x="409.8" y="1279.4" type="qcurve"/>
      <point x="450.2" y="1279.4"/>
      <point x="478.6" y="1251.0" type="qcurve"/>
      <point x="508.0" y="1222.6"/>
      <point x="508.0" y="1183.4" type="qcurve"/>
      <point x="509.2" y="1143.6"/>
      <point x="479.8" y="1114.6" type="qcurve"/>
      <point x="452.4" y="1084.8"/>
      <point x="409.8" y="1084.8" type="qcurve"/>
      <point x="371.2" y="1084.8"/>
      <point x="342.6" y="1113.6" type="qcurve"/>
      <point x="316.4" y="1143.8"/>
      <point x="315.4" y="1183.2" type="qcurve"/>
      <point x="315.4" y="1222.4"/>
      <point x="341.6" y="1250.0" type="qcurve"/>
      <point x="371.4" y="1279.4"/>
    </contour>
  </outline>
</glyph>
<glyph name="eth" format="2">
  <advance width="1217.8"/>
  <unicode hex="00F0"/>
  <outline>
    <contour>
      <point x="773.2" y="1165.6" type="qcurve"/>
      <point x="932.0" y="1017.2"/>
      <point x="1018.8" y="860.6" type="qcurve"/>
      <point x="1105.8" y="708.4"/>
      <point x="1102.8" y="522.2" type="qcurve"/>
      <point x="1105.8" y="369.0"/>
      <point x="1042.6" y="242.6" type="qcurve"/>
      <point x="984.2" y="118.6"/>
      <point x="869.0" y="47.8" type="qcurve"/>
      <point x="757.2" y="-21.6"/>
      <point x="613.2" y="-22.8" type="qcurve"/>
      <point x="471.6" y="-24.8"/>
      <point x="357.6" y="41.8" type="qcurve"/>
      <point x="245.6" y="109.4"/>
      <point x="181.4" y="221.0" type="qcurve"/>
      <point x="117.8" y="337.0"/>
      <point x="117.8" y="483.6" type="qcurve"/>
      <point x="118.8" y="624.4"/>
      <point x="177.2" y="731.0" type="qcurve"/>
      <point x="233.4" y="842.2"/>
      <point x="336.6" y="904.8" type="qcurve"/>
      <point x="442.8" y="969.4"/>
      <point x="572.8" y="966.2" type="qcurve"/>
      <point x="762.8" y="967.2"/>
      <point x="845.4" y="869.6" type="qcurve"/>
      <point x="804.4" y="952.0"/>
      <point x="631.4" y="1100.2" type="qcurve"/>
      <point x="396.2" y="997.8" type="line"/>
      <point x="334.8" y="1132.6" type="line"/>
      <point x="503.8" y="1207.0" type="line"/>
      <point x="413.4" y="1274.2"/>
      <point x="348.0" y="1315.2" type="qcurve"/>
      <point x="512.6" y="1385.6" type="line"/>
      <point x="598.6" y="1322.6"/>
      <point x="653.6" y="1272.2" type="qcurve"/>
      <point x="844.2" y="1358.8" type="line"/>
      <point x="894.0" y="1245.0" type="line"/>
      <point x="849.4" y="1200.4"/>
    </contour>
    <contour>
      <point x="613.4" y="124.6" type="qcurve"/>
      <point x="706.2" y="125.6"/>
      <point x="778.4" y="169.6" type="qcurve"/>
      <point x="854.0" y="215.6"/>
      <point x="892.4" y="295.4" type="qcurve"/>
      <point x="934.8" y="376.2"/>
      <point x="933.8" y="478.0" type="qcurve"/>
      <point x="936.8" y="574.0"/>
      <point x="894.2" y="651.4" type="qcurve"/>
      <point x="857.8" y="734.0"/>
      <point x="780.2" y="776.8" type="qcurve"/>
      <point x="708.2" y="824.0"/>
      <point x="609.2" y="824.0" type="qcurve"/>
      <point x="518.8" y="824.0"/>
      <point x="441.0" y="780.6" type="qcurve"/>
      <point x="368.4" y="739.4"/>
      <point x="326.2" y="659.2" type="qcurve"/>
      <point x="285.8" y="582.2"/>
      <point x="285.8" y="481.6" type="qcurve"/>
      <point x="285.8" y="380.2"/>
      <point x="326.4" y="299.2" type="qcurve"/>
      <point x="370.4" y="219.6"/>
      <point x="443.2" y="171.6" type="qcurve"/>
      <point x="521.0" y="127.2"/>
    </contour>
  </outline>
</glyph>
<glyph name="ntilde" format="2">
  <advance width="1152.0"/>
  <unicode hex="00F1"/>
  <outline>
    <contour>
      <point x="625.8" y="1027.6" type="qcurve"/>
      <point x="736.4" y="1030.6"/>
      <point x="821.2" y="978.0" type="qcurve"/>
      <point x="910.6" y="931.2"/>
      <point x="956.4" y="839.6" type="qcurve"/>
      <point x="1007.0" y="752.8"/>
      <point x="1004.0" y="637.8" type="qcurve"/>
      <point x="1004.0" y="0.0" type="line"/>
      <point x="844.0" y="0.0" type="line"/>
      <point x="844.0" y="617.0" type="line"/>
      <point x="844.0" y="734.8"/>
      <point x="777.0" y="807.4" type="qcurve"/>
      <point x="713.6" y="881.2"/>
      <point x="608.4" y="879.4" type="qcurve"/>
      <point x="530.4" y="879.4"/>
      <point x="460.0" y="847.4" type="qcurve"/>
      <point x="392.2" y="816.2"/>
      <point x="350.2" y="755.8" type="qcurve"/>
      <point x="312.4" y="703.0"/>
      <point x="311.4" y="637.6" type="qcurve"/>
      <point x="311.4" y="0.0" type="line"/>
      <point x="149.4" y="0.0" type="line"/>
      <point x="149.4" y="1002.8" type="line"/>
      <point x="311.4" y="1002.8" type="line"/>
      <point x="311.4" y="873.2" type="line"/>
      <point x="337.6" y="922.2"/>
      <point x="428.8" y="974.0" type="qcurve"/>
      <point x="521.8" y="1028.6"/>
    </contour>
    <contour>
      <point x="701.6" y="1116.4" type="qcurve"/>
      <point x="659.4" y="1114.2"/>
      <point x="624.8" y="1133.8" type="qcurve"/>
      <point x="597.8" y="1154.8"/>
      <point x="546.6" y="1188.8" type="qcurve"/>
      <point x="520.4" y="1219.0"/>
      <point x="495.6" y="1230.6" type="qcurve"/>
      <point x="478.0" y="1244.6"/>
      <point x="454.8" y="1242.0" type="qcurve"/>
      <point x="425.0" y="1242.8"/>
      <point x="402.2" y="1214.6" type="qcurve"/>
      <point x="380.0" y="1187.2"/>
      <point x="367.0" y="1110.4" type="qcurve"/>
      <point x="260.8" y="1125.8" type="line"/>
      <point x="294.8" y="1370.4"/>
      <point x="453.8" y="1369.4" type="qcurve"/>
      <point x="495.0" y="1372.6"/>
      <point x="528.0" y="1352.2" type="qcurve"/>
      <point x="561.2" y="1333.2"/>
      <point x="608.2" y="1297.2" type="qcurve"/>
      <point x="640.6" y="1269.8"/>
      <point x="659.4" y="1257.4" type="qcurve"/>
      <point x="680.8" y="1245.8"/>
      <point x="701.2" y="1245.8" type="qcurve"/>
      <point x="734.8" y="1245.8"/>
      <point x="753.8" y="1272.8" type="qcurve"/>
      <point x="776.4" y="1302.4"/>
      <point x="788.4" y="1374.4" type="qcurve"/>
      <point x="894.4" y="1360.2" type="line"/>
      <point x="862.6" y="1119.4"/>
    </contour>
  </outline>
</glyph>
<glyph name="ograve" format="2">
  <advance width="1226.4"/>
  <unicode hex="00F2"/>
  <outline>
    <contour>
      <point x="615.2" y="-22.8" type="qcurve"/>
      <point x="478.2" y="-19.8"/>
      <point x="357.4" y="49.8" type="qcurve"/>
      <point x="239.8" y="121.0"/>
      <point x="167.4" y="241.6" type="qcurve"/>
      <point x="97.0" y="364.6"/>
      <point x="97.0" y="501.4" type="qcurve"/>
      <point x="97.0" y="644.2"/>
      <point x="165.6" y="763.0" type="qcurve"/>
      <point x="238.0" y="887.8"/>
      <point x="357.4" y="955.2" type="qcurve"/>
      <point x="478.2" y="1027.6"/>
      <point x="615.2" y="1027.6" type="qcurve"/>
      <point x="755.2" y="1027.6"/>
      <point x="872.8" y="955.2" type="qcurve"/>
      <point x="994.6" y="887.8"/>
      <point x="1063.0" y="763.0" type="qcurve"/>
      <point x="1135.6" y="644.4"/>
      <point x="1132.4" y="501.4" type="qcurve"/>
      <point x="1132.4" y="430.2"/>
      <point x="1117.4" y="367.8" type="qcurve"/>
      <point x="1103.2" y="306.2"/>
      <point x="1065.0" y="243.8" type="qcurve"/>
      <point x="996.8" y="123.2"/>
      <point x="875.0" y="49.8" type="qcurve"/>
      <point x="757.2" y="-19.8"/>
    </contour>
    <contour>
      <point x="615.2" y="122.6" type="qcurve"/>
      <point x="707.2" y="125.6"/>
      <point x="788.2" y="175.6" type="qcurve"/>
      <point x="870.0" y="227.4"/>
      <point x="914.2" y="311.2" type="qcurve"/>
      <point x="964.4" y="401.2"/>
      <point x="964.4" y="501.4" type="qcurve"/>
      <point x="966.4" y="602.8"/>
      <point x="916.2" y="689.6" type="qcurve"/>
      <point x="871.6" y="777.2"/>
      <point x="790.2" y="827.2" type="qcurve"/>
      <point x="707.2" y="879.4"/>
      <point x="615.0" y="879.4" type="qcurve"/>
      <point x="522.0" y="881.2"/>
      <point x="441.4" y="829.4" type="qcurve"/>
      <point x="360.4" y="779.2"/>
      <point x="311.2" y="689.6" type="qcurve"/>
      <point x="266.0" y="603.0"/>
      <point x="266.0" y="501.4" type="qcurve"/>
      <point x="264.0" y="401.0"/>
      <point x="309.2" y="313.2" type="qcurve"/>
      <point x="358.4" y="227.6"/>
      <point x="439.4" y="175.4" type="qcurve"/>
      <point x="523.2" y="125.6"/>
    </contour>
    <contour>
      <point x="406.6" y="1363.0" type="line"/>
      <point x="582.2" y="1403.2" type="line"/>
      <point x="828.0" y="1109.6" type="line"/>
      <point x="694.6" y="1109.6" type="line"/>
    </contour>
  </outline>
</glyph>
<glyph name="otilde" format="2">
  <advance width="1226.4"/>
  <unicode hex="00F5"/>
  <outline>
    <contour>
      <point x="615.2" y="-22.8" type="qcurve"/>
      <point x="478.2" y="-19.8"/>
      <point x="357.4" y="49.8" type="qcurve"/>
      <point x="239.8" y="121.0"/>
      <point x="167.4" y="241.6" type="qcurve"/>
      <point x="97.0" y="364.6"/>
      <point x="97.0" y="501.4" type="qcurve"/>
      <point x="97.0" y="644.2"/>
      <point x="165.6" y="763.0" type="qcurve"/>
      <point x="238.0" y="887.8"/>
      <point x="357.4" y="955.2" type="qcurve"/>
      <point x="478.2" y="1027.6"/>
      <point x="615.2" y="1027.6" type="qcurve"/>
      <point x="755.2" y="1027.6"/>
      <point x="872.8" y="955.2" type="qcurve"/>
      <point x="994.6" y="887.8"/>
      <point x="1063.0" y="763.0" type="qcurve"/>
      <point x="1135.6" y="644.4"/>
      <point x="1132.4" y="501.4" type="qcurve"/>
      <point x="1132.4" y="430.2"/>
      <point x="1117.4" y="367.8" type="qcurve"/>
      <point x="1103.2" y="306.2"/>
      <point x="1065.0" y="243.8" type="qcurve"/>
      <point x="996.8" y="123.2"/>
      <point x="875.0" y="49.8" type="qcurve"/>
      <point x="757.2" y="-19.8"/>
    </contour>
    <contour>
      <point x="615.2" y="122.6" type="qcurve"/>
      <point x="707.2" y="125.6"/>
      <point x="788.2" y="175.6" type="qcurve"/>
      <point x="870.0" y="227.4"/>
      <point x="914.2" y="311.2" type="qcurve"/>
      <point x="964.4" y="401.2"/>
      <point x="964.4" y="501.4" type="qcurve"/>
      <point x="966.4" y="602.8"/>
      <point x="916.2" y="689.6" type="qcurve"/>
      <point x="871.6" y="777.2"/>
      <point x="790.2" y="827.2" type="qcurve"/>
      <point x="707.2" y="879.4"/>
      <point x="615.0" y="879.4" type="qcurve"/>
      <point x="522.0" y="881.2"/>
      <point x="441.4" y="829.4" type="qcurve"/>
      <point x="360.4" y="779.2"/>
      <point x="311.2" y="689.6" type="qcurve"/>
      <point x="266.0" y="603.0"/>
      <point x="266.0" y="501.4" type="qcurve"/>
      <point x="264.0" y="401.0"/>
      <point x="309.2" y="313.2" type="qcurve"/>
      <point x="358.4" y="227.6"/>
      <point x="439.4" y="175.4" type="qcurve"/>
      <point x="523.2" y="125.6"/>
    </contour>
    <contour>
      <point x="741.0" y="1114.4" type="qcurve"/>
      <point x="699.0" y="1112.4"/>
      <point x="664.4" y="1131.8" type="qcurve"/>
      <point x="637.2" y="1152.8"/>
      <point x="586.2" y="1186.8" type="qcurve"/>
      <point x="560.0" y="1217.0"/>
      <point x="535.2" y="1228.4" type="qcurve"/>
      <point x="516.8" y="1242.6"/>
      <point x="494.0" y="1240.0" type="qcurve"/>
      <point x="464.6" y="1240.8"/>
      <point x="441.8" y="1212.6" type="qcurve"/>
      <point x="419.6" y="1185.2"/>
      <point x="406.6" y="1108.4" type="qcurve"/>
      <point x="300.4" y="1123.8" type="line"/>
      <point x="334.2" y="1368.4"/>
      <point x="493.4" y="1367.4" type="qcurve"/>
      <point x="535.6" y="1370.6"/>
      <point x="567.8" y="1350.2" type="qcurve"/>
      <point x="599.8" y="1331.4"/>
      <point x="648.0" y="1295.2" type="qcurve"/>
      <point x="679.2" y="1268.0"/>
      <point x="698.8" y="1255.6" type="qcurve"/>
      <point x="721.2" y="1244.0"/>
      <point x="740.8" y="1244.0" type="qcurve"/>
      <point x="775.2" y="1244.0"/>
      <point x="793.2" y="1270.6" type="qcurve"/>
      <point x="814.6" y="1300.6"/>
      <point x="828.0" y="1372.4" type="qcurve"/>
      <point x="933.0" y="1358.2" type="line"/>
      <point x="901.2" y="1117.4"/>
    </contour>
  </outline>
</glyph>
<glyph name="odieresis" format="2">
  <advance width="1226.4"/>
  <unicode hex="00F6"/>
  <outline>
    <contour>
      <point x="615.2" y="-22.8" type="qcurve"/>
      <point x="478.2" y="-19.8"/>
      <point x="357.4" y="49.8" type="qcurve"/>
      <point x="239.8" y="121.0"/>
      <point x="167.4" y="241.6" type="qcurve"/>
      <point x="97.0" y="364.6"/>
      <point x="97.0" y="501.4" type="qcurve"/>
      <point x="97.0" y="644.2"/>
      <point x="165.6" y="763.0" type="qcurve"/>
      <point x="238.0" y="887.8"/>
      <point x="357.4" y="955.2" type="qcurve"/>
      <point x="478.2" y="1027.6"/>
      <point x="615.2" y="1027.6" type="qcurve"/>
      <point x="755.2" y="1027.6"/>
      <point x="872.8" y="955.2" type="qcurve"/>
      <point x="994.6" y="887.8"/>
      <point x="1063.0" y="763.0" type="qcurve"/>
      <point x="1135.6" y="644.4"/>
      <point x="1132.4" y="501.4" type="qcurve"/>
      <point x="1132.4" y="430.2"/>
      <point x="1117.4" y="367.8" type="qcurve"/>
      <point x="1103.2" y="306.2"/>
      <point x="1065.0" y="243.8" type="qcurve"/>
      <point x="996.8" y="123.2"/>
      <point x="875.0" y="49.8" type="qcurve"/>
      <point x="757.2" y="-19.8"/>
    </contour>
    <contour>
      <point x="615.2" y="122.6" type="qcurve"/>
      <point x="707.2" y="125.6"/>
      <point x="788.2" y="175.6" type="qcurve"/>
      <point x="870.0" y="227.4"/>
      <point x="914.2" y="311.2" type="qcurve"/>
      <point x="964.4" y="401.2"/>
      <point x="964.4" y="501.4" type="qcurve"/>
      <point x="966.4" y="602.8"/>
      <point x="916.2" y="689.6" type="qcurve"/>
      <point x="871.6" y="777.2"/>
      <point x="790.2" y="827.2" type="qcurve"/>
      <point x="707.2" y="879.4"/>
      <point x="615.0" y="879.4" type="qcurve"/>
      <point x="522.0" y="881.2"/>
      <point x="441.4" y="829.4" type="qcurve"/>
      <point x="360.4" y="779.2"/>
      <point x="311.2" y="689.6" type="qcurve"/>
      <point x="266.0" y="603.0"/>
      <point x="266.0" y="501.4" type="qcurve"/>
      <point x="264.0" y="401.0"/>
      <point x="309.2" y="313.2" type="qcurve"/>
      <point x="358.4" y="227.6"/>
      <point x="439.4" y="175.4" type="qcurve"/>
      <point x="523.2" y="125.6"/>
    </contour>
    <contour>
      <point x="432.4" y="1305.2" type="qcurve"/>
      <point x="474.0" y="1305.2"/>
      <point x="502.4" y="1275.6" type="qcurve"/>
      <point x="531.8" y="1246.2"/>
      <point x="531.8" y="1206.8" type="qcurve"/>
      <point x="531.8" y="1167.4"/>
      <point x="492.4" y="1128.2" type="qcurve"/>
      <point x="473.8" y="1109.6"/>
      <point x="432.4" y="1109.6" type="qcurve"/>
      <point x="393.0" y="1109.6"/>
      <point x="364.6" y="1138.0" type="qcurve"/>
      <point x="336.2" y="1167.6"/>
      <point x="336.2" y="1206.8" type="qcurve"/>
      <point x="336.2" y="1246.2"/>
      <point x="363.4" y="1275.6" type="qcurve"/>
      <point x="393.2" y="1305.2"/>
    </contour>
    <contour>
      <point x="799.0" y="1305.2" type="qcurve"/>
      <point x="839.6" y="1305.2"/>
      <point x="868.8" y="1275.6" type="qcurve"/>
      <point x="898.4" y="1246.2"/>
      <point x="898.4" y="1208.8" type="qcurve"/>
      <point x="898.4" y="1169.6"/>
      <point x="869.0" y="1139.0" type="qcurve"/>
      <point x="839.4" y="1109.6"/>
      <point x="799.0" y="1109.6" type="qcurve"/>
      <point x="760.4" y="1109.6"/>
      <point x="731.8" y="1139.2" type="qcurve"/>
      <point x="705.6" y="1169.6"/>
      <point x="704.6" y="1208.8" type="qcurve"/>
      <point x="704.6" y="1246.0"/>
      <point x="731.0" y="1275.4" type="qcurve"/>
      <point x="759.4" y="1305.2"/>
    </contour>
  </outline>
</glyph>
<glyph name="divide" format="2">
  <advance width="1153.8"/>
  <unicode hex="00F7"/>
  <outline>
    <contour>
      <point x="580.6" y="842.8" type="qcurve"/>
      <point x="533.6" y="843.8"/>
      <point x="499.0" y="874.0" type="qcurve"/>
      <point x="466.6" y="909.8"/>
      <point x="467.6" y="955.0" type="qcurve"/>
      <point x="466.6" y="1002.2"/>
      <point x="499.0" y="1034.6" type="qcurve"/>
      <point x="533.6" y="1069.2"/>
      <point x="580.6" y="1066.0" type="qcurve"/>
      <point x="626.0" y="1069.4"/>
      <point x="658.4" y="1034.6" type="qcurve"/>
      <point x="690.8" y="1002.2"/>
      <point x="690.8" y="955.0" type="qcurve"/>
      <point x="690.8" y="910.0"/>
      <point x="660.6" y="874.4" type="qcurve"/>
      <point x="627.8" y="843.8"/>
    </contour>
    <contour>
      <point x="131.6" y="725.2" type="line"/>
      <point x="1025.8" y="725.2" type="line"/>
      <point x="1025.8" y="565.2" type="line"/>
      <point x="131.6" y="565.2" type="line"/>
    </contour>
    <contour>
      <point x="580.6" y="225.2" type="qcurve"/>
      <point x="533.4" y="225.2"/>
      <point x="499.0" y="257.8" type="qcurve"/>
      <point x="466.6" y="292.4"/>
      <point x="467.6" y="337.4" type="qcurve"/>
      <point x="466.6" y="382.4"/>
      <point x="499.0" y="417.2" type="qcurve"/>
      <point x="533.4" y="451.6"/>
      <point x="580.6" y="450.6" type="qcurve"/>
      <point x="626.0" y="451.8"/>
      <point x="658.6" y="417.0" type="qcurve"/>
      <point x="690.8" y="382.6"/>
      <point x="690.8" y="337.4" type="qcurve"/>
      <point x="690.8" y="292.4"/>
      <point x="660.8" y="258.0" type="qcurve"/>
      <point x="627.8" y="225.2"/>
    </contour>
  </outline>
</glyph>
<glyph name="oslash" format="2">
  <advance width="1226.4"/>
  <unicode hex="00F8"/>
  <outline>
    <contour>
      <point x="1004.2" y="846.2" type="qcurve"/>
      <point x="1063.0" y="780.0"/>
      <point x="1095.2" y="689.8" type="qcurve"/>
      <point x="1133.4" y="604.0"/>
      <point x="1132.4" y="501.4" type="qcurve"/>
      <point x="1132.4" y="430.2"/>
      <point x="1117.4" y="367.8" type="qcurve"/>
      <point x="1103.2" y="306.2"/>
      <point x="1065.0" y="243.8" type="qcurve"/>
      <point x="996.8" y="123.2"/>
      <point x="875.0" y="49.8" type="qcurve"/>
      <point x="757.2" y="-19.8"/>
      <point x="615.2" y="-22.8" type="qcurve"/>
      <point x="464.2" y="-19.8"/>
      <point x="335.6" y="62.2" type="qcurve"/>
      <point x="283.6" y="0.0" type="line"/>
      <point x="93.6" y="0.0" type="line"/>
      <point x="230.0" y="155.4" type="line"/>
      <point x="169.6" y="219.8"/>
      <point x="132.4" y="310.4" type="qcurve"/>
      <point x="97.0" y="403.0"/>
      <point x="97.0" y="501.4" type="qcurve"/>
      <point x="97.0" y="644.2"/>
      <point x="165.6" y="763.0" type="qcurve"/>
      <point x="238.0" y="887.8"/>
      <point x="357.4" y="955.2" type="qcurve"/>
      <point x="478.2" y="1027.6"/>
      <point x="615.2" y="1027.6" type="qcurve"/>
      <point x="769.4" y="1028.6"/>
      <point x="897.2" y="939.6" type="qcurve"/>
      <point x="952.8" y="1002.8" type="line"/>
      <point x="1117.2" y="1002.8" type="line"/>
      <point x="1140.8" y="1002.8"/>
    </contour>
    <contour>
      <point x="266.0" y="501.4" type="qcurve"/>
      <point x="266.0" y="370.2"/>
      <point x="334.0" y="279.4" type="qcurve"/>
      <point x="798.0" y="823.6" type="line"/>
      <point x="716.0" y="881.2"/>
      <point x="615.2" y="879.4" type="qcurve"/>
      <point x="522.0" y="881.2"/>
      <point x="441.4" y="829.4" type="qcurve"/>
      <point x="360.4" y="779.2"/>
      <point x="311.2" y="689.6" type="qcurve"/>
      <point x="266.0" y="603.0"/>
    </contour>
    <contour>
      <point x="615.0" y="122.6" type="qcurve"/>
      <point x="707.2" y="125.6"/>
      <point x="788.2" y="175.6" type="qcurve"/>
      <point x="870.0" y="227.4"/>
      <point x="914.2" y="311.2" type="qcurve"/>
      <point x="964.4" y="401.2"/>
      <point x="964.4" y="501.4" type="qcurve"/>
      <point x="964.4" y="626.8"/>
      <point x="898.0" y="721.2" type="qcurve"/>
      <point x="434.6" y="179.2" type="line"/>
      <point x="514.4" y="123.6"/>
    </contour>
  </outline>
</glyph>
<glyph name="udieresis" format="2">
  <advance width="1152.0"/>
  <unicode hex="00FC"/>
  <outline>
    <contour>
      <point x="394.8" y="1280.4" type="qcurve"/>
      <point x="435.2" y="1281.6"/>
      <point x="464.8" y="1252.0" type="qcurve"/>
      <point x="494.2" y="1222.4"/>
      <point x="494.2" y="1182.2" type="qcurve"/>
      <point x="494.2" y="1143.6"/>
      <point x="464.8" y="1114.4" type="qcurve"/>
      <point x="435.2" y="1085.8"/>
      <point x="395.0" y="1085.8" type="qcurve"/>
      <point x="356.6" y="1084.6"/>
      <point x="326.8" y="1113.4" type="qcurve"/>
      <point x="298.6" y="1142.8"/>
      <point x="298.6" y="1182.2" type="qcurve"/>
      <point x="298.6" y="1222.6"/>
      <point x="327.0" y="1251.0" type="qcurve"/>
      <point x="356.6" y="1280.4"/>
    </contour>
    <contour>
      <point x="761.2" y="1280.4" type="qcurve"/>
      <point x="803.0" y="1281.6"/>
      <point x="831.4" y="1252.0" type="qcurve"/>
      <point x="860.8" y="1222.4"/>
      <point x="860.8" y="1184.2" type="qcurve"/>
      <point x="860.8" y="1144.6"/>
      <point x="831.2" y="1115.4" type="qcurve"/>
      <point x="803.0" y="1085.8"/>
      <point x="761.6" y="1085.8" type="qcurve"/>
      <point x="721.8" y="1084.6"/>
      <point x="694.2" y="1114.6" type="qcurve"/>
      <point x="667.0" y="1143.8"/>
      <point x="667.0" y="1184.2" type="qcurve"/>
      <point x="667.0" y="1222.4"/>
      <point x="694.4" y="1251.0" type="qcurve"/>
      <point x="721.8" y="1280.4"/>
    </contour>
    <contour>
      <point x="527.2" y="-24.8" type="qcurve"/>
      <point x="417.0" y="-25.6"/>
      <point x="331.8" y="25.8" type="qcurve"/>
      <point x="242.6" y="74.6"/>
      <point x="197.0" y="163.0" type="qcurve"/>
      <point x="147.2" y="251.0"/>
      <point x="149.4" y="366.2" type="qcurve"/>
      <point x="149.4" y="1002.8" type="line"/>
      <point x="309.4" y="1002.8" type="line"/>
      <point x="309.4" y="385.8" type="line"/>
      <point x="310.4" y="267.8"/>
      <point x="376.2" y="195.6" type="qcurve"/>
      <point x="439.8" y="123.6"/>
      <point x="545.0" y="124.6" type="qcurve"/>
      <point x="624.0" y="124.6"/>
      <point x="693.4" y="155.4" type="qcurve"/>
      <point x="763.0" y="186.8"/>
      <point x="803.2" y="247.8" type="qcurve"/>
      <point x="843.0" y="301.0"/>
      <point x="842.0" y="365.8" type="qcurve"/>
      <point x="842.0" y="1002.8" type="line"/>
      <point x="1004.0" y="1002.8" type="line"/>
      <point x="1004.0" y="0.0" type="line"/>
      <point x="842.0" y="0.0" type="line"/>
      <point x="842.0" y="129.4" type="line"/>
      <point x="816.8" y="81.6"/>
      <point x="723.6" y="29.8" type="qcurve"/>
      <point x="633.6" y="-24.8"/>
    </contour>
  </outline>
</glyph>
<glyph name="yacute" format="2">
  <advance width="1157.8"/>
  <unicode hex="00FD"/>
  <outline>
    <contour>
      <point x="346.6" y="-374.4" type="line"/>
      <point x="495.2" y="9.200000000000001" type="line"/>
      <point x="55.4" y="1002.8" type="line"/>
      <point x="234.2" y="1002.8" type="line"/>
      <point x="576.4" y="204.2" type="line"/>
      <point x="892.6" y="1002.8" type="line"/>
      <point x="1068.8" y="1002.8" type="line"/>
      <point x="505.8" y="-374.4" type="line"/>
    </contour>
    <contour>
      <point x="600.0" y="1379.2" type="line"/>
      <point x="772.4" y="1339.4" type="line"/>
      <point x="487.4" y="1085.8" type="line"/>
      <point x="351.8" y="1085.8" type="line"/>
    </contour>
  </outline>
</glyph>
<glyph name="thorn" format="2">
  <advance width="1238.4"/>
  <unicode hex="00FE"/>
  <outline>
    <contour>
      <point x="673.4" y="1027.6" type="qcurve"/>
      <point x="804.8" y="1030.6"/>
      <point x="907.8" y="960.8" type="qcurve"/>
      <point x="1018.8" y="896.2"/>
      <point x="1075.2" y="773.4" type="qcurve"/>
      <point x="1137.4" y="651.8"/>
      <point x="1134.4" y="501.4" type="qcurve"/>
      <point x="1137.4" y="357.0"/>
      <point x="1075.2" y="232.6" type="qcurve"/>
      <point x="1018.8" y="115.4"/>
      <point x="909.8" y="46.0" type="qcurve"/>
      <point x="806.8" y="-22.8"/>
      <point x="673.6" y="-22.8" type="qcurve"/>
      <point x="555.4" y="-24.8"/>
      <point x="460.2" y="32.0" type="qcurve"/>
      <point x="366.4" y="89.4"/>
      <point x="322.4" y="161.0" type="qcurve"/>
      <point x="322.4" y="-328.0" type="line"/>
      <point x="162.2" y="-328.0" type="line"/>
      <point x="162.2" y="1349.6" type="line"/>
      <point x="322.4" y="1349.6" type="line"/>
      <point x="322.4" y="844.0" type="line"/>
      <point x="364.4" y="915.2"/>
      <point x="458.4" y="970.0" type="qcurve"/>
      <point x="554.4" y="1027.6"/>
    </contour>
    <contour>
      <point x="647.8" y="122.6" type="qcurve"/>
      <point x="739.6" y="125.6"/>
      <point x="810.8" y="171.4" type="qcurve"/>
      <point x="885.6" y="219.4"/>
      <point x="925.0" y="302.8" type="qcurve"/>
      <point x="966.4" y="392.8"/>
      <point x="966.4" y="501.4" type="qcurve"/>
      <point x="966.4" y="614.8"/>
      <point x="924.8" y="698.0" type="qcurve"/>
      <point x="887.4" y="785.4"/>
      <point x="812.6" y="831.4" type="qcurve"/>
      <point x="739.8" y="881.2"/>
      <point x="647.8" y="879.4" type="qcurve"/>
      <point x="557.6" y="881.2"/>
      <point x="480.0" y="831.4" type="qcurve"/>
      <point x="407.2" y="785.6"/>
      <point x="363.8" y="697.8" type="qcurve"/>
      <point x="323.2" y="614.8"/>
      <point x="322.4" y="501.4" type="qcurve"/>
      <point x="323.2" y="392.8"/>
      <point x="363.8" y="305.0" type="qcurve"/>
      <point x="407.0" y="221.2"/>
      <point x="480.0" y="171.4" type="qcurve"/>
      <point x="557.6" y="125.6"/>
    </contour>
  </outline>
</glyph>
<glyph name="ydieresis" format="2">
  <advance width="1157.8"/>
  <unicode hex="00FF"/>
  <outline>
    <contour>
      <point x="346.6" y="-374.4" type="line"/>
      <point x="495.2" y="9.200000000000001" type="line"/>
      <point x="55.4" y="1002.8" type="line"/>
      <point x="234.2" y="1002.8" type="line"/>
      <point x="576.4" y="204.2" type="line"/>
      <point x="892.6" y="1002.8" type="line"/>
      <point x="1068.8" y="1002.8" type="line"/>
      <point x="505.8" y="-374.4" type="line"/>
    </contour>
    <contour>
      <point x="378.0" y="1280.4" type="qcurve"/>
      <point x="418.6" y="1281.6"/>
      <point x="447.2" y="1252.0" type="qcurve"/>
      <point x="476.4" y="1222.4"/>
      <point x="476.4" y="1182.4" type="qcurve"/>
      <point x="477.6" y="1143.6"/>
      <point x="448.0" y="1114.4" type="qcurve"/>
      <point x="418.4" y="1085.8"/>
      <point x="378.2" y="1085.8" type="qcurve"/>
      <point x="339.8" y="1084.6"/>
      <point x="310.0" y="1113.4" type="qcurve"/>
      <point x="281.8" y="1142.8"/>
      <point x="281.8" y="1182.0" type="qcurve"/>
      <point x="280.6" y="1222.4"/>
      <point x="309.2" y="1251.0" type="qcurve"/>
      <point x="338.8" y="1280.4"/>
    </contour>
    <contour>
      <point x="744.4" y="1280.4" type="qcurve"/>
      <point x="785.2" y="1281.6"/>
      <point x="813.6" y="1252.0" type="qcurve"/>
      <point x="843.0" y="1222.4"/>
      <point x="843.0" y="1184.2" type="qcurve"/>
      <point x="843.0" y="1144.8"/>
      <point x="814.6" y="1115.4" type="qcurve"/>
      <point x="786.2" y="1085.8"/>
      <point x="744.8" y="1085.8" type="qcurve"/>
      <point x="705.0" y="1084.6"/>
      <point x="677.4" y="1114.6" type="qcurve"/>
      <point x="650.2" y="1143.8"/>
      <point x="650.2" y="1184.2" type="qcurve"/>
      <point x="650.2" y="1222.4"/>
      <point x="676.4" y="1250.8" type="qcurve"/>
      <point x="705.2" y="1280.4"/>
    </contour>
  </outline>
</glyph>
<glyph name="Amacron" format="2">
  <advance width="1363.4"/>
  <unicode hex="0100"/>
  <outline>
    <contour>
      <point x="595.8" y="1457.4" type="line"/>
      <point x="771.0" y="1457.4" type="line"/>
      <point x="1299.4" y="0.0" type="line"/>
      <point x="1120.4" y="0.0" type="line"/>
      <point x="972.2" y="413.0" type="line"/>
      <point x="393.6" y="413.0" type="line"/>
      <point x="242.4" y="0.0" type="line"/>
      <point x="62.2" y="0.0" type="line"/>
    </contour>
    <contour>
      <point x="683.4" y="1201.4" type="line"/>
      <point x="451.0" y="570.2" type="line"/>
      <point x="914.8" y="570.2" type="line"/>
    </contour>
    <contour>
      <point x="520.8" y="1879.2" type="line"/>
      <point x="1058.4" y="1879.2" type="line"/>
      <point x="1058.4" y="1751.8" type="line"/>
      <point x="520.8" y="1751.8" type="line"/>
    </contour>
    <contour>
      <point x="312.8" y="1548.8" type="line"/>
      <point x="312.8" y="1548.8" type="line"/>
      <point x="312.8" y="1548.8" type="line"/>
      <point x="312.8" y="1548.8" type="line"/>
    </contour>
    <contour>
      <point x="312.8" y="1548.8" type="line"/>
      <point x="312.8" y="1548.8" type="line"/>
      <point x="312.8" y="1548.8" type="line"/>
      <point x="312.8" y="1548.8" type="line"/>
    </contour>
  </outline>
</glyph>
<glyph name="amacron" format="2">
  <advance width="1239.0"/>
  <unicode hex="0101"/>
  <outline>
    <contour>
      <point x="596.4" y="122.6" type="qcurve"/>
      <point x="690.2" y="125.6"/>
      <point x="762.4" y="171.4" type="qcurve"/>
      <point x="836.2" y="219.4"/>
      <point x="876.4" y="303.0" type="qcurve"/>
      <point x="920.0" y="392.8"/>
      <point x="918.0" y="501.4" type="qcurve"/>
      <point x="920.0" y="614.8"/>
      <point x="876.4" y="697.8" type="qcurve"/>
      <point x="836.2" y="785.4"/>
      <point x="762.4" y="831.6" type="qcurve"/>
      <point x="690.4" y="881.2"/>
      <point x="596.4" y="879.4" type="qcurve"/>
      <point x="506.4" y="881.2"/>
      <point x="431.6" y="831.2" type="qcurve"/>
      <point x="356.8" y="785.4"/>
      <point x="315.4" y="698.0" type="qcurve"/>
      <point x="275.8" y="614.8"/>
      <point x="275.8" y="501.4" type="qcurve"/>
      <point x="275.8" y="393.8"/>
      <point x="315.4" y="304.8" type="qcurve"/>
      <point x="358.6" y="221.2"/>
      <point x="429.6" y="171.4" type="qcurve"/>
      <point x="507.2" y="125.6"/>
    </contour>
    <contour>
      <point x="1080.0" y="1002.8" type="line"/>
      <point x="1080.0" y="0.0" type="line"/>
      <point x="918.0" y="0.0" type="line"/>
      <point x="918.0" y="159.4" type="line"/>
      <point x="879.0" y="92.6"/>
      <point x="785.2" y="35.0" type="qcurve"/>
      <point x="692.0" y="-22.8"/>
      <point x="570.8" y="-22.8" type="qcurve"/>
      <point x="440.6" y="-24.8"/>
      <point x="334.4" y="44.0" type="qcurve"/>
      <point x="229.4" y="113.4"/>
      <point x="167.2" y="232.6" type="qcurve"/>
      <point x="109.0" y="356.8"/>
      <point x="105.0" y="501.4" type="qcurve"/>
      <point x="108.8" y="651.8"/>
      <point x="167.2" y="771.4" type="qcurve"/>
      <point x="229.4" y="895.4"/>
      <point x="332.8" y="959.0" type="qcurve"/>
      <point x="441.4" y="1028.6"/>
      <point x="570.6" y="1027.6" type="qcurve"/>
      <point x="689.0" y="1029.6"/>
      <point x="783.2" y="971.8" type="qcurve"/>
      <point x="878.0" y="915.2"/>
      <point x="918.0" y="845.2" type="qcurve"/>
      <point x="918.0" y="1002.8" type="line"/>
    </contour>
    <contour>
      <point x="433.0" y="1449.4" type="line"/>
      <point x="970.4" y="1449.4" type="line"/>
      <point x="970.4" y="1322.0" type="line"/>
      <point x="433.0" y="1322.0" type="line"/>
    </contour>
    <contour>
      <point x="225.0" y="1119.0" type="line"/>
      <point x="225.0" y="1119.0" type="line"/>
      <point x="225.0" y="1119.0" type="line"/>
      <point x="225.0" y="1119.0" type="line"/>
    </contour>
    <contour>
      <point x="225.0" y="1119.0" type="line"/>
      <point x="225.0" y="1119.0" type="line"/>
      <point x="225.0" y="1119.0" type="line"/>
      <point x="225.0" y="1119.0" type="line"/>
    </contour>
  </outline>
</glyph>
<glyph name="Abreve" format="2">
  <advance width="1363.4"/>
  <unicode hex="0102"/>
  <outline>
    <contour>
      <point x="595.8" y="1457.4" type="line"/>
      <point x="771.0" y="1457.4" type="line"/>
      <point x="1299.4" y="0.0" type="line"/>
      <point x="1120.4" y="0.0" type="line"/>
      <point x="972.2" y="413.0" type="line"/>
      <point x="393.6" y="413.0" type="line"/>
      <point x="242.4" y="0.0" type="line"/>
      <point x="62.2" y="0.0" type="line"/>
    </contour>
    <contour>
      <point x="683.4" y="1201.4" type="line"/>
      <point x="451.0" y="570.2" type="line"/>
      <point x="914.8" y="570.2" type="line"/>
    </contour>
    <contour>
      <point x="680.4" y="1539.4" type="qcurve"/>
      <point x="605.6" y="1539.4"/>
      <point x="529.6" y="1568.6" type="qcurve"/>
      <point x="455.8" y="1600.0"/>
      <point x="388.2" y="1664.4" type="qcurve"/>
      <point x="492.8" y="1766.4" type="line"/>
      <point x="535.8" y="1724.4"/>
      <point x="581.4" y="1701.6" type="qcurve"/>
      <point x="632.8" y="1681.6"/>
      <point x="680.4" y="1681.6" type="qcurve"/>
      <point x="729.0" y="1681.6"/>
      <point x="774.4" y="1701.6" type="qcurve"/>
      <point x="828.2" y="1724.6"/>
      <point x="869.2" y="1766.8" type="qcurve"/>
      <point x="969.2" y="1664.4" type="line"/>
      <point x="911.2" y="1603.0"/>
      <point x="834.2" y="1570.6" type="qcurve"/>
      <point x="761.6" y="1539.4"/>
    </contour>
  </outline>
</glyph>
